<?xml version="1.0" standalone="no"?>
<!DOCTYPE svg PUBLIC "-//W3C//DTD SVG 1.1//EN" "http://www.w3.org/Graphics/SVG/1.1/DTD/svg11.dtd" >
<svg xmlns="http://www.w3.org/2000/svg">
<metadata>
This is a custom SVG webfont generated by Font Squirrel.
Copyright   : Generated in 2007 by FontLab Studio Copyright info pending
Designer    : Stefan HattenbachMAC Rhino
Foundry URL : Stefan HattenbachMAC Rhinocom
</metadata>
<defs>
<font id="Serif72BetaItalic" horiz-adv-x="1411" >
<font-face units-per-em="2048" ascent="1536" descent="-512" />
<missing-glyph horiz-adv-x="387" />
<glyph unicode=" "  horiz-adv-x="387" />
<glyph unicode="&#x09;" horiz-adv-x="387" />
<glyph unicode="&#xa0;" horiz-adv-x="387" />
<glyph unicode="!" horiz-adv-x="634" d="M127 92q8 49 47 80t90 31q49 0 75 -31t17 -80q-8 -51 -47 -83t-90 -32q-49 0 -74.5 33t-17.5 82zM270 399l129 977q6 43 42 73t81 32q41 2 62.5 -28t7.5 -77l-254 -977q-8 -31 -43 -28q-31 1 -25 28z" />
<glyph unicode="&#x22;" horiz-adv-x="747" d="M281 983l53 414q10 66 72 84q59 16 79 -25q12 -25 2 -59l-108 -414h-98zM565 983l53 414q10 66 72 84q59 16 80 -25q12 -25 2 -59l-108 -414h-99z" />
<glyph unicode="#" horiz-adv-x="1067" d="M51 424l21 88h247l154 422h-283l23 88h291l162 440h88l-160 -440h205l159 440h91l-162 -440h237l-22 -88h-246l-154 -422h281l-20 -88h-293l-154 -424h-88l154 424h-205l-154 -424h-90l154 424h-236zM408 512h204l154 422h-205z" />
<glyph unicode="$" horiz-adv-x="1093" d="M51 2l92 424l68 2q-35 -270 145 -356l172 606q-180 109 -246.5 206t-35.5 220q41 164 192.5 264t315.5 111l51 182h69l-51 -182q92 -8 168 -47t109 -76l47 108h70l-87 -393h-65q18 162 -53.5 256t-202.5 105l-158 -562l76 -43q209 -131 270 -190q125 -127 82 -303 q-41 -162 -197.5 -258t-351.5 -96q-57 0 -127 18l-55 -199h-67l61 219q-121 49 -176 125l-49 -141h-66zM418 47q55 -14 133 -14q127 0 221 69.5t123 184.5q16 61 -2.5 114.5t-78.5 101.5t-94 69.5t-118 64.5q-10 6 -14 8zM420 1174q-20 -88 26 -149.5t146 -121.5l147 529 q-115 -12 -204.5 -83t-114.5 -175z" />
<glyph unicode="%" horiz-adv-x="1679" d="M293 0l1116 1462h88l-1116 -1462h-88zM338 1159q27 137 133.5 230.5t249.5 93.5q139 0 211 -94.5t45 -229.5q-29 -145 -134.5 -242.5t-250.5 -97.5q-137 0 -208 98.5t-46 241.5zM492 1159q-57 -293 108 -293q84 0 141.5 82t81.5 211q53 276 -112 277q-84 0 -139 -77 t-80 -200zM821 319q29 137 133.5 230.5t247.5 93.5q139 0 213 -94t45 -230q-29 -145 -135 -242t-252 -97q-137 0 -208 98t-44 241zM975 319q-59 -293 108 -292q84 0 140.5 80.5t83.5 211.5q49 276 -113 277q-84 0 -140 -78t-79 -199z" />
<glyph unicode="&#x26;" horiz-adv-x="1396" d="M125 348q16 86 92 170t144.5 130t175.5 108l4 4l-33 80q-76 182 -49 311q29 141 137.5 232.5t249.5 91.5q109 0 172 -69t41 -189q-39 -201 -336 -388l117 -274q74 -162 139 -276q86 92 141 192q0 27 -18.5 71t-12 76.5t29 57t55.5 24.5q92 0 38 -125q-70 -168 -213 -329 q96 -150 177 -150q41 0 84 45l12 -12q-80 -143 -225 -143q-94 0 -187 131q-174 -133 -356 -133q-213 0 -313.5 93t-65.5 271zM338 399q-31 -150 29.5 -250t175.5 -100q145 0 293 105q-68 102 -193 370l-84 193q-184 -119 -221 -318zM627 1212q-18 -102 57 -286q4 -10 6 -17 l17 -41q186 139 225 328q18 102 -6.5 168t-85.5 66q-76 0 -134.5 -56t-78.5 -162z" />
<glyph unicode="'" horiz-adv-x="374" d="M242 983l53 414q10 66 72 84q59 16 79 -25q12 -25 3 -59l-109 -414h-98z" />
<glyph unicode="(" horiz-adv-x="677" d="M166 608q39 203 132 400.5t237.5 366.5t310.5 251l10 -31q-190 -131 -320 -410.5t-186 -576.5q-41 -205 -51 -396.5t26.5 -375.5t131.5 -274l-17 -31q-201 125 -270.5 430t-3.5 647z" />
<glyph unicode=")" horiz-adv-x="677" d="M-139 -438q190 131 319 410.5t185 576.5q41 205 52 395.5t-25 375.5t-130 275l14 31q199 -125 268.5 -429t4.5 -648q-59 -311 -245.5 -603t-434.5 -415z" />
<glyph unicode="*" horiz-adv-x="974" d="M195 1153l55 109l266 -109l51 315h111l-70 -313l307 109l13 -111l-314 -86l140 -244l-105 -65l-117 250l-217 -250l-77 65l231 242z" />
<glyph unicode="+" horiz-adv-x="974" d="M76 559l18 109h377l70 356h106l-69 -356h370l-20 -109h-373l-70 -358h-106l70 358h-373z" />
<glyph unicode="," horiz-adv-x="425" d="M-55 -262q145 100 174 225q-45 8 -72 46t-18 83q8 49 47 80t90 31q47 0 73.5 -42t12.5 -110q-23 -119 -115 -220t-164 -138z" />
<glyph unicode="-" horiz-adv-x="1036" d="M221 565l37 150h692l-37 -150h-692z" />
<glyph unicode="." horiz-adv-x="374" d="M-6 92q14 51 56 81t95 30q51 0 79 -31t16 -80q-14 -53 -55.5 -84t-96.5 -31q-51 0 -78.5 33t-15.5 82z" />
<glyph unicode="/" horiz-adv-x="933" d="M-66 -221l1029 1718h90l-1030 -1718h-89z" />
<glyph unicode="0" horiz-adv-x="1429" d="M174 731q63 328 265 540t476 212q262 0 384 -214t59 -538q-66 -328 -265.5 -538.5t-474.5 -210.5q-262 0 -386 212.5t-58 536.5zM391 731q-141 -698 240 -698q193 0 320.5 190.5t189.5 507.5q145 700 -236 701q-195 0 -323 -191t-191 -510z" />
<glyph unicode="1" horiz-adv-x="671" d="M-8 -4l12 59l166 23l231 1175h-161l16 64q186 12 272 145l95 4l-273 -1384l156 -27l-12 -59l-248 4z" />
<glyph unicode="2" horiz-adv-x="999" d="M-25 0l17 92q471 373 663.5 599.5t243.5 432.5q31 119 -10 199t-160 80q-133 0 -274 -98q39 -121 22 -193q-12 -47 -52 -77.5t-93 -30.5q-66 0 -72 78.5t49 144.5q96 111 233.5 178.5t270.5 67.5q166 0 246 -98.5t39 -280.5q-20 -90 -92 -189.5t-228.5 -236t-242.5 -204 t-306 -233.5q-51 -39 -77 -59l-2 -6h698l37 55l43 -2l-97 -219h-856z" />
<glyph unicode="3" horiz-adv-x="1132" d="M45 168q-27 88 21.5 163t126.5 75q49 0 70.5 -35t10.5 -82q-4 -25 -15 -50.5t-19.5 -40t-22.5 -35t-16 -24.5q12 -43 89 -71.5t146 -28.5q143 0 240.5 88t132.5 260q37 195 -60.5 272.5t-342.5 30.5l-17 68l-10 26q133 16 230.5 46t151.5 61t89 77t47 80.5t23 88.5 q23 111 -27.5 194.5t-175.5 83.5q-127 0 -223 -67q2 -12 6 -40t5 -43.5t0 -43t-7 -56.5q-20 -109 -142 -108q-72 0 -81 74.5t44 142.5q76 106 209.5 155.5t253.5 49.5q158 0 266.5 -89.5t77.5 -259.5q-27 -127 -142.5 -221t-315.5 -141l2 -25q211 -2 303 -107.5t61 -254.5 q-29 -137 -126 -230.5t-220 -131t-264 -37.5q-131 0 -242.5 57t-136.5 129z" />
<glyph unicode="4" horiz-adv-x="1124" d="M86 332l14 67h2q209 252 360.5 456t222.5 314.5t179 292.5l176 -2l-819 -1061h443l98 447h178l-98 -447h219l-12 -67h-222l-57 -264l148 -27l-11 -45l-239 4l-244 -4l8 45l158 22l59 269h-563z" />
<glyph unicode="5" horiz-adv-x="1077" d="M45 168q-27 88 21.5 163t126.5 75q49 0 70.5 -35t10.5 -82q-4 -25 -15 -50.5t-19.5 -40t-22.5 -35t-16 -24.5q10 -43 70.5 -71.5t123.5 -28.5q152 0 260.5 116.5t143.5 299.5q37 193 -25.5 279.5t-230.5 86.5q-145 0 -256 -94l-76 2l172 733h692l-28 -250h-64 q-8 76 -123 76h-450l-115 -493q164 133 362 133q111 0 190 -39t112.5 -102.5t46 -141.5t-8.5 -156q-45 -233 -215 -370t-399 -137q-119 0 -218.5 57t-119.5 129z" />
<glyph unicode="6" horiz-adv-x="1167" d="M103.5 389.5q-13.5 106.5 11.5 204.5q78 395 292 640t437 245q61 0 119.5 -16.5t108.5 -47.5t72.5 -87t4.5 -128q-12 -43 -43 -65.5t-66 -22.5q-84 0 -96 82q-8 96 53 172q-57 45 -137 45q-348 0 -514 -739q70 111 182.5 169t214.5 58q190 0 276.5 -114.5t49.5 -299.5 q-39 -190 -210 -342.5t-365 -152.5q-127 0 -216.5 57t-125 146.5t-49 196zM322 547q-78 -492 208 -492q252 0 328 381q35 178 -7 279.5t-165 101.5q-106 0 -206.5 -70.5t-157.5 -199.5z" />
<glyph unicode="7" horiz-adv-x="935" d="M137 1208l82 254h848l-16 -102q-147 -160 -256 -328t-176.5 -341t-103.5 -303t-71 -306q-20 -94 -100 -94q-94 0 -74 94q121 649 652 1180l-17 20h-678l-47 -76z" />
<glyph unicode="8" horiz-adv-x="1179" d="M104 334q23 133 134.5 231.5t273.5 143.5q-285 150 -236 378q31 164 173.5 277t338.5 113q188 0 294 -95.5t77 -232.5q-23 -123 -129 -215t-256 -131q145 -66 234.5 -168.5t62.5 -239.5q-33 -172 -188.5 -290.5t-370.5 -118.5q-207 0 -322 101.5t-86 246.5zM279 354 q-27 -143 29.5 -230t213.5 -87q152 0 246 83t121 214q12 63 -8.5 116.5t-68.5 94.5t-96 69.5t-116 57.5l-47 18q-113 -41 -182 -132t-92 -204zM459 1149q-23 -111 50 -185.5t198 -132.5l28 -12q203 74 250 309q27 135 -20 216t-187 81q-133 0 -213.5 -76.5t-105.5 -199.5z " />
<glyph unicode="9" horiz-adv-x="1167" d="M125 197q-14 37 20.5 108.5t104.5 71.5q49 0 72.5 -32t15.5 -77q-23 -96 -90 -153q70 -51 186 -52q98 0 184.5 73t144.5 191.5t97 237.5t66 246q-66 -121 -178.5 -179.5t-217.5 -58.5q-188 0 -276 115t-51 297q37 190 209 342t370 152q102 0 177 -41t116 -106.5 t61.5 -151.5t19.5 -172t-17 -174q-80 -399 -277.5 -621.5t-410.5 -222.5q-141 0 -224.5 60.5t-99.5 144.5zM403 973q-31 -152 14.5 -244t166.5 -92q111 0 212 83t154 232q59 461 -211 461q-254 0 -336 -440z" />
<glyph unicode=":" horiz-adv-x="454" d="M31 92q8 49 47 80t90 31q49 0 74.5 -31t17.5 -80q-8 -51 -47 -83t-88 -32t-75.5 32t-18.5 83zM100 840q8 49 47 79.5t91 30.5q49 0 74.5 -30.5t17.5 -79.5q-8 -51 -47 -83t-88.5 -32t-76 32t-18.5 83z" />
<glyph unicode=";" horiz-adv-x="466" d="M-39 -262q145 100 174 225q-45 8 -71.5 46t-18.5 83q8 49 47 80t90 31q47 0 74 -42t12 -110q-23 -119 -115 -220t-163 -138zM111 840q8 49 47 79.5t90 30.5q49 0 74.5 -30.5t17.5 -79.5q-8 -51 -47 -83t-88 -32t-75.5 32t-18.5 83z" />
<glyph unicode="&#x3c;" horiz-adv-x="851" d="M57 549l21 96l833 346l-18 -88l-717 -305l600 -295l-18 -98z" />
<glyph unicode="=" horiz-adv-x="1056" d="M70 416l20 108h893l-20 -108h-893zM133 750l25 108h893l-25 -108h-893z" />
<glyph unicode="&#x3e;" horiz-adv-x="851" d="M-8 205l18 88l713 305l-594 295l18 98l697 -344l-21 -96z" />
<glyph unicode="?" horiz-adv-x="987" d="M218 1174.5q11 46.5 42 85.5q86 100 210 162.5t249 62.5q160 0 242.5 -82t50.5 -246q-27 -133 -148 -252t-278 -198l-60 -308q-4 -27 -88 -24q-63 4 -59 24l51 275q172 55 269.5 173t123.5 249q31 152 -23.5 235.5t-178.5 83.5q-115 0 -222 -78q37 -92 21 -163 q-8 -45 -46 -77t-89 -32q-43 0 -60.5 31.5t-6.5 78zM272 92q8 49 47 80t88.5 31t76 -31t18.5 -80t-48 -82t-89.5 -33t-75 32t-17.5 83z" />
<glyph unicode="@" horiz-adv-x="1796" d="M113 393q55 274 222 485.5t388 319t459 105.5q231 0 368.5 -93.5t175 -232.5t3.5 -311q-39 -215 -232.5 -403.5t-394.5 -188.5q-162 0 -94 229l20 68q-170 -307 -364 -308q-106 0 -150.5 100.5t-1.5 246.5q37 135 107.5 241.5t149.5 163.5t148.5 87t122.5 30 q102 0 142 -74l35 60h126l-188 -613q-29 -111 -18.5 -137.5t61.5 -26.5q113 0 235.5 163t155.5 341q49 250 -52 420t-368 172q-199 2 -385 -96.5t-328.5 -294t-193.5 -453.5q-55 -283 64.5 -464t396.5 -181q301 0 534 184l13 -24q-254 -223 -596 -223q-309 0 -462.5 207.5 t-98.5 500.5zM672 430q-74 -258 90 -258q49 0 101 41t91 99.5t72 116.5t51 99l17 41l8 -174l-60 2l-14 -26l47 157l45 144q59 201 -114 200q-86 0 -176 -107.5t-158 -334.5z" />
<glyph unicode="A" d="M-72 -4l9 39l149 26l885 1395h100l92 -1395l142 -26l-9 -39l-237 4l-248 -4l8 39l154 22l-23 392h-532l-248 -392l141 -22l-8 -39l-176 4zM471 532h475l-39 689z" />
<glyph unicode="B" horiz-adv-x="1390" d="M27 -4l8 39l158 22l282 1344l-151 18l12 43h534q256 0 391 -104q107 -83 106 -201q0 -31 -7 -63q-59 -276 -473 -342v-13q221 -20 335 -108q86 -66 85 -179q0 -36 -9 -77q-35 -164 -205.5 -269.5t-439.5 -105.5h-377zM379 61l266 -2h8q193 0 303 95q113 96 140 227 q11 34 11 70q0 22 -4 44q-11 58 -41 105t-108 76q-73 27 -177 27q-7 0 -15 -1h-246zM530 770h203q197 6 298.5 98.5t125.5 218.5q9 32 9 64q0 24 -5 49q-12 57 -41.5 102.5t-101.5 73t-176 27.5l-174 -2z" />
<glyph unicode="C" horiz-adv-x="1288" d="M174 395q-11 59 -11 129q0 96 21 209q39 186 132.5 336t207 236t227 131t210.5 45q252 0 339 -146l54 129h63l-90 -415h-53q-2 180 -80 282.5t-242 102.5q-176 0 -326.5 -193.5t-213.5 -505.5l-2 -4q-29 -135 -29 -248q0 -137 42 -240q77 -189 251 -190q199 0 342 90 t217 217l37 -22q-94 -156 -257 -254t-356 -98q-102 0 -198.5 43t-177 134t-107.5 232z" />
<glyph unicode="D" horiz-adv-x="1466" d="M27 -4l8 39l158 22l282 1344l-151 18l12 43h514q334 0 506 -210q127 -155 127 -354q0 -71 -17 -148q-74 -356 -328.5 -553t-592.5 -197h-269zM379 61l158 -2h12q122 0 228 39q112 41 189.5 108.5t140 161t98.5 185.5t59 190q14 90 16 183v11q0 86 -30 167 q-32 86 -84 152.5t-147 106.5t-220 40l-131 -2z" />
<glyph unicode="E" horiz-adv-x="1323" d="M27 -4l8 39l158 22l282 1344l-151 18l12 43h1067l-80 -383h-68l13 64q7 34 7 63q0 88 -64 135q-82 62 -246 62h-11l-286 -2l-138 -637h91h12q253 0 291 168l8 41h63l-98 -475h-68l9 41q4 21 4 39q0 62 -48 92q-59 37 -174 37h-12h-90l-139 -646l356 -2h11q360 0 417 260 l15 64h65l-80 -383h-887z" />
<glyph unicode="F" horiz-adv-x="1185" d="M27 -4l8 39l158 22l282 1344l-151 18l12 43h1067l-80 -383h-68l13 64q7 34 7 63q0 88 -64 135q-82 62 -246 62h-11l-286 -2l-138 -637h138h12q247 0 285 168l8 41h67l-98 -475h-70l9 41q4 21 4 39q0 61 -47 92q-58 37 -171 37h-12h-137l-139 -646l153 -16l-10 -49l-246 4 z" />
<glyph unicode="G" horiz-adv-x="1558" d="M181 395q-16 68 -16 148q0 88 19 190q39 186 140.5 336t228.5 236t253 131t236 45q137 0 243 -33t149 -72l43 88h63l-80 -374h-53q-10 160 -101.5 252t-271.5 92q-213 0 -386 -193.5t-236 -505.5l-2 -4q-28 -127 -28 -234q0 -153 56 -269q96 -196 303 -195q90 0 164 15 t116 36.5t71.5 49.5t41 46.5t15.5 34.5l70 324l-150 39l10 45l250 -7l230 9l-9 -41l-141 -41l-78 -377q-90 -78 -263 -129t-339 -51q-115 0 -223.5 43t-199.5 134t-125 232z" />
<glyph unicode="H" horiz-adv-x="1609" d="M27 -4l8 39l158 22l282 1344l-151 18l12 43l242 -4l245 4l-10 -43l-145 -18l-140 -645h746l135 645l-145 18l12 43l240 -4l243 4l-10 -43l-145 -18l-285 -1340l143 -26l-8 -39l-242 4l-245 -4l8 39l153 22l132 629h-746l-135 -625l143 -26l-8 -39l-238 4z" />
<glyph unicode="I" horiz-adv-x="669" d="M27 -4l8 39l158 22l282 1344l-151 18l12 43l242 -6l245 6l-10 -43l-145 -18l-289 -1340l143 -26l-8 -39l-238 4z" />
<glyph unicode="J" horiz-adv-x="899" d="M-41 106q4 33 32.5 55.5t67.5 22.5q53 0 105.5 -63.5t122.5 -63.5q86 0 155.5 86t106.5 273l213 985l-148 18l13 43l241 -6l242 6l-10 -43l-152 -22l-174 -834q-57 -260 -219 -417.5t-399 -157.5q-88 0 -148 37q-51 31 -50 68q-1 6 1 13z" />
<glyph unicode="K" horiz-adv-x="1468" d="M27 -4l8 39l158 22l282 1344l-151 18l12 43l242 -6l245 6l-10 -43l-145 -18l-158 -727l713 688l4 33l-133 8l16 59l240 -4l211 4l-13 -57l-162 -19l-602 -548l473 -764l111 -25l-12 -43l-217 -2l-275 -2l10 41l148 25l4 22l-389 615l-150 -136l-108 -508l143 -26l-8 -39 l-238 4z" />
<glyph unicode="L" horiz-adv-x="1271" d="M27 -4l8 39l158 22l282 1344l-151 18l12 43l242 -6l245 6l-10 -43l-145 -18l-289 -1340h334h10q167 0 277 66q114 68 143 213l14 63h68l-86 -403h-863z" />
<glyph unicode="M" horiz-adv-x="1933" d="M27 -4l6 39l168 22l256 1219q4 22 4 40q0 44 -25 64q-35 29 -112 39l12 43h291l356 -1216l807 1216h295l-10 -43l-146 -18l-284 -1340l141 -26l-8 -39l-238 4l-248 -4l8 39l152 22l236 1119l-773 -1176h-53l-340 1147l-233 -1086l164 -26l-9 -39l-204 4z" />
<glyph unicode="N" horiz-adv-x="1550" d="M29 -4l6 39l168 22l256 1219q10 33 2 57.5t-15.5 38.5t-31 24.5t-42 14.5t-48.5 8l12 43l276 -6l643 -1206l244 1147l-176 26l8 39l211 -4l219 4l-8 -39l-162 -22l-293 -1401h-118l-645 1188l-244 -1127l164 -26l-9 -39l-204 4z" />
<glyph unicode="O" horiz-adv-x="1574" d="M184 731q70 326 303.5 539t548.5 213q299 0 450 -215q105 -150 105 -352q0 -88 -20 -185q-70 -326 -304.5 -537.5t-547.5 -211.5q-301 0 -453 214q-104 147 -104 343q0 91 22 192zM412 731q-33 -154 -33 -278q0 -133 38 -231q73 -189 312 -189q227 0 387 193.5t223 504.5 q32 167 33 303q0 28 -2 56q-8 156 -95 249t-249 93q-231 0 -388.5 -193t-225.5 -508z" />
<glyph unicode="P" horiz-adv-x="1312" d="M27 -4l8 39l158 22l131 625l-2 2l153 717l-151 18l12 43h582q287 0 423 -114q107 -89 107 -219q0 -37 -8 -76q-43 -201 -246 -316.5t-457 -115.5h-239l-119 -560l143 -26l-8 -39l-238 4zM516 688l242 -2h14q106 0 191 28q90 30 144 85t85 116.5t45 131.5q11 37 11 73 q0 27 -6 54q-13 63 -47 112t-115 80t-195 31l-219 -2z" />
<glyph unicode="Q" horiz-adv-x="1597" d="M184 731q70 326 303.5 539t548.5 213q299 0 450 -215q105 -150 105 -352q0 -88 -20 -185q-68 -305 -279 -512t-497 -233l-217 -84q102 -23 288.5 -111t298.5 -88q125 0 185 31q2 0 14 30.5t41 30.5t37 -18.5t-10 -30.5q-57 -59 -151.5 -110.5t-188.5 -51.5 q-127 0 -237 37t-225.5 97.5t-174.5 82.5q-16 6 -35 6q-47 0 -107 -38q-36 34 -36 56q0 30 67 40l320 119q-276 20 -411 231q-90 142 -90 326q-1 90 21 190zM412 731q-33 -154 -33 -278q0 -133 38 -231q73 -189 312 -189q227 0 387 193.5t223 504.5q32 167 33 303 q0 28 -2 56q-8 156 -95 249t-249 93q-231 0 -388.5 -193t-225.5 -508z" />
<glyph unicode="R" horiz-adv-x="1480" d="M27 -4l8 39l158 22l282 1344l-151 18l12 43h534q256 0 391 -104q107 -83 106 -201q0 -31 -7 -63q-59 -272 -449 -346q0 -16 4 -17q133 -4 209 -97q67 -82 67 -202q0 -16 -1 -33l-8 -75q-3 -32 -3 -60q0 -83 23 -123q31 -53 101 -53q49 0 94 39l16 -25 q-119 -115 -256 -114q-102 0 -139 84q-32 72 -32 204q0 22 1 46l2 79q1 17 1 34q0 57 -11 107q-14 65 -56 111.5t-106 46.5h-143h-8h-150l-137 -639l143 -26l-8 -39l-238 4zM530 768h156h18q208 0 315 90q112 94 138 229q7 35 7 68q0 89 -53 157q-71 91 -261 91h-8h-174z " />
<glyph unicode="S" horiz-adv-x="1150" d="M51 2l92 424l68 2q-5 -42 -5 -80q0 -133 67 -213q87 -102 278 -102q127 0 221 69.5t123 184.5q7 28 7 54q0 33 -11 63q-20 54 -73.5 98.5t-98.5 72t-115 62.5l-24 12q-211 121 -289 223q-55 72 -55 158q0 36 10 74q43 172 206.5 274.5t331.5 102.5q106 0 193.5 -42 t122.5 -83l47 108h70l-87 -393h-65q4 34 4 66q0 124 -64 200q-81 96 -225 97q-125 0 -228 -73t-132 -187q-6 -22 -6 -44q0 -48 28 -92q41 -63 81 -90.5t145 -85.5q39 -23 59 -35q209 -131 270 -190q93 -94 93 -216q0 -42 -11 -87q-41 -162 -197.5 -258t-351.5 -96 q-125 0 -224 55t-140 108l-49 -141h-66z" />
<glyph unicode="T" horiz-adv-x="1277" d="M219 1122l74 340h1225l-72 -340h-62l13 62q6 30 6 55q0 73 -52 112q-68 50 -204 50h-10h-136l-284 -1344l145 -18l-12 -43l-240 6l-241 -6l10 43l145 18l283 1344h-154h-11q-293 0 -343 -217l-12 -62h-68z" />
<glyph unicode="U" horiz-adv-x="1542" d="M217 444l201 957l-152 18l13 43l241 -6l246 6l-10 -43l-146 -18l-202 -952q-11 -49 -11 -92q0 -113 75 -180q103 -93 290 -93q401 0 479 385l199 932l-140 18l11 43l184 -6l193 6l-9 -43l-153 -18l-197 -936q-49 -229 -225 -349t-424 -120q-141 0 -256 47t-176 153 q-41 70 -41 157q0 43 10 91z" />
<glyph unicode="V" horiz-adv-x="1409" d="M272 1421l13 39l262 -4l239 4l-12 -39l-164 -22l99 -1172l718 1172l-145 22l12 39l187 -4l190 4l-12 -39l-152 -26l-856 -1395h-96l-147 1395z" />
<glyph unicode="W" horiz-adv-x="1943" d="M272 1421l13 43l235 -4l258 2l-12 -51l-154 -22l-14 -19l90 -1057l545 1149h106l220 -1149l380 1061l5 17l-172 26l10 43l207 -4l217 4l-13 -47l-147 -29l-524 -1384h-92l-230 1192l-582 -1192h-92l-135 1386z" />
<glyph unicode="X" horiz-adv-x="1460" d="M-23 -6l9 39l135 26l588 666l-256 676l-127 26l10 39l225 -4l279 4l-11 -39l-141 -22l174 -506l443 506l-138 22l11 39l176 -4l205 4l-11 -39l-133 -26l-524 -582l12 -35l285 -725l125 -26l-8 -39l-252 4l-267 -4l9 39l149 22l-207 590l-504 -590l136 -22l-9 -39l-184 4z " />
<glyph unicode="Y" horiz-adv-x="1355" d="M276 1427l9 39l227 -4l254 4l-8 -39l-152 -22l234 -711l512 684l4 25l-142 22l9 41l219 -4l176 4l-8 -41l-131 -26l-615 -801l-114 -537l141 -26l-8 -39l-238 4l-248 -4l9 39l153 22l117 553l-279 791z" />
<glyph unicode="Z" horiz-adv-x="1267" d="M53 -2l15 80l1005 1319h-334q-166 0 -235 -27q-117 -47 -166 -186l-23 -68l-65 4l96 340h973l-12 -51l-1012 -1341l457 2q147 0 245.5 73.5t116.5 159.5l14 70l76 -2l-90 -373h-1061z" />
<glyph unicode="[" horiz-adv-x="692" d="M119 -309l368 1894h324l-8 -43l-176 -18l-346 -1768l170 -26l-9 -39h-323z" />
<glyph unicode="\" horiz-adv-x="933" d="M272 1497h86l359 -1718h-90z" />
<glyph unicode="]" horiz-adv-x="692" d="M-57 -309l8 43l182 18l342 1768l-172 26l6 39h328l-371 -1894h-323z" />
<glyph unicode="^" horiz-adv-x="655" d="M139 885l334 571h94l107 -571h-99l-83 471l-259 -471h-94z" />
<glyph unicode="_" horiz-adv-x="974" d="M-68 -176l17 88h854l-19 -88h-852z" />
<glyph unicode="`" horiz-adv-x="563" d="M334 1419q10 35 39.5 55.5t60.5 12.5q35 -8 43 -39l105 -256l-50 -35l-186 197q-24 30 -12 65z" />
<glyph unicode="a" horiz-adv-x="1161" d="M113 111q-17 51 -18 113q0 83 32 186q47 164 129 292.5t172 199.5t172 106.5t145 35.5q119 0 164 -92l47 72h138l-215 -741q-30 -107 -30 -151q0 -50 40 -50q94 0 192 190l41 -18q-53 -121 -154 -200q-86 -67 -170 -66q-15 0 -30 2q-88 8 -88 126q0 65 27 165l34 120 q-213 -412 -460 -411q-127 0 -168 121zM311 438q-28 -104 -28 -174q0 -141 116 -141q66 0 133.5 56.5t123 147.5t85 147t54.5 112l41 143q19 67 19 115q0 130 -140 131q-106 0 -216 -132.5t-188 -404.5z" />
<glyph unicode="b" horiz-adv-x="1105" d="M143 211q-5 21 -4 45q0 51 21 115l305 1071l-121 20l23 62l305 24l-221 -776q84 125 193.5 198.5t203.5 73.5q156 0 208 -147q23 -65 23 -142q0 -96 -37 -210q-47 -205 -220 -375t-394 -170q-35 0 -74 8t-89 31.5t-79 64.5t-43 107zM324 144q31 -85 125 -85 q135 0 246.5 150.5t164.5 335.5q43 150 43 244q0 156 -119 155q-90 0 -202.5 -96t-180.5 -244l-69 -250q-22 -70 -22 -127q0 -46 14 -83z" />
<glyph unicode="c" horiz-adv-x="921" d="M129 479q53 225 194.5 395t317.5 170q207 0 256 -135q12 -26 12 -53q0 -37 -20 -78q-35 -72 -113 -71q-39 0 -62 31q-16 22 -17 48q0 11 3 23q10 51 70 152q-33 25 -104 24q-125 0 -214.5 -135t-134.5 -363q-11 -60 -10 -112q0 -97 36 -169q56 -112 189 -112 q203 0 334 234l37 -15q-76 -147 -202 -240t-250 -93q-184 0 -275 157q-61 107 -61 226q0 56 14 116z" />
<glyph unicode="d" horiz-adv-x="1200" d="M114 232q0 9 -1 19q0 102 30 222q29 102 82.5 200.5t125 183.5t168.5 136t200 51q119 0 192 -59l107 457l-125 20l25 62l301 24l-299 -1267q-16 -61 -23.5 -97.5t-7.5 -60t10 -32.5t31 -9q90 0 192 190l39 -18q-51 -121 -154 -200q-88 -67 -172 -66q-15 0 -30 2 q-68 6 -81 92q-4 23 -4 47q0 68 28 152l8 41q-84 -154 -198 -248t-210 -94q-109 0 -170 71t-64 181zM328 473q-40 -136 -41 -223q0 -157 131 -158q86 0 200.5 117t180.5 297l63 268l-2 -2q10 35 10 66q0 47 -22 85q-37 62 -150 62q-231 0 -370 -512z" />
<glyph unicode="e" horiz-adv-x="940" d="M129 306q0 87 25 177q61 221 216.5 391t356.5 170q109 0 170 -58q43 -41 43 -104q0 -27 -8 -59q-20 -82 -94 -146.5t-172.5 -101t-180.5 -57t-147 -26.5q-2 -4 -2 -9q-22 -94 -22 -176q0 -92 55 -154q53 -60 151 -61q86 0 179.5 55.5t162.5 167.5l37 -16 q-92 -143 -227 -231t-262 -88q-96 0 -162 46t-92.5 119.5t-26.5 160.5zM350 537q57 12 97 21t103.5 33.5t105.5 53.5t81 79t56 114q8 32 8 56q0 85 -99 85q-213 0 -352 -442z" />
<glyph unicode="f" horiz-adv-x="608" d="M-309 -403q8 33 35.5 55t66.5 22q35 0 65.5 -53t63.5 -53q98 0 191 420l194 954h-135l16 64l136 18l8 37q45 217 169 348t269 131q86 0 151 -35q63 -34 62 -94q0 -43 -33 -74q-31 -29 -73 -30h-5q-50 0 -67 49q-10 29 -11 64q0 27 7 59q-8 12 -49 12q-70 0 -131.5 -79 t-96.5 -249l-30 -139h239l-22 -82h-234l-172 -807q-59 -291 -190 -464t-312 -173q-53 0 -88 31q-27 24 -27 51q1 9 3 17z" />
<glyph unicode="g" horiz-adv-x="987" d="M-82 -283q35 193 387 277q-116 53 -116 137q0 14 4 29q27 125 149 207q-111 35 -163 125q-36 63 -36 137q0 32 7 67q27 147 152.5 247.5t299.5 100.5q66 0 131 -20l377 20l-23 -92h-200l-6 -32q51 -72 50 -162q0 -30 -5 -62q-29 -145 -156 -245.5t-303 -100.5 q-41 0 -59 2q-76 -63 -89 -127q-2 -8 -1 -16q0 -72 155 -113l150 -57q150 -55 211 -114q47 -45 47 -112q0 -20 -4 -42q-20 -109 -107.5 -179.5t-193 -97t-228.5 -26.5q-117 0 -218 26.5t-165 85.5q-50 47 -50 106q0 15 3 31zM76 -266q-3 -16 -3 -30q0 -72 67 -121 q78 -56 213 -56h9q324 4 365 199q2 14 2 27q0 46 -29 72q-37 34 -137 81l-127 47q-45 8 -90 24q-150 -61 -202 -112t-68 -131zM328 696q-13 -59 -13 -108q0 -60 19 -105q35 -82 141 -82q100 0 171 84t95 211q12 59 12 108q0 62 -19 107q-34 82 -142 82q-100 0 -170.5 -84 t-93.5 -213z" />
<glyph unicode="h" horiz-adv-x="1243" d="M109 0l356 1442l-121 20l23 62l305 24l-223 -886q96 174 215.5 278t220.5 104q129 0 189 -80q34 -45 34 -118q0 -56 -21 -127l-126 -438q-31 -110 -31 -154q0 -47 41 -47q94 0 192 190l41 -18q-53 -121 -155 -200q-87 -67 -172 -66q-15 0 -31 2q-85 7 -85 123 q0 67 27 170l127 438q18 61 19 106q0 35 -11 61q-26 58 -116 58q-96 0 -219 -148.5t-201 -377.5l-104 -418h-174z" />
<glyph unicode="i" horiz-adv-x="641" d="M167 82q-4 24 -4 50q0 68 25 149l166 647l-116 20l20 62l299 24l-195 -753q-33 -110 -32 -153q0 -46 41 -46q90 0 192 190l41 -18q-55 -121 -157 -200q-86 -67 -169 -66q-15 0 -30 2q-68 6 -81 92zM444 1348q35 104 138 104q49 0 71 -28q13 -16 13 -39q0 -17 -7 -37 q-14 -51 -50 -80t-87 -29q-47 0 -69 30q-14 18 -14 43q-1 17 5 36z" />
<glyph unicode="j" horiz-adv-x="612" d="M-287 -369q20 78 99 78q25 0 42 -16.5t25 -37t29.5 -36.5t54.5 -16q117 0 199 358l211 967l-117 20l20 62l302 24l-201 -925q-55 -258 -197.5 -417t-335.5 -159q-63 0 -102 31q-31 24 -31 52q0 7 2 15zM471 1348q35 104 139 104q47 0 70 -28q13 -16 13 -39q0 -17 -7 -37 q-14 -51 -51 -80t-84 -29q-49 0 -72 29q-14 18 -14 43q0 17 6 37z" />
<glyph unicode="k" horiz-adv-x="1103" d="M113 0l348 1442l-121 20l22 62l306 24l-199 -811q94 139 211 224.5t229 85.5q98 0 147 -52q30 -32 30 -82q0 -30 -11 -65q-59 -203 -332 -316l93 -303q23 -76 40 -98t62 -22q29 0 74 40.5t88 129.5l39 -15q-51 -117 -141.5 -194.5t-157.5 -77.5q-74 0 -111 40t-61 158 l-60 295l-219 -69l-102 -416h-174zM399 459l277 104q86 35 153.5 106.5t83.5 131.5q9 31 9 56q0 34 -16 55q-28 38 -91 38q-109 0 -224.5 -128t-164.5 -259z" />
<glyph unicode="l" horiz-adv-x="630" d="M153 82q-4 23 -4 47q0 68 27 152l291 1161l-123 20l23 62l305 24l-322 -1267q-18 -59 -25.5 -97.5t-6.5 -61t11.5 -31.5t28.5 -9q98 0 191 190l41 -18q-51 -121 -153 -200q-86 -67 -169 -66q-15 0 -30 2q-72 6 -85 92z" />
<glyph unicode="m" horiz-adv-x="1792" d="M84 0l254 928l-117 20l21 62l301 24l-90 -325q76 152 193.5 243.5t213.5 91.5q125 0 181 -75q31 -42 32 -109q0 -53 -20 -121l-9 -24q90 152 200 240.5t206 88.5q121 0 178 -80q31 -44 32 -114q0 -57 -22 -131l-129 -438q-16 -61 -23 -97.5t-6 -61t11 -32.5t31 -8 q92 0 188 190l41 -18q-53 -121 -154 -200q-85 -67 -169 -66l-31 2q-85 7 -85 123q0 66 27 168l125 438q17 65 18 112q0 114 -104 113q-106 0 -234 -158.5t-194 -396.5v309h86l8 17l-63 -228l-135 -487h-174l211 739q16 57 16 98q0 107 -108 107q-98 0 -222.5 -151.5 t-197.5 -380.5l-113 -412h-174z" />
<glyph unicode="n" horiz-adv-x="1216" d="M96 0l236 928l-115 20l21 62l301 24l-93 -358q90 168 203 268t211 100q129 0 191 -80q35 -46 34 -119q0 -55 -20 -126l-129 -438q-16 -61 -24.5 -97.5t-7.5 -61t11.5 -32.5t32.5 -8q88 0 191 190l39 -18q-55 -121 -155 -200q-84 -67 -169 -66q-15 0 -31 2q-70 6 -82 92 q-3 22 -3 47q0 69 26 152l127 438q18 61 18 106q0 35 -11 61q-26 58 -116 58q-92 0 -205.5 -140t-189.5 -355l-115 -449h-176z" />
<glyph unicode="o" horiz-adv-x="1058" d="M117 471q53 244 210.5 408.5t350.5 164.5q186 0 283 -143q65 -96 64 -220q0 -61 -15 -128q-49 -244 -205 -407.5t-350 -163.5q-186 0 -284 142q-67 99 -67 227q0 57 13 120zM337 93q44 -60 128 -60q121 0 214 145.5t140 374.5q26 101 27 186q0 67 -17 124 q-37 130 -163 130q-119 0 -211.5 -145.5t-141.5 -376.5q-22 -118 -21 -212q0 -104 45 -166z" />
<glyph unicode="p" horiz-adv-x="1116" d="M-131 -514l6 41l145 20l306 1358l-127 29l16 55l303 45l-59 -282v-2q76 133 176 212.5t192 79.5q160 0 222 -147q32 -78 32 -180q0 -92 -26 -205q-49 -207 -194.5 -370t-344.5 -163q-133 0 -215 64l-108 -490l139 -24l-13 -41l-223 6zM346 248l2 2q-8 -35 -8 -66 q0 -48 19 -86q32 -61 135 -61q143 0 232 123t144 350q33 143 34 238q0 190 -134 190q-96 0 -200.5 -111.5t-157.5 -285.5z" />
<glyph unicode="q" horiz-adv-x="1144" d="M156 137q-29 72 -30 159q0 89 32 193q45 203 215 374t383 171q121 0 221 -100l133 106l45 -8q-61 -150 -102 -291l-275 -1196l135 -24l-12 -41l-219 6l-229 -6l8 41l145 20l189 797q-86 -158 -202 -253t-218 -95q-160 0 -219 147zM312 205q24 -115 128 -115q98 0 222 134 t184 333l49 209l-2 -4q8 39 8 70q0 143 -166 143q-127 0 -234.5 -150.5t-160.5 -335.5q-35 -116 -35 -206q0 -42 7 -78z" />
<glyph unicode="r" horiz-adv-x="751" d="M121 0l219 928l-117 20l21 62l268 24l-80 -334q190 340 359 340q57 0 89 -32q22 -23 21 -55q0 -15 -4 -31q-10 -37 -40 -61.5t-75 -24.5q-31 0 -56.5 12t-31.5 20.5t-32 38.5q-63 -27 -131 -119t-109 -198l-131 -590h-170z" />
<glyph unicode="s" horiz-adv-x="878" d="M106 125q-5 25 -5 47q0 39 17 68q26 45 87 45q49 0 53 -69v-14q0 -61 -31 -118q53 -53 158 -53q74 0 133.5 46t77.5 118q5 22 5 42q0 36 -15 68q-25 51 -55.5 77t-88.5 62q-10 6 -16 11q-129 82 -175 157q-31 51 -31 109q0 28 7 57q31 121 143.5 191.5t229.5 70.5 q72 0 146.5 -33.5t87.5 -86.5q7 -24 6 -46q0 -37 -20 -67q-32 -47 -89 -47q-52 0 -52 80q0 73 34 121q-39 33 -121 32q-84 0 -139.5 -47t-73.5 -125q-4 -17 -4 -33q0 -31 15 -59q24 -43 52.5 -64.5t94.5 -64.5q131 -82 185 -163q36 -54 36 -120q0 -32 -8 -67 q-33 -135 -134.5 -198.5t-238.5 -63.5q-94 0 -173.5 35.5t-97.5 101.5z" />
<glyph unicode="t" horiz-adv-x="671" d="M154 266l168 676h-136l15 55l141 27l51 201l185 35l-60 -236h266l-22 -82h-264l-166 -653q-22 -75 -22 -123q0 -74 52 -80q8 -1 16 -1q52 0 107 46q63 53 109 137l33 -26q-55 -109 -151.5 -177.5t-190.5 -70.5h-5q-71 0 -117 64q-27 37 -27 97q1 48 18 111z" />
<glyph unicode="u" horiz-adv-x="1220" d="M174 279l164 659l-117 25l19 61l299 20l-191 -765q-14 -56 -14 -96t14 -63q29 -46 121 -46q90 0 201.5 139t179.5 354l90 361l-100 20l20 62l279 24l-189 -753q-26 -104 -26 -147q0 -7 1 -13q5 -39 44 -39q94 0 182 190l41 -20q-45 -119 -144 -198q-84 -67 -168 -66 q-15 0 -30 2q-70 6 -86 92q-6 30 -6 63q0 62 20 136l8 34q-86 -160 -189 -251t-196 -91q-242 0 -242 196q0 49 15 110z" />
<glyph unicode="v" horiz-adv-x="993" d="M178 954l19 62l254 39q49 -256 71.5 -444.5t26.5 -436.5q240 309 366 629q-2 33 -34 81q-26 39 -27 67q0 7 2 14q27 115 135 114q59 0 68 -81q1 -14 1 -28q0 -66 -32 -128q-121 -254 -242.5 -435.5t-322.5 -406.5h-74q-18 446 -102 938z" />
<glyph unicode="w" horiz-adv-x="1445" d="M145 954l19 62l264 39q41 -311 49 -813l418 782h78q55 -461 65 -848q225 352 320 627q-4 25 -42 76q-31 42 -31 75q0 7 1 15q27 111 129 110q59 0 68 -81q1 -15 1 -29q0 -65 -30 -127q-117 -264 -217 -442.5t-262 -393.5l-2 -6h-76q0 106 -9 227t-24.5 286t-23.5 271 l-441 -784h-65q-12 559 -78 938z" />
<glyph unicode="x" horiz-adv-x="1017" d="M-16 72l-2 16q0 31 19 55q24 31 73 45q23 2 44 -3t33.5 -11t36 -22.5t35.5 -22.5q63 43 137 134t123 186l-41 167q-53 240 -127 332l-100 10l21 68l210 27q33 -35 61 -96.5t43 -111.5t42 -149l10 -43q70 131 126 208t144 145q56 47 123 46h14q75 -5 83 -73q1 -9 1 -17 q0 -72 -96 -96q-31 -4 -51 0t-46 15.5t-46 17.5q-125 -82 -238 -311l62 -271q41 -143 61.5 -180t61.5 -37q47 0 108 70l31 -18q-133 -172 -258 -172q-57 0 -82 51t-63 207l-37 143q-76 -131 -144.5 -213t-165.5 -148q-41 -29 -88 -32q-7 -1 -14 -1q-38 0 -66 19 q-34 23 -38 66z" />
<glyph unicode="y" horiz-adv-x="923" d="M-115 -393q-1 7 -1 13q0 36 29 67q34 37 85 37q16 0 28.5 -7.5t22.5 -25t14.5 -27.5t13.5 -37.5t11 -36.5q53 0 110.5 68t77.5 158l60 196q-10 408 -80 926l-111 16l19 62l256 39q76 -463 76 -873q219 303 344 621q0 33 -33 81q-26 39 -26 67q0 7 1 14q27 115 133 114 q59 0 68 -81q1 -14 1 -28q0 -66 -32 -128q-119 -254 -233.5 -433.5t-302.5 -400.5l-66 -194q-41 -145 -138 -231.5t-175 -86.5q-134 0 -152 111z" />
<glyph unicode="z" horiz-adv-x="919" d="M43 -16l4 84l694 815h-303q-119 0 -205 -138l-55 13q49 78 74 166l24 100h660l2 -27l-741 -868q34 5 66 5q60 0 116 -17q86 -27 150.5 -60.5t97.5 -33.5q94 0 102 28q-26 35 -26 78q0 15 4 31q23 88 112 88q33 0 44 -28q6 -14 6 -33q0 -17 -5 -37q-18 -68 -128.5 -147 t-229.5 -79h-9q-83 0 -186 35q-89 30 -172 30q-19 0 -37 -1z" />
<glyph unicode="{" horiz-adv-x="671" d="M80 573l6 33q188 45 219 432q23 268 148 408.5t348 179.5l8 -31q-170 -72 -246 -193.5t-94 -363.5q-6 -121 -85 -266t-202 -182q74 -25 108 -111t30.5 -176t-27.5 -162q-74 -244 -46.5 -364.5t167.5 -192.5l-17 -30q-424 78 -268 587q121 385 -49 432z" />
<glyph unicode="|" horiz-adv-x="491" d="M41 -344l360 1841h88l-360 -1841h-88z" />
<glyph unicode="}" horiz-adv-x="671" d="M-94 -416q170 72 246.5 195t93.5 362q6 121 84 266.5t200 182.5q-74 25 -107.5 110.5t-29.5 176t29 161.5q74 244 47 365t-166 192l12 31q137 -25 213 -91.5t95.5 -190t-37.5 -306.5q-125 -385 49 -432l-6 -33q-193 -47 -219 -432q-25 -268 -150 -408.5t-348 -178.5z" />
<glyph unicode="~" horiz-adv-x="1337" d="M108.5 424q-8.5 41 12.5 84q55 160 163.5 261t237.5 101q96 0 152.5 -50t101.5 -152q27 -49 43.5 -73t60.5 -50.5t105 -26.5q59 0 120.5 42t96.5 112q-4 8 -13 24.5t-14.5 26.5t-9.5 25.5t-2 29.5q4 37 25.5 65.5t50.5 28.5q33 0 43 -40.5t-8 -83.5q-53 -156 -167 -259.5 t-233 -103.5q-100 0 -162.5 50t-115.5 153q-4 6 -18.5 31.5t-20.5 36t-23.5 30t-33 27.5t-40 16t-52.5 8q-55 0 -116 -42t-99 -111q4 -10 13 -25.5t14 -26t9 -25.5t4 -30q-25 -94 -79 -94q-37 0 -45.5 41z" />
<glyph unicode="&#xa1;" horiz-adv-x="634" d="M113 -354q-14 -47 7 -77t62 -28q45 2 81 32t42 73l129 977q6 27 -24 28q-35 2 -43 -28zM348 930q8 51 47 82.5t90 31.5q49 0 75 -32.5t17.5 -81.5t-47 -80t-90.5 -31q-49 0 -74.5 31t-17.5 80z" />
<glyph unicode="&#xa2;" horiz-adv-x="978" d="M129 479q53 225 194.5 395t317.5 170h12l70 228l65 -2l-69 -232q141 -25 178 -129q27 -59 -8 -130.5t-113 -71.5q-39 0 -62.5 31.5t-13.5 70.5q10 51 70 152q-23 16 -68 22l-262 -872q43 -16 92 -17q203 0 334 234l37 -15q-76 -147 -202 -240t-250 -93q-20 0 -50 4 l-61 -205h-76l68 221q-127 49 -182.5 189t-20.5 290zM317 487q-43 -227 62 -333l254 829q-113 -18 -194 -150.5t-122 -345.5z" />
<glyph unicode="&#xa3;" horiz-adv-x="1146" d="M8 10l35 31h-2q100 74 151.5 207t96.5 420h-135l16 82h131l6 41l17 122q39 264 159.5 413t321.5 149q176 0 256 -101l37 88h59l-63 -334h-47q-10 303 -259 304q-123 0 -181 -106.5t-95 -364.5l-18 -142l-13 -69h428l-16 -82h-428q-84 -373 -313 -572q94 31 163 35 q100 4 208 -23.5t191 -57.5t115 -30q29 0 61 17.5t36 30.5q-35 49 -25 108q18 88 100 88q61 0 41 -98q-10 -66 -108 -145.5t-205 -79.5q-84 -2 -238.5 30.5t-226.5 34.5q-43 0 -69 -2l-168 -20z" />
<glyph unicode="&#xa5;" horiz-adv-x="1320" d="M211 362l14 76h379l33 158h-379l14 76h346l-256 729l-120 26l8 39l227 -4l254 4l-8 -39l-152 -22l234 -711l512 684l4 25l-141 22l8 41l219 -4l176 4l-8 -41l-131 -26l-557 -727h260l-14 -76h-304l-34 -158h305l-15 -76h-307l-63 -301l141 -26l-8 -39l-238 4l-248 -4 l9 39l153 22l64 305h-377z" />
<glyph unicode="&#xa6;" horiz-adv-x="491" d="M41 -344l154 784h88l-154 -784h-88zM260 772l141 725h88l-141 -725h-88z" />
<glyph unicode="&#xa7;" horiz-adv-x="1085" d="M-41 -481l74 383l47 2q10 -182 71.5 -266t202.5 -84q106 0 180 59t95 170q10 53 -2.5 99t-51 84t-68.5 59.5t-83 54.5q-18 10 -27 16q-176 111 -243.5 206t-40.5 233q18 104 96 184t180 125q-129 125 -98 286q29 147 171 245t273 98q96 0 166 -35t96 -74l41 94h52 l-72 -364h-43q0 147 -68.5 238t-177.5 91q-125 0 -204 -68.5t-103 -187.5q-8 -43 2 -78.5t43 -67.5t60.5 -52.5t84 -55t82.5 -53.5q162 -98 236 -186t53 -201q-27 -129 -112 -220t-199 -128q137 -127 108 -272q-33 -166 -158.5 -260.5t-271.5 -94.5q-184 0 -305 133 l-39 -112h-47zM244 575q-10 -49 7 -94t62 -88t83 -70.5t102 -68.5q18 -12 28 -18q47 -31 99 -72q80 25 136 88t73 149q10 55 -7.5 102.5t-65.5 88.5t-82 62.5t-95 56.5q-12 6 -19 10q-82 45 -143 92q-143 -60 -178 -238z" />
<glyph unicode="&#xa8;" horiz-adv-x="927" d="M225 1380q8 41 40 67t75 26q41 0 63.5 -26t14.5 -67q-8 -43 -40 -69.5t-73 -26.5t-64.5 26.5t-15.5 69.5zM612 1380q8 41 40 67t75 26q41 0 63.5 -26t14.5 -67q-8 -43 -40 -69.5t-73 -26.5t-64.5 26.5t-15.5 69.5z" />
<glyph unicode="&#xaa;" horiz-adv-x="835" d="M244 901q18 90 95 143.5t253 83.5l113 21l18 84q41 190 -90 190q-63 0 -121 -47q20 -70 10 -110q-6 -33 -34.5 -53.5t-63.5 -20.5q-51 0 -57.5 52t30.5 91q57 66 133 105t152 39q225 0 174 -254l-63 -328q-16 -86 22 -86q47 0 74 35l18 -15q-29 -41 -80 -68.5t-102 -25.5 q-96 12 -76 125l4 19q-39 -66 -102.5 -105t-132.5 -39q-92 0 -139 47t-35 117zM387 926q-12 -55 12.5 -83t71.5 -28q125 0 195 133l28 148l-104 -21q-183 -36 -203 -149z" />
<glyph unicode="&#xab;" horiz-adv-x="946" d="M82 381l6 33l399 387l35 -25l-270 -381l119 -383l-41 -18zM453 381l6 33l399 387l35 -25l-270 -381l118 -383l-41 -18z" />
<glyph unicode="&#xad;" horiz-adv-x="1036" d="M221 565l37 150h692l-37 -150h-692z" />
<glyph unicode="&#xaf;" horiz-adv-x="872" d="M276 1374l15 88h672l-17 -88h-670z" />
<glyph unicode="&#xb0;" horiz-adv-x="583" d="M221 1253q20 94 96 159t168 65q88 0 141.5 -65.5t35.5 -158.5q-16 -94 -93 -158.5t-172 -64.5q-88 0 -140 65.5t-36 157.5zM289 1253q-12 -66 22.5 -110.5t98.5 -44.5q61 0 117.5 46t68.5 109q12 66 -24.5 111t-100.5 45q-61 0 -116.5 -46.5t-65.5 -109.5z" />
<glyph unicode="&#xb1;" horiz-adv-x="974" d="M76 559l18 109h377l70 356h106l-69 -356h370l-20 -109h-373l-70 -358h-106l70 358h-373zM-52 2l17 88h854l-19 -88h-852z" />
<glyph unicode="&#xb2;" horiz-adv-x="729" d="M113 592l12 65q287 221 398.5 355.5t135.5 259.5q12 68 -21.5 109.5t-117.5 41.5t-178 -69q2 -8 12.5 -31t12.5 -30t6 -31.5t-2 -34.5q-6 -31 -35 -54.5t-66 -23.5q-47 0 -53 56.5t29 103.5q147 176 334 176q119 0 181 -58.5t40 -171.5q-16 -96 -165 -243.5t-364 -290.5 h414l25 41l30 -2l-65 -168h-563z" />
<glyph unicode="&#xb3;" horiz-adv-x="808" d="M125 723q-20 57 13.5 104t88.5 47q33 0 47.5 -25.5t6.5 -64.5q-10 -39 -48 -71q8 -31 63.5 -52.5t106.5 -21.5q207 0 246 205q18 96 -54.5 137t-234.5 20l-14 41l-6 11q111 14 182.5 36.5t106.5 54.5t49 59.5t22 70.5q14 61 -21.5 108.5t-117.5 47.5q-88 0 -160 -52 q20 -55 9 -104q-14 -76 -99 -76q-51 0 -57 46t29 91q53 74 149 111t180 37q106 0 179 -54.5t53 -158.5q-33 -164 -295 -217l2 -15q129 0 196.5 -60t51.5 -138q-25 -125 -140.5 -187.5t-265.5 -62.5q-94 0 -172 41t-96 92z" />
<glyph unicode="&#xb4;" horiz-adv-x="563" d="M287 1192l202 256q23 31 58 39t57.5 -12.5t18.5 -55.5q2 -29 -37 -65l-264 -197z" />
<glyph unicode="&#xb5;" horiz-adv-x="1239" d="M45 -422q-12 86 25 199l90 364q-6 57 14 138l164 659l-78 16l-22 4l-17 5l19 61l299 20v-2l24 2l-227 -897q16 -74 133 -73q90 0 201.5 139t179.5 354l90 361l-100 20l20 62l279 24l-189 -753q-31 -121 -25.5 -160t44.5 -39q94 0 182 190l41 -20q-45 -119 -144.5 -198 t-197.5 -64q-70 6 -86 92t14 199l8 34q-86 -160 -189 -251t-196 -91q-57 0 -106 13l-51 -209q-18 -59 -26.5 -97t-6.5 -60.5t11 -32t28 -9.5q100 0 192 191l39 -19q-51 -121 -151.5 -199.5t-200.5 -64.5q-72 6 -84 92z" />
<glyph unicode="&#x3bc;" horiz-adv-x="1239" d="M45 -422q-12 86 25 199l90 364q-6 57 14 138l164 659l-78 16l-22 4l-17 5l19 61l299 20v-2l24 2l-227 -897q16 -74 133 -73q90 0 201.5 139t179.5 354l90 361l-100 20l20 62l279 24l-189 -753q-31 -121 -25.5 -160t44.5 -39q94 0 182 190l41 -20q-45 -119 -144.5 -198 t-197.5 -64q-70 6 -86 92t14 199l8 34q-86 -160 -189 -251t-196 -91q-57 0 -106 13l-51 -209q-18 -59 -26.5 -97t-6.5 -60.5t11 -32t28 -9.5q100 0 192 191l39 -19q-51 -121 -151.5 -199.5t-200.5 -64.5q-72 6 -84 92z" />
<glyph unicode="&#xb6;" horiz-adv-x="1056" d="M213 1053q37 178 215 293.5t434 115.5h352l-6 -43l-143 -18l-264 -1344l137 -22l-8 -39l-137 4h-160l-227 -4l8 39l141 26l109 560q-233 10 -361.5 123.5t-89.5 308.5zM391 921.5q6 -63.5 30.5 -115.5t89 -85t165.5 -35l139 709q-182 -12 -285.5 -112.5t-128.5 -235.5 q-16 -62 -10 -125.5zM621 49l110 4l111 568h-111zM745 686h109l139 711h-110z" />
<glyph unicode="&#xb7;" horiz-adv-x="413" d="M61 623q8 49 47 79.5t91 30.5q49 0 74.5 -30.5t17.5 -79.5q-8 -51 -47 -83t-88.5 -32t-76 32t-18.5 83z" />
<glyph unicode="&#xb8;" horiz-adv-x="978" d="M211 -449l2 37q2 2 29.5 -1t72.5 4.5t89.5 18.5t80 39.5t44 69.5t-21.5 60.5t-81 19.5q-70 0 -141 -20l-15 18l121 254h51l-69 -157q53 18 125 18q78 0 126 -39t33 -106q-12 -70 -63 -117t-114.5 -65.5t-125 -28t-102.5 -7.5z" />
<glyph unicode="&#xb9;" horiz-adv-x="561" d="M129 575l10 46l109 14l135 682h-133l10 45q143 8 215 104h64l-162 -827l106 -18l-10 -46l-170 5z" />
<glyph unicode="&#xba;" horiz-adv-x="858" d="M297 1118q31 156 138.5 260.5t250.5 104.5q139 0 209 -105.5t39 -259.5q-31 -164 -138.5 -272.5t-254.5 -108.5q-139 0 -208 109.5t-36 271.5zM449 1118q-68 -334 100 -334q82 0 141.5 93.5t89.5 240.5q61 317 -102 318q-84 0 -143 -89.5t-86 -228.5z" />
<glyph unicode="&#xbb;" horiz-adv-x="946" d="M10 18l269 381l-121 383l45 19l246 -387l-7 -33l-397 -387zM381 18l268 381l-121 383l45 19l246 -387l-6 -33l-397 -387z" />
<glyph unicode="&#xbc;" horiz-adv-x="1638" d="M201 575l10 46l108 14l136 682h-133l10 45q143 8 215 104h63l-161 -827l106 -18l-10 -46l-170 5zM217 0l1178 1462h88l-1178 -1462h-88zM780 225l8 47h3l639 619l69 -2l-119 -604h129l-10 -60h-131l-33 -174l109 -18l-8 -33l-174 4l-172 -4l8 33l108 16l33 176h-459z M883 285h368l84 432z" />
<glyph unicode="&#xbd;" horiz-adv-x="1753" d="M201 575l10 46l108 14l136 682h-133l10 45q143 8 215 104h63l-161 -827l106 -18l-10 -46l-170 5zM209 0l1177 1462h89l-1178 -1462h-88zM936 -2l12 65q287 221 398.5 355.5t136.5 259.5q12 68 -22 109.5t-117.5 41.5t-178.5 -69q2 -8 12.5 -30.5t12.5 -30t6 -32t-2 -34.5 q-6 -31 -35 -54.5t-65 -23.5q-47 0 -53.5 56.5t28.5 103.5q147 176 334 176q119 0 181.5 -58.5t39.5 -170.5q-16 -96 -164.5 -244t-363.5 -291h413l25 41l31 -2l-66 -168h-563z" />
<glyph unicode="&#xbe;" horiz-adv-x="1890" d="M223 723q-20 57 13.5 104t89.5 47q33 0 47 -25.5t6 -64.5q-10 -39 -47 -71q8 -31 63.5 -52.5t106.5 -21.5q207 0 246 205q18 96 -54.5 137t-234.5 20l-15 41l-6 11q111 14 182.5 36.5t106.5 54.5t49.5 59.5t22.5 70.5q14 61 -22 108.5t-118 47.5q-88 0 -159 -52 q20 -55 8 -104q-14 -76 -98 -76q-51 0 -57.5 46t28.5 91q53 74 149.5 111t180.5 37q106 0 179 -54.5t52 -158.5q-33 -164 -295 -217l2 -15q129 0 196.5 -60t51.5 -138q-25 -125 -140.5 -187.5t-264.5 -62.5q-94 0 -172.5 41t-96.5 92zM459 0l1177 1462h88l-1177 -1462h-88z M1024 225l8 47h2l639 619l70 -2l-119 -604h129l-10 -60h-131l-33 -174l109 -18l-9 -33l-174 4l-172 -4l8 33l109 16l33 176h-459zM1126 285h369l84 432z" />
<glyph unicode="&#xbf;" horiz-adv-x="987" d="M45 -133q27 133 147.5 252t278.5 198l59 308q4 27 88 24q63 -4 60 -24l-51 -275q-172 -55 -269.5 -173t-124.5 -249q-31 -152 23.5 -235.5t179.5 -83.5q115 0 221 78q-37 92 -20 163q8 45 46 77t89 32q43 0 60.5 -31.5t6 -78t-41.5 -85.5q-86 -100 -210 -162.5 t-249 -62.5q-160 0 -243 82t-50 246zM555 932q8 49 48 82t89 33t75 -32t17 -83q-8 -49 -47 -80t-88 -31t-75.5 31t-18.5 80z" />
<glyph unicode="&#xc0;" d="M-72 -4l9 39l149 26l885 1395h100l92 -1395l142 -26l-9 -39l-237 4l-248 -4l8 39l154 22l-23 392h-532l-248 -392l141 -22l-8 -39l-176 4zM471 532h475l-39 689zM692 1851q10 35 39.5 55.5t60.5 12.5q35 -8 43 -39l105 -256l-50 -35l-186 197q-24 30 -12 65z" />
<glyph unicode="&#xc1;" d="M-72 -4l9 39l149 26l885 1395h100l92 -1395l142 -26l-9 -39l-237 4l-248 -4l8 39l154 22l-23 392h-532l-248 -392l141 -22l-8 -39l-176 4zM471 532h475l-39 689zM850 1632l203 256q23 31 57.5 39t57 -12.5t18.5 -54.5q2 -29 -37 -66l-264 -197z" />
<glyph unicode="&#xc2;" d="M-72 -4l9 39l149 26l885 1395h100l92 -1395l142 -26l-9 -39l-237 4l-248 -4l8 39l154 22l-23 392h-532l-248 -392l141 -22l-8 -39l-176 4zM471 532h475l-39 689zM623 1569l283 223h65l188 -223h-104l-131 160l-203 -160h-98z" />
<glyph unicode="&#xc3;" d="M-72 -4l9 39l149 26l885 1395h100l92 -1395l142 -26l-9 -39l-237 4l-248 -4l8 39l154 22l-23 392h-532l-248 -392l141 -22l-8 -39l-176 4zM471 532h475l-39 689zM600 1579q10 102 72.5 162.5t144.5 44.5q61 -10 125 -49t127 -51q49 -8 88 22.5t45 87.5l29 -10 q-10 -102 -72.5 -162.5t-144.5 -44.5q-61 12 -124 50t-124 50q-53 8 -92 -22.5t-45 -87.5z" />
<glyph unicode="&#xc4;" d="M-72 -4l9 39l149 26l885 1395h100l92 -1395l142 -26l-9 -39l-237 4l-248 -4l8 39l154 22l-23 392h-532l-248 -392l141 -22l-8 -39l-176 4zM471 532h475l-39 689zM512 1745q8 49 47 79.5t90 30.5q49 0 75 -30.5t17 -79.5q-8 -51 -47 -83t-88 -32t-75.5 32t-18.5 83z M897 1745q8 49 47 79.5t90 30.5q49 0 75 -30.5t17 -79.5q-8 -51 -47 -83t-88 -32t-75.5 32t-18.5 83z" />
<glyph unicode="&#xc5;" d="M-72 -4l9 39l149 26l885 1395h100l92 -1395l142 -26l-9 -39l-237 4l-248 -4l8 39l154 22l-23 392h-532l-248 -392l141 -22l-8 -39l-176 4zM471 532h475l-39 689zM746 1741q16 72 75.5 122t128.5 50q68 0 109 -51.5t27 -120.5q-12 -70 -72 -121t-131 -51q-68 0 -108.5 51 t-28.5 121zM813 1741q-8 -41 16.5 -73t65.5 -32q39 0 78 32t45 73q8 41 -16.5 72.5t-65.5 31.5q-39 0 -77 -31.5t-46 -72.5z" />
<glyph unicode="&#xc6;" horiz-adv-x="2037" d="M-76 -4l8 39l125 26l1160 1401h876l-70 -383h-63l10 64q27 135 -52 198.5t-239 61.5l-268 -2l-127 -637h88q244 -4 279 168l8 41h59l-92 -475h-59l8 41q14 92 -43 131t-172 37h-86l-127 -646l332 -2q344 -4 395 260l14 64h64l-76 -383h-829l-240 -4l8 39l143 22l82 430 h-538l-352 -430l135 -22l-9 -39l-167 4zM571 571h486l151 772z" />
<glyph unicode="&#xc7;" horiz-adv-x="1288" d="M174 395.5q-27 141.5 10 337.5q39 186 132.5 336t207 236t227 131t210.5 45q252 0 339 -146l54 129h63l-90 -415h-53q-2 180 -80 282.5t-242 102.5q-176 0 -326.5 -193.5t-213.5 -505.5l-2 -4q-63 -299 13.5 -488.5t250.5 -189.5q199 0 342 90t217 217l37 -22 q-82 -137 -220.5 -231.5t-301.5 -114.5l24 53h-51l-29 -57q-12 -2 -35 -2q-102 0 -198.5 43t-177 134t-107.5 232.5zM541 -455l2 37q2 2 29.5 -1t72.5 4t89 18.5t80 40t44 69.5t-20.5 60.5t-79.5 19.5q-68 0 -144 -20l-14 18l92 197q18 0 56 4l-46 -105q53 18 125 19 q78 0 126 -39t36 -107q-14 -70 -65.5 -116.5t-115 -65t-124.5 -28t-102 -7.5z" />
<glyph unicode="&#xc8;" horiz-adv-x="1323" d="M27 -4l8 39l158 22l282 1344l-151 18l12 43h1067l-80 -383h-68l13 64q7 34 7 63q0 88 -64 135q-82 62 -246 62h-11l-286 -2l-138 -637h91h12q253 0 291 168l8 41h63l-98 -475h-68l9 41q4 21 4 39q0 62 -48 92q-59 37 -174 37h-12h-90l-139 -646l356 -2h11q360 0 417 260 l15 64h65l-80 -383h-887zM645 1857q10 35 39.5 55.5t60.5 12.5q35 -8 43 -39l105 -256l-50 -35l-186 197q-24 30 -12 65z" />
<glyph unicode="&#xc9;" horiz-adv-x="1323" d="M27 -4l249 4h887l80 383h-65l-15 -64q-57 -264 -428 -260l-356 2l139 646h90q123 2 185.5 -37t44.5 -131l-9 -41h68l98 475h-63l-8 -41q-39 -172 -303 -168h-91l138 637l286 2q172 2 257 -61.5t57 -198.5l-13 -64h68l80 383h-1067l-12 -43l151 -18l-282 -1344l-158 -22z M803 1638l203 256q23 31 57.5 39.5t57 -12t18.5 -55.5q2 -29 -37 -66l-264 -196z" />
<glyph unicode="&#xca;" horiz-adv-x="1323" d="M27 -4l8 39l158 22l282 1344l-151 18l12 43h1067l-80 -383h-68l13 64q7 34 7 63q0 88 -64 135q-82 62 -246 62h-11l-286 -2l-138 -637h91h12q253 0 291 168l8 41h63l-98 -475h-68l9 41q4 21 4 39q0 62 -48 92q-59 37 -174 37h-12h-90l-139 -646l356 -2h11q360 0 417 260 l15 64h65l-80 -383h-887zM576 1575l283 223h65l188 -223h-104l-131 160l-203 -160h-98z" />
<glyph unicode="&#xcb;" horiz-adv-x="1323" d="M27 -4l249 4h887l80 383h-65l-15 -64q-57 -264 -428 -260l-356 2l139 646h90q123 2 185.5 -37t44.5 -131l-9 -41h68l98 475h-63l-8 -41q-39 -172 -303 -168h-91l138 637l286 2q172 2 257 -61.5t57 -198.5l-13 -64h68l80 383h-1067l-12 -43l151 -18l-282 -1344l-158 -22z M465 1751q8 49 47 80t90 31q49 0 74.5 -31t17.5 -80q-8 -51 -47 -83t-88 -32t-75.5 32t-18.5 83zM850 1751q8 49 47 80t90 31q49 0 74.5 -31t17.5 -80q-8 -51 -47 -83t-88 -32t-75.5 32t-18.5 83z" />
<glyph unicode="&#xcc;" horiz-adv-x="669" d="M27 -4l8 39l158 22l282 1344l-151 18l12 43l242 -6l245 6l-10 -43l-145 -18l-289 -1340l143 -26l-8 -39l-238 4zM334 1857q10 35 39.5 55.5t60.5 12.5q35 -8 43 -39l105 -256l-50 -35l-186 197q-24 30 -12 65z" />
<glyph unicode="&#xcd;" horiz-adv-x="669" d="M27 -4l8 39l158 22l282 1344l-151 18l12 43l242 -6l245 6l-10 -43l-145 -18l-289 -1340l143 -26l-8 -39l-238 4zM489 1638l203 256q23 31 57.5 39.5t57 -12t18.5 -55.5q2 -29 -37 -66l-264 -196z" />
<glyph unicode="&#xce;" horiz-adv-x="669" d="M27 -4l8 39l158 22l282 1344l-151 18l12 43l242 -6l245 6l-10 -43l-145 -18l-289 -1340l143 -26l-8 -39l-238 4zM262 1575l283 223h65l188 -223h-104l-131 160l-203 -160h-98z" />
<glyph unicode="&#xcf;" horiz-adv-x="669" d="M27 -4l8 39l158 22l282 1344l-151 18l12 43l242 -6l245 6l-10 -43l-145 -18l-289 -1340l143 -26l-8 -39l-238 4zM152 1751q8 49 47 80t90 31q49 0 74.5 -31t17.5 -80q-8 -51 -47 -83t-88 -32t-75.5 32t-18.5 83zM537 1751q8 49 47 80t90 31q49 0 74.5 -31t17.5 -80 q-8 -51 -47 -83t-88 -32t-75.5 32t-18.5 83z" />
<glyph unicode="&#xd0;" horiz-adv-x="1456" d="M-31 -4l8 39l158 22l135 648h-198l10 73h205l131 623l-152 18l13 43h514q334 0 505.5 -210t110.5 -502q-74 -356 -329 -553t-593 -197h-268zM322 61l157 -2q129 -2 240.5 39t189.5 108.5t140.5 161t98.5 185.5t58 190q14 90 16.5 182.5t-29.5 178.5t-84 152.5 t-147.5 106.5t-220.5 40l-131 -2l-135 -623h258l-10 -73h-264z" />
<glyph unicode="&#xd1;" horiz-adv-x="1550" d="M29 -4l6 39l168 22l256 1219q10 33 2 57.5t-15.5 38.5t-31 24.5t-42 14.5t-48.5 8l12 43l276 -6l643 -1206l244 1147l-176 26l8 39l211 -4l219 4l-8 -39l-162 -22l-293 -1401h-118l-645 1188l-244 -1127l164 -26l-9 -39l-204 4zM670 1585q10 102 72.5 163t144.5 44 q61 -10 124.5 -49t127.5 -51q49 -8 88 22.5t45 88.5l28 -11q-10 -102 -72.5 -162.5t-144.5 -44.5q-61 12 -123.5 50.5t-123.5 50.5q-53 8 -92.5 -22.5t-45.5 -88.5z" />
<glyph unicode="&#xd2;" horiz-adv-x="1574" d="M184 731q70 326 303.5 539t548.5 213q299 0 450 -215q105 -150 105 -352q0 -88 -20 -185q-70 -326 -304.5 -537.5t-547.5 -211.5q-301 0 -453 214q-104 147 -104 343q0 91 22 192zM412 731q-33 -154 -33 -278q0 -133 38 -231q73 -189 312 -189q227 0 387 193.5t223 504.5 q32 167 33 303q0 28 -2 56q-8 156 -95 249t-249 93q-231 0 -388.5 -193t-225.5 -508zM772 1878q10 35 39.5 55.5t60.5 12.5q35 -8 43 -39l105 -256l-50 -35l-186 197q-24 30 -12 65z" />
<glyph unicode="&#xd3;" horiz-adv-x="1574" d="M184 731q70 326 303.5 539t548.5 213q299 0 449.5 -215t85.5 -537q-70 -326 -304.5 -537.5t-547.5 -211.5q-301 0 -453 213.5t-82 535.5zM412 731q-68 -319 4.5 -508.5t312.5 -189.5q227 0 387 193.5t223 504.5q39 203 31 358.5t-95 249t-249 93.5q-231 0 -388.5 -193 t-225.5 -508zM932 1659l203 256q23 31 57.5 39t57 -12.5t18.5 -55.5q2 -29 -37 -65l-264 -197z" />
<glyph unicode="&#xd4;" horiz-adv-x="1574" d="M184 731q70 326 303.5 539t548.5 213q299 0 450 -215q105 -150 105 -352q0 -88 -20 -185q-70 -326 -304.5 -537.5t-547.5 -211.5q-301 0 -453 214q-104 147 -104 343q0 91 22 192zM412 731q-33 -154 -33 -278q0 -133 38 -231q73 -189 312 -189q227 0 387 193.5t223 504.5 q32 167 33 303q0 28 -2 56q-8 156 -95 249t-249 93q-231 0 -388.5 -193t-225.5 -508zM703 1595l283 223h65l188 -223h-104l-131 160l-203 -160h-98z" />
<glyph unicode="&#xd5;" horiz-adv-x="1574" d="M184 731q70 326 303.5 539t548.5 213q299 0 449.5 -215t85.5 -537q-70 -326 -304.5 -537.5t-547.5 -211.5q-301 0 -453 213.5t-82 535.5zM412 731q-68 -319 4.5 -508.5t312.5 -189.5q227 0 387 193.5t223 504.5q39 203 31 358.5t-95 249t-249 93.5q-231 0 -388.5 -193 t-225.5 -508zM682 1606q10 102 72.5 162.5t144.5 43.5q61 -10 124.5 -49t127.5 -51q49 -8 88 22.5t45 88.5l29 -11q-10 -102 -72.5 -162.5t-144.5 -43.5q-61 12 -124 50t-124 50q-53 8 -92 -22.5t-45 -88.5z" />
<glyph unicode="&#xd6;" horiz-adv-x="1574" d="M184 731q70 326 303.5 539t548.5 213q299 0 449.5 -215t85.5 -537q-70 -326 -304.5 -537.5t-547.5 -211.5q-301 0 -453 213.5t-82 535.5zM412 731q-68 -319 4.5 -508.5t312.5 -189.5q227 0 387 193.5t223 504.5q39 203 31 358.5t-95 249t-249 93.5q-231 0 -388.5 -193 t-225.5 -508zM592 1772q8 49 47 79.5t90 30.5q49 0 74.5 -30.5t17.5 -79.5q-8 -51 -47 -83t-88 -32t-75.5 32t-18.5 83zM979 1772q8 49 47 79.5t90 30.5q49 0 75 -30.5t17 -79.5q-8 -51 -47 -83t-88 -32t-75.5 32t-18.5 83z" />
<glyph unicode="&#xd7;" horiz-adv-x="974" d="M123 338l311 264l-209 264l92 76l209 -264l312 264l59 -78l-309 -262l209 -262l-90 -78l-211 262l-310 -262z" />
<glyph unicode="&#xd8;" horiz-adv-x="1597" d="M160 731q70 326 303 539t549 213q113 0 211 -35l114 192h95l-136 -227q162 -90 229.5 -271t20.5 -411q-70 -326 -304 -537.5t-548 -211.5q-123 0 -221 36l-127 -217h-90l147 250q-162 88 -228 269.5t-15 410.5zM387 731q-92 -432 62 -602l739 1257q-78 45 -187 46 q-231 0 -388.5 -193t-225.5 -508zM510 80q78 -47 195 -47q227 0 386.5 193.5t223.5 504.5q90 432 -64 604z" />
<glyph unicode="&#xd9;" horiz-adv-x="1542" d="M217 444l201 957l-152 18l13 43l241 -6l246 6l-10 -43l-146 -18l-202 -952q-11 -49 -11 -92q0 -113 75 -180q103 -93 290 -93q401 0 479 385l199 932l-140 18l11 43l184 -6l193 6l-9 -43l-153 -18l-197 -936q-49 -229 -225 -349t-424 -120q-141 0 -256 47t-176 153 q-41 70 -41 157q0 43 10 91zM694 1857q10 35 39.5 55.5t60.5 12.5q35 -8 43 -39l105 -256l-50 -35l-186 197q-24 30 -12 65z" />
<glyph unicode="&#xda;" horiz-adv-x="1542" d="M217 444q-31 -143 30.5 -248.5t176.5 -152.5t256 -47q248 0 424 120t225 349l197 936l153 18l9 43l-193 -6l-184 6l-11 -43l140 -18l-199 -932q-78 -385 -479 -385q-186 0 -289.5 93t-64.5 272l202 952l146 18l10 43l-246 -6l-241 6l-13 -43l152 -18zM854 1638l203 256 q23 31 57.5 39.5t57 -12t18.5 -55.5q2 -29 -37 -66l-264 -196z" />
<glyph unicode="&#xdb;" horiz-adv-x="1542" d="M217 444l201 957l-152 18l13 43l241 -6l246 6l-10 -43l-146 -18l-202 -952q-11 -49 -11 -92q0 -113 75 -180q103 -93 290 -93q401 0 479 385l199 932l-140 18l11 43l184 -6l193 6l-9 -43l-153 -18l-197 -936q-49 -229 -225 -349t-424 -120q-141 0 -256 47t-176 153 q-41 70 -41 157q0 43 10 91zM625 1575l283 223h65l188 -223h-104l-131 160l-203 -160h-98z" />
<glyph unicode="&#xdc;" horiz-adv-x="1542" d="M217 444q-31 -143 30.5 -248.5t176.5 -152.5t256 -47q248 0 424 120t225 349l197 936l153 18l9 43l-193 -6l-184 6l-11 -43l140 -18l-199 -932q-78 -385 -479 -385q-186 0 -289.5 93t-64.5 272l202 952l146 18l10 43l-246 -6l-241 6l-13 -43l152 -18zM514 1751 q8 49 47 80t90 31q49 0 75 -31t17 -80q-8 -51 -47 -83t-88 -32t-75.5 32t-18.5 83zM899 1751q8 49 47 80t90 31q49 0 75 -31t17 -80q-8 -51 -47 -83t-88 -32t-75.5 32t-18.5 83z" />
<glyph unicode="&#xdd;" horiz-adv-x="1355" d="M276 1427l9 39l227 -4l254 4l-8 -39l-152 -22l234 -711l512 684l4 25l-142 22l9 41l219 -4l176 4l-8 -41l-131 -26l-615 -801l-114 -537l141 -26l-8 -39l-238 4l-248 -4l9 39l153 22l117 553l-279 791zM824 1643l202 256q23 31 58 39t57.5 -12.5t18.5 -55.5 q2 -29 -37 -65l-264 -197z" />
<glyph unicode="&#xde;" horiz-adv-x="1286" d="M-2 -4l8 39l144 22l264 1344l-142 18l11 43h491l-8 -47l-164 -14l-49 -246h258q246 0 363.5 -103.5t87.5 -265.5q-37 -186 -201 -288.5t-399 -102.5h-256l-66 -334l131 -26l-8 -39l-223 4zM418 461h264q102 -2 176 24.5t116 76.5t63.5 101.5t35.5 116.5q14 55 5 111.5 t-34.5 100.5t-93 71t-168.5 27h-241z" />
<glyph unicode="&#xdf;" horiz-adv-x="1155" d="M-16 -6l4 41l116 20l187 965q45 221 187.5 370.5t350.5 149.5q150 0 236 -73.5t59 -200.5q-10 -55 -31.5 -102.5t-59.5 -91.5t-64.5 -70.5t-80.5 -73.5t-75 -68q23 -33 55.5 -75t54 -68.5t48 -65.5t39 -65.5t27 -69.5t10 -79t-8.5 -91q-31 -162 -150.5 -263t-258.5 -101 q-96 0 -164 42t-88 85q-4 35 12.5 62.5t42.5 27.5q29 0 45.5 -21.5t7.5 -66.5l-12 -52q61 -39 125 -39q90 0 174 59.5t109 186.5q18 86 -42.5 210t-170.5 247q-27 39 24 84q231 178 281 444q20 102 -22 171t-156 69q-119 0 -196 -100.5t-110 -268.5l-217 -1122z" />
<glyph unicode="&#xe0;" horiz-adv-x="1161" d="M113 111q-17 51 -18 113q0 83 32 186q47 164 129 292.5t172 199.5t172 106.5t145 35.5q119 0 164 -92l47 72h138l-215 -741q-30 -107 -30 -151q0 -50 40 -50q94 0 192 190l41 -18q-53 -121 -154 -200q-86 -67 -170 -66q-15 0 -30 2q-88 8 -88 126q0 65 27 165l34 120 q-213 -412 -460 -411q-127 0 -168 121zM311 438q-28 -104 -28 -174q0 -141 116 -141q66 0 133.5 56.5t123 147.5t85 147t54.5 112l41 143q19 67 19 115q0 130 -140 131q-106 0 -216 -132.5t-188 -404.5zM563 1460q10 35 39.5 55.5t60.5 12.5q35 -8 43 -39l105 -256l-50 -35 l-186 197q-24 30 -12 65z" />
<glyph unicode="&#xe1;" horiz-adv-x="1161" d="M113 110.5q-41 120.5 14 299.5q47 164 129 292.5t172 199.5t172 106.5t145 35.5q119 0 164 -92l47 72h138l-215 -741q-33 -117 -30 -159t40 -42q94 0 192 190l41 -18q-53 -121 -154.5 -200t-199.5 -64q-137 12 -61 291l34 120q-213 -412 -460 -411q-127 0 -168 120.5z M311 438q-86 -315 88 -315q66 0 133.5 56.5t123 147.5t85 147t54.5 112l41 143q72 246 -121 246q-106 0 -216 -132.5t-188 -404.5zM723 1241l203 256q23 31 57.5 39t57 -12.5t18.5 -55.5q2 -29 -37 -65l-264 -197z" />
<glyph unicode="&#xe2;" horiz-adv-x="1161" d="M113 111q-17 51 -18 113q0 83 32 186q47 164 129 292.5t172 199.5t172 106.5t145 35.5q119 0 164 -92l47 72h138l-215 -741q-30 -107 -30 -151q0 -50 40 -50q94 0 192 190l41 -18q-53 -121 -154 -200q-86 -67 -170 -66q-15 0 -30 2q-88 8 -88 126q0 65 27 165l34 120 q-213 -412 -460 -411q-127 0 -168 121zM311 438q-28 -104 -28 -174q0 -141 116 -141q66 0 133.5 56.5t123 147.5t85 147t54.5 112l41 143q19 67 19 115q0 130 -140 131q-106 0 -216 -132.5t-188 -404.5zM494 1178l283 223h65l188 -223h-104l-131 160l-203 -160h-98z" />
<glyph unicode="&#xe3;" horiz-adv-x="1161" d="M113 110.5q-41 120.5 14 299.5q47 164 129 292.5t172 199.5t172 106.5t145 35.5q119 0 164 -92l47 72h138l-215 -741q-33 -117 -30 -159t40 -42q94 0 192 190l41 -18q-53 -121 -154.5 -200t-199.5 -64q-137 12 -61 291l34 120q-213 -412 -460 -411q-127 0 -168 120.5z M311 438q-86 -315 88 -315q66 0 133.5 56.5t123 147.5t85 147t54.5 112l41 143q72 246 -121 246q-106 0 -216 -132.5t-188 -404.5zM473 1188q10 102 72.5 162.5t144.5 44.5q61 -10 125 -49t127 -52q49 -8 88 23t45 88l29 -10q-10 -102 -72.5 -163t-144.5 -44q-61 12 -124 50 t-124 50q-53 8 -92 -22.5t-45 -87.5z" />
<glyph unicode="&#xe4;" horiz-adv-x="1161" d="M113 110.5q-41 120.5 14 299.5q47 164 129 292.5t172 199.5t172 106.5t145 35.5q119 0 164 -92l47 72h138l-215 -741q-33 -117 -30 -159t40 -42q94 0 192 190l41 -18q-53 -121 -154.5 -200t-199.5 -64q-137 12 -61 291l34 120q-213 -412 -460 -411q-127 0 -168 120.5z M311 438q-86 -315 88 -315q66 0 133.5 56.5t123 147.5t85 147t54.5 112l41 143q72 246 -121 246q-106 0 -216 -132.5t-188 -404.5zM383 1354q8 49 47 79.5t90 30.5q49 0 75 -30.5t17 -79.5q-8 -51 -47 -83t-88 -32t-75.5 32t-18.5 83zM768 1354q8 49 47 79.5t90 30.5 q49 0 75 -30.5t17 -79.5q-8 -51 -47 -83t-88 -32t-75.5 32t-18.5 83z" />
<glyph unicode="&#xe5;" horiz-adv-x="1161" d="M113 111q-17 51 -18 113q0 83 32 186q47 164 129 292.5t172 199.5t172 106.5t145 35.5q119 0 164 -92l47 72h138l-215 -741q-30 -107 -30 -151q0 -50 40 -50q94 0 192 190l41 -18q-53 -121 -154 -200q-86 -67 -170 -66q-15 0 -30 2q-88 8 -88 126q0 65 27 165l34 120 q-213 -412 -460 -411q-127 0 -168 121zM311 438q-28 -104 -28 -174q0 -141 116 -141q66 0 133.5 56.5t123 147.5t85 147t54.5 112l41 143q19 67 19 115q0 130 -140 131q-106 0 -216 -132.5t-188 -404.5zM619 1350q16 72 75.5 122t128.5 50q68 0 109 -51.5t27 -120.5 q-12 -70 -72 -121t-131 -51q-68 0 -108.5 51t-28.5 121zM686 1350q-8 -41 16.5 -73t65.5 -32q39 0 78 32t45 73q8 41 -16.5 72.5t-65.5 31.5q-39 0 -77 -31.5t-46 -72.5z" />
<glyph unicode="&#xe6;" horiz-adv-x="1681" d="M141 225q39 111 146.5 180.5t328.5 116.5l185 27l28 69l35 111q41 119 11.5 182.5t-136 63.5t-200.5 -68q20 -74 0 -137q-14 -41 -55.5 -66.5t-88.5 -25.5q-45 0 -61.5 31.5t-3 74.5t48.5 76q90 86 208 135t228 49q201 0 232 -122q147 123 307 122q109 0 170 -58t35 -163 q-20 -82 -94 -146.5t-172.5 -101t-180.5 -57t-147 -26.5q-2 -4 -2 -9q-23 -98 -22 -184t54.5 -146.5t151.5 -60.5q86 0 179 55.5t163 167.5l37 -16q-92 -143 -227.5 -231t-262.5 -88q-115 0 -182.5 60t-87.5 161q-88 -100 -202.5 -156.5t-235.5 -56.5q-117 0 -167.5 68.5 t-19.5 168.5zM336.5 125q21.5 -43 79.5 -43q207 0 344 147q-18 121 20 254l2 4v5l-168 -25q-215 -51 -272 -209q-27 -90 -5.5 -133zM977 537q57 12 97 21t103.5 33.5t105.5 53.5t81 79t55 114q37 141 -90 141q-213 0 -352 -442z" />
<glyph unicode="&#xe7;" horiz-adv-x="921" d="M129 479q53 225 194.5 395t317.5 170q207 0 256 -135q27 -59 -8 -130.5t-113 -71.5q-39 0 -62.5 31.5t-13.5 70.5q10 51 70 152q-33 25 -104 24q-125 0 -214.5 -135t-134.5 -363q-31 -170 25.5 -281.5t189.5 -111.5q203 0 334 234l37 -15q-74 -143 -194.5 -235 t-243.5 -98l-39 -89q53 18 125 19q78 0 126 -39t34 -107q-12 -70 -63.5 -116.5t-115 -65t-125 -28t-102.5 -7.5l-41 2v37q2 2 30 -1t73 4.5t89 18.5t79.5 39.5t44 69.5t-20.5 60.5t-80 19.5q-70 0 -141 -20l-14 18l88 187q-166 18 -245 170.5t-38 326.5z" />
<glyph unicode="&#xe8;" horiz-adv-x="940" d="M129 306q0 87 25 177q61 221 216.5 391t356.5 170q109 0 170 -58q43 -41 43 -104q0 -27 -8 -59q-20 -82 -94 -146.5t-172.5 -101t-180.5 -57t-147 -26.5q-2 -4 -2 -9q-22 -94 -22 -176q0 -92 55 -154q53 -60 151 -61q86 0 179.5 55.5t162.5 167.5l37 -16 q-92 -143 -227 -231t-262 -88q-96 0 -162 46t-92.5 119.5t-26.5 160.5zM350 537q57 12 97 21t103.5 33.5t105.5 53.5t81 79t56 114q8 32 8 56q0 85 -99 85q-213 0 -352 -442zM455 1460q10 35 39.5 55.5t60.5 12.5q35 -8 43 -39l105 -256l-50 -35l-186 197q-24 30 -12 65z " />
<glyph unicode="&#xe9;" horiz-adv-x="940" d="M129 306q0 87 25 177q61 221 216.5 391t356.5 170q109 0 170 -58t35 -163q-20 -82 -94 -146.5t-172.5 -101t-180.5 -57t-147 -26.5q-2 -4 -2 -9q-23 -98 -22 -184t54.5 -146.5t151.5 -60.5q86 0 179.5 55.5t162.5 167.5l37 -16q-92 -143 -227 -231t-262 -88 q-96 0 -162 46t-92.5 119.5t-26.5 160.5zM350 537q57 12 97 21t103.5 33.5t105.5 53.5t81 79t56 114q37 141 -91 141q-213 0 -352 -442zM612 1241l203 256q23 31 57.5 39t57 -12.5t18.5 -55.5q2 -29 -37 -65l-264 -197z" />
<glyph unicode="&#xea;" horiz-adv-x="940" d="M129 306q0 87 25 177q61 221 216.5 391t356.5 170q109 0 170 -58q43 -41 43 -104q0 -27 -8 -59q-20 -82 -94 -146.5t-172.5 -101t-180.5 -57t-147 -26.5q-2 -4 -2 -9q-22 -94 -22 -176q0 -92 55 -154q53 -60 151 -61q86 0 179.5 55.5t162.5 167.5l37 -16 q-92 -143 -227 -231t-262 -88q-96 0 -162 46t-92.5 119.5t-26.5 160.5zM350 537q57 12 97 21t103.5 33.5t105.5 53.5t81 79t56 114q8 32 8 56q0 85 -99 85q-213 0 -352 -442zM385 1178l283 223h65l188 -223h-104l-131 160l-203 -160h-98z" />
<glyph unicode="&#xeb;" horiz-adv-x="940" d="M129 306q0 87 25 177q61 221 216.5 391t356.5 170q109 0 170 -58t35 -163q-20 -82 -94 -146.5t-172.5 -101t-180.5 -57t-147 -26.5q-2 -4 -2 -9q-23 -98 -22 -184t54.5 -146.5t151.5 -60.5q86 0 179.5 55.5t162.5 167.5l37 -16q-92 -143 -227 -231t-262 -88 q-96 0 -162 46t-92.5 119.5t-26.5 160.5zM274 1354q8 49 47 79.5t91 30.5q49 0 74.5 -30.5t17.5 -79.5q-8 -51 -47 -83t-88.5 -32t-76 32t-18.5 83zM350 537q57 12 97 21t103.5 33.5t105.5 53.5t81 79t56 114q37 141 -91 141q-213 0 -352 -442zM659 1354q8 49 47 79.5 t91 30.5q49 0 74.5 -30.5t17.5 -79.5q-8 -51 -47 -83t-88 -32t-76 32t-19 83z" />
<glyph unicode="&#xec;" horiz-adv-x="641" d="M167 82q-13 86 21 199l166 647l-116 20l20 62l299 24l-195 -753q-35 -117 -32.5 -158t41.5 -41q90 0 192 190l41 -18q-55 -121 -156.5 -200t-199.5 -64q-68 6 -81 92zM426 1419q10 35 39.5 55.5t60.5 12.5q35 -8 43 -39l105 -256l-50 -35l-186 197q-24 30 -12 65z" />
<glyph unicode="&#xed;" horiz-adv-x="641" d="M167 82q-13 86 21 199l166 647l-116 20l20 62l299 24l-195 -753q-35 -117 -32.5 -158t41.5 -41q90 0 192 190l41 -18q-55 -121 -156.5 -200t-199.5 -64q-68 6 -81 92zM377 1192l203 256q23 31 57.5 39t57 -12.5t18.5 -55.5q2 -29 -37 -65l-264 -197z" />
<glyph unicode="&#xee;" horiz-adv-x="641" d="M167 82q-13 86 21 199l166 647l-116 20l20 62l299 24l-195 -753q-35 -117 -32.5 -158t41.5 -41q90 0 192 190l41 -18q-55 -121 -156.5 -200t-199.5 -64q-68 6 -81 92zM264 1233l283 223h65l188 -223h-104l-131 160l-203 -160h-98z" />
<glyph unicode="&#xef;" horiz-adv-x="641" d="M158 1395q8 49 47 79.5t90 30.5q49 0 74.5 -30.5t17.5 -79.5q-8 -51 -47 -83t-88 -32t-75.5 32t-18.5 83zM167 82q-13 86 21 199l166 647l-116 20l20 62l299 24l-195 -753q-35 -117 -32.5 -158t41.5 -41q90 0 192 190l41 -18q-55 -121 -156.5 -200t-199.5 -64 q-68 6 -81 92zM545 1395q8 49 47 79.5t90 30.5q49 0 74.5 -30.5t17.5 -79.5q-8 -51 -47 -83t-88 -32t-75.5 32t-18.5 83z" />
<glyph unicode="&#xf0;" horiz-adv-x="1175" d="M102 483q43 229 182.5 371.5t327.5 142.5q98 0 186.5 -55t114.5 -166q35 299 -86 461l-309 -117l-18 62l282 106q-106 100 -293 131l27 60q240 -27 387 -146l268 103l17 -62l-234 -88q215 -225 131 -651q-20 -111 -68 -219.5t-121 -206.5t-181.5 -158.5t-233.5 -60.5 q-195 0 -305.5 151.5t-73.5 341.5zM301 496q-84 -440 168 -441q90 0 164 53.5t122 143.5t78.5 179t53.5 194q4 147 -66.5 228t-179.5 81q-123 0 -212 -119.5t-128 -318.5z" />
<glyph unicode="&#xf1;" horiz-adv-x="1216" d="M96 0l236 928l-115 20l21 62l301 24l-93 -358q90 168 203 268t211 100q129 0 191 -80q35 -46 34 -119q0 -55 -20 -126l-129 -438q-16 -61 -24.5 -97.5t-7.5 -61t11.5 -32.5t32.5 -8q88 0 191 190l39 -18q-55 -121 -155 -200q-84 -67 -169 -66q-15 0 -31 2q-70 6 -82 92 q-3 22 -3 47q0 69 26 152l127 438q18 61 18 106q0 35 -11 61q-26 58 -116 58q-92 0 -205.5 -140t-189.5 -355l-115 -449h-176zM478 1187q10 102 72.5 163t144.5 44q61 -10 124.5 -49t127.5 -51q49 -8 88 22.5t45 88.5l28 -11q-10 -102 -72.5 -162.5t-144.5 -44.5 q-61 12 -123.5 50.5t-123.5 50.5q-53 8 -92.5 -22.5t-45.5 -88.5z" />
<glyph unicode="&#xf2;" horiz-adv-x="1058" d="M117 471q53 244 210.5 408.5t350.5 164.5q186 0 283 -143q65 -96 64 -220q0 -61 -15 -128q-49 -244 -205 -407.5t-350 -163.5q-186 0 -284 142q-67 99 -67 227q0 57 13 120zM337 93q44 -60 128 -60q121 0 214 145.5t140 374.5q26 101 27 186q0 67 -17 124 q-37 130 -163 130q-119 0 -211.5 -145.5t-141.5 -376.5q-22 -118 -21 -212q0 -104 45 -166zM451 1460q10 35 39.5 55.5t60.5 12.5q35 -8 43 -39l105 -256l-50 -35l-186 197q-24 30 -12 65z" />
<glyph unicode="&#xf3;" horiz-adv-x="1058" d="M117 471q53 244 210.5 408.5t350.5 164.5q186 0 282.5 -143t49.5 -348q-49 -244 -205 -407.5t-350 -163.5q-186 0 -283.5 142t-54.5 347zM292 251q1 -97 45 -157.5t128 -60.5q121 0 214 145.5t140 374.5q47 180 10.5 310t-163.5 130q-119 0 -211.5 -145.5t-141.5 -376.5 q-22 -123 -21 -220zM608 1241l203 256q23 31 57.5 39t57 -12.5t18.5 -55.5q2 -29 -37 -65l-264 -197z" />
<glyph unicode="&#xf4;" horiz-adv-x="1058" d="M117 471q53 244 210.5 408.5t350.5 164.5q186 0 283 -143q65 -96 64 -220q0 -61 -15 -128q-49 -244 -205 -407.5t-350 -163.5q-186 0 -284 142q-67 99 -67 227q0 57 13 120zM337 93q44 -60 128 -60q121 0 214 145.5t140 374.5q26 101 27 186q0 67 -17 124 q-37 130 -163 130q-119 0 -211.5 -145.5t-141.5 -376.5q-22 -118 -21 -212q0 -104 45 -166zM381 1178l283 223h65l188 -223h-104l-131 160l-203 -160h-98z" />
<glyph unicode="&#xf5;" horiz-adv-x="1058" d="M117 471q53 244 210.5 408.5t350.5 164.5q186 0 282.5 -143t49.5 -348q-49 -244 -205 -407.5t-350 -163.5q-186 0 -283.5 142t-54.5 347zM292 251q1 -97 45 -157.5t128 -60.5q121 0 214 145.5t140 374.5q47 180 10.5 310t-163.5 130q-119 0 -211.5 -145.5t-141.5 -376.5 q-22 -123 -21 -220zM358 1188q10 102 73 162.5t144 44.5q61 -10 125 -49t127 -52q49 -8 88 23t46 88l28 -10q-10 -102 -72.5 -163t-144.5 -44q-61 12 -123.5 50t-124.5 50q-53 8 -92 -22.5t-45 -87.5z" />
<glyph unicode="&#xf6;" horiz-adv-x="1058" d="M117 471q53 244 210.5 408.5t350.5 164.5q186 0 282.5 -143t49.5 -348q-49 -244 -205 -407.5t-350 -163.5q-186 0 -283.5 142t-54.5 347zM270 1354q8 49 47 79.5t91 30.5q49 0 74.5 -30.5t17.5 -79.5q-8 -51 -47 -83t-88.5 -32t-76 32t-18.5 83zM292 251q1 -97 45 -157.5 t128 -60.5q121 0 214 145.5t140 374.5q47 180 10.5 310t-163.5 130q-119 0 -211.5 -145.5t-141.5 -376.5q-22 -123 -21 -220zM655 1354q8 49 47 79.5t91 30.5q49 0 74.5 -30.5t17.5 -79.5q-8 -51 -47 -83t-88.5 -32t-76 32t-18.5 83z" />
<glyph unicode="&#xf7;" horiz-adv-x="974" d="M59 563l19 109h895l-21 -109h-893zM307 313q8 49 47 80t90 31q49 0 75 -31t18 -80q-8 -51 -47 -82.5t-88.5 -31.5t-76 31.5t-18.5 82.5zM358 930q8 49 47 79.5t91 30.5q49 0 74.5 -30.5t17.5 -79.5q-8 -51 -47 -83t-88.5 -32t-76 32t-18.5 83z" />
<glyph unicode="&#xf8;" horiz-adv-x="1167" d="M115 -166l145 225q-78 66 -108.5 174.5t-4.5 237.5q53 244 211 408.5t351 164.5q88 0 165 -38l113 174h80l-137 -211q80 -68 109.5 -177.5t0.5 -238.5q-49 -244 -204.5 -407.5t-350.5 -163.5q-94 0 -170 41l-122 -189h-78zM332 170l495 764q-47 59 -131 59 q-119 0 -211 -145.5t-141 -376.5q-39 -186 -12 -301zM365 96q41 -63 131 -63q121 0 214 145.5t140 374.5q43 195 10 309z" />
<glyph unicode="&#xf9;" horiz-adv-x="1220" d="M174 279l164 659l-117 25l19 61l299 20l-191 -765q-14 -56 -14 -96t14 -63q29 -46 121 -46q90 0 201.5 139t179.5 354l90 361l-100 20l20 62l279 24l-189 -753q-26 -104 -26 -147q0 -7 1 -13q5 -39 44 -39q94 0 182 190l41 -20q-45 -119 -144 -198q-84 -67 -168 -66 q-15 0 -30 2q-70 6 -86 92q-6 30 -6 63q0 62 20 136l8 34q-86 -160 -189 -251t-196 -91q-242 0 -242 196q0 49 15 110zM578 1460q10 35 39.5 55.5t60.5 12.5q35 -8 43 -39l105 -256l-50 -35l-186 197q-24 30 -12 65z" />
<glyph unicode="&#xfa;" horiz-adv-x="1220" d="M174 279l164 659l-117 25l19 61l299 20l-191 -765q-29 -113 0 -159t121 -46q90 0 201.5 139t179.5 354l90 361l-100 20l20 62l279 24l-189 -753q-31 -121 -25.5 -160t44.5 -39q94 0 182 190l41 -20q-45 -119 -144.5 -198t-197.5 -64q-70 6 -86 92t14 199l8 34 q-86 -160 -189 -251t-196 -91q-303 1 -227 306zM735 1241l203 256q23 31 57.5 39t57 -12.5t18.5 -55.5q2 -29 -37 -65l-264 -197z" />
<glyph unicode="&#xfb;" horiz-adv-x="1220" d="M174 279l164 659l-117 25l19 61l299 20l-191 -765q-14 -56 -14 -96t14 -63q29 -46 121 -46q90 0 201.5 139t179.5 354l90 361l-100 20l20 62l279 24l-189 -753q-26 -104 -26 -147q0 -7 1 -13q5 -39 44 -39q94 0 182 190l41 -20q-45 -119 -144 -198q-84 -67 -168 -66 q-15 0 -30 2q-70 6 -86 92q-6 30 -6 63q0 62 20 136l8 34q-86 -160 -189 -251t-196 -91q-242 0 -242 196q0 49 15 110zM508 1178l283 223h65l188 -223h-104l-131 160l-203 -160h-98z" />
<glyph unicode="&#xfc;" horiz-adv-x="1220" d="M174 279l164 659l-117 25l19 61l299 20l-191 -765q-29 -113 0 -159t121 -46q90 0 201.5 139t179.5 354l90 361l-100 20l20 62l279 24l-189 -753q-31 -121 -25.5 -160t44.5 -39q94 0 182 190l41 -20q-45 -119 -144.5 -198t-197.5 -64q-70 6 -86 92t14 199l8 34 q-86 -160 -189 -251t-196 -91q-303 1 -227 306zM397 1354q8 49 47 79.5t91 30.5q49 0 74.5 -30.5t17.5 -79.5q-8 -51 -47 -83t-88.5 -32t-76 32t-18.5 83zM782 1354q8 49 47 79.5t91 30.5q49 0 74.5 -30.5t17.5 -79.5q-8 -51 -47 -83t-88.5 -32t-76 32t-18.5 83z" />
<glyph unicode="&#xfd;" horiz-adv-x="923" d="M-115 -393q-1 7 -1 13q0 36 29 67q34 37 85 37q16 0 28.5 -7.5t22.5 -25t14.5 -27.5t13.5 -37.5t11 -36.5q53 0 110.5 68t77.5 158l60 196q-10 408 -80 926l-111 16l19 62l256 39q76 -463 76 -873q219 303 344 621q0 33 -33 81q-26 39 -26 67q0 7 1 14q27 115 133 114 q59 0 68 -81q1 -14 1 -28q0 -66 -32 -128q-119 -254 -233.5 -433.5t-302.5 -400.5l-66 -194q-41 -145 -138 -231.5t-175 -86.5q-134 0 -152 111zM523 1276l202 256q23 31 58 39t57.5 -12.5t18.5 -55.5q2 -29 -37 -65l-264 -197z" />
<glyph unicode="&#xfe;" horiz-adv-x="1193" d="M-125 -510l4 41l137 20l359 1835l-109 39l17 76l299 45l-56 -282l-86 -443q61 98 159.5 159.5t199.5 61.5q182 0 267 -156.5t44 -357.5q-43 -219 -201.5 -385t-392.5 -166q-137 0 -227 66l-94 -487l133 -25l-11 -41l-225 6zM324 217q-6 -78 44 -129t164 -51 q299 0 394 491q33 170 -11.5 290t-175.5 120q-98 0 -193 -66.5t-128 -166.5z" />
<glyph unicode="&#xff;" horiz-adv-x="923" d="M-115 -393q-6 43 28 80t85 37q16 0 28.5 -7.5t22.5 -25t14.5 -27.5t13.5 -37.5t11 -36.5q53 0 110.5 68t77.5 158l60 196q-10 408 -80 926l-111 16l19 62l256 39q76 -463 76 -873q219 303 344 621q0 33 -33 81t-25 81q27 115 133 114q59 0 67.5 -80.5t-30.5 -156.5 q-119 -254 -233.5 -433.5t-302.5 -400.5l-66 -194q-41 -145 -138 -231.5t-175 -86.5q-134 0 -152 111zM184 1389q8 49 47 79.5t91 30.5q49 0 74.5 -30.5t17.5 -79.5q-8 -51 -47 -83t-88.5 -32t-76 32t-18.5 83zM569 1389q8 49 47 79.5t91 30.5q49 0 74.5 -30.5t17.5 -79.5 q-8 -51 -47 -83t-88.5 -32t-76 32t-18.5 83z" />
<glyph unicode="&#x131;" horiz-adv-x="641" d="M167 82q-13 86 21 199l166 647l-116 20l20 62l299 24l-195 -753q-35 -117 -32.5 -158t41.5 -41q90 0 192 190l41 -18q-55 -121 -156.5 -200t-199.5 -64q-68 6 -81 92z" />
<glyph unicode="&#x152;" horiz-adv-x="2037" d="M179 397.5q-36 149.5 1 335.5q35 186 132.5 336t219 236t243.5 131t226 45q141 0 263 -19h829l-72 -383h-63l10 64q27 135 -52 198.5t-239 61.5l-268 -2l-125 -637h86q244 -4 279 168l8 41h59l-92 -475h-59l8 41q14 92 -43 131t-172 37h-86l-127 -648h332q344 -4 395 260 l14 64h64l-76 -383h-928q-123 -14 -237 -14q-111 0 -215.5 45t-191.5 131t-123 235.5zM403 735q-61 -311 29 -506.5t291 -195.5q145 0 242 63l247 1282q-82 55 -217 56q-207 0 -370 -193t-222 -506z" />
<glyph unicode="&#x153;" horiz-adv-x="1619" d="M147 471q53 244 211 408.5t351 164.5q111 0 191.5 -54t121.5 -148q172 203 385 202q109 0 170 -58t35 -163q-18 -80 -91 -144.5t-169.5 -101t-176 -57t-149.5 -28.5q-16 -53 -27 -80q-20 -137 27 -228.5t174 -91.5q86 0 179.5 55.5t162.5 167.5l37 -16 q-92 -143 -227 -231t-262 -88q-188 0 -254 165q-154 -164 -351 -163q-186 0 -283.5 142t-54.5 347zM323 251q1 -97 45 -157.5t128 -60.5q104 0 189 110.5t136 294.5l13 45q0 4 4 13l12 57q47 180 10 310t-164 130q-119 0 -211 -145.5t-141 -376.5q-22 -123 -21 -220z M1036 539q72 14 125 29.5t125 48t120 89t67 132.5q37 141 -91 141q-201 0 -335 -393l-7 -33z" />
<glyph unicode="&#x178;" horiz-adv-x="1355" d="M276 1427l9 39l227 -4l254 4l-8 -39l-152 -22l234 -711l512 684l4 25l-142 22l9 41l219 -4l176 4l-8 -41l-131 -26l-615 -801l-114 -537l141 -26l-8 -39l-238 4l-248 -4l9 39l153 22l117 553l-279 791zM485 1755q8 49 47 80t91 31q49 0 74.5 -31t17.5 -80q-8 -51 -47 -83 t-88.5 -32t-76 32t-18.5 83zM870 1755q8 49 47 80t91 31q49 0 74.5 -31t17.5 -80q-8 -51 -47 -83t-88.5 -32t-76 32t-18.5 83z" />
<glyph unicode="&#x2c6;" horiz-adv-x="655" d="M209 1233l283 223h65l188 -223h-104l-131 160l-203 -160h-98z" />
<glyph unicode="&#x2da;" horiz-adv-x="583" d="M281 1305q16 72 75.5 122t128.5 50q68 0 109 -51.5t27 -120.5q-12 -70 -72 -121t-131 -51q-68 0 -108.5 51t-28.5 121zM348 1305q-8 -41 16.5 -73t65.5 -32q39 0 78 32t45 73q8 41 -16.5 72.5t-65.5 31.5q-39 0 -77 -31.5t-46 -72.5z" />
<glyph unicode="&#x2dc;" horiz-adv-x="858" d="M285 1257q10 102 72.5 163t144.5 44q61 -10 124.5 -49t127.5 -51q49 -8 88 22.5t45 88.5l28 -11q-10 -102 -72.5 -162.5t-144.5 -44.5q-61 12 -123.5 50.5t-123.5 50.5q-53 8 -92.5 -22.5t-45.5 -88.5z" />
<glyph unicode="&#x2000;" horiz-adv-x="976" />
<glyph unicode="&#x2001;" horiz-adv-x="1955" />
<glyph unicode="&#x2002;" horiz-adv-x="976" />
<glyph unicode="&#x2003;" horiz-adv-x="1955" />
<glyph unicode="&#x2004;" horiz-adv-x="651" />
<glyph unicode="&#x2005;" horiz-adv-x="487" />
<glyph unicode="&#x2006;" horiz-adv-x="325" />
<glyph unicode="&#x2007;" horiz-adv-x="325" />
<glyph unicode="&#x2008;" horiz-adv-x="243" />
<glyph unicode="&#x2009;" horiz-adv-x="391" />
<glyph unicode="&#x200a;" horiz-adv-x="108" />
<glyph unicode="&#x2010;" horiz-adv-x="1036" d="M221 565l37 150h692l-37 -150h-692z" />
<glyph unicode="&#x2011;" horiz-adv-x="1036" d="M221 565l37 150h692l-37 -150h-692z" />
<glyph unicode="&#x2012;" horiz-adv-x="1036" d="M221 565l37 150h692l-37 -150h-692z" />
<glyph unicode="&#x2013;" horiz-adv-x="1093" d="M119 565l24 129h893l-26 -129h-891z" />
<glyph unicode="&#x2014;" horiz-adv-x="1296" d="M119 565l24 129h1096l-27 -129h-1093z" />
<glyph unicode="&#x2018;" horiz-adv-x="446" d="M285 1188q23 119 115 220t163 138l29 -45q-145 -100 -174 -225q45 -8 71.5 -46t18.5 -83q-8 -49 -47 -80t-90 -31q-47 0 -73.5 42t-12.5 110z" />
<glyph unicode="&#x2019;" horiz-adv-x="446" d="M74 1018q145 100 174 225q-45 8 -71.5 46t-18.5 83q8 49 47 80t90 31q47 0 73.5 -42t12.5 -110q-23 -119 -115 -220t-164 -138z" />
<glyph unicode="&#x201a;" horiz-adv-x="425" d="M-55 -262q145 100 174 225q-45 8 -72 46t-18 83q8 49 47 80t90 31q47 0 73.5 -42t12.5 -110q-23 -119 -115 -220t-164 -138z" />
<glyph unicode="&#x201c;" horiz-adv-x="759" d="M281 1167q23 119 114.5 220.5t163.5 138.5l29 -45q-145 -100 -174 -226q45 -8 71.5 -46t18.5 -83q-8 -49 -47 -79.5t-90 -30.5q-47 0 -73.5 41.5t-12.5 109.5zM586 1167q23 119 115 220.5t163 138.5l29 -45q-145 -100 -174 -226q45 -8 71.5 -46t18.5 -83 q-8 -49 -47 -79.5t-90 -30.5q-47 0 -73.5 41.5t-12.5 109.5z" />
<glyph unicode="&#x201d;" horiz-adv-x="747" d="M74 1018q145 100 174 225q-45 8 -71.5 46t-18.5 83q8 49 47 80t90 31q47 0 73.5 -42t12.5 -110q-23 -119 -115 -220t-164 -138zM365 1018q145 100 174 225q-45 8 -72 46t-18 83q8 49 47 80t90 31q47 0 73.5 -42t12.5 -110q-23 -119 -115 -220t-164 -138z" />
<glyph unicode="&#x201e;" horiz-adv-x="724" d="M-55 -262q145 100 174 225q-45 8 -72 46t-18 83q8 49 47 80t90 31q47 0 73.5 -42t12.5 -110q-23 -119 -115 -220t-164 -138zM233 -262q145 100 175 225q-45 8 -72 46t-19 83q8 49 47 80t91 31q47 0 73.5 -42t12.5 -110q-23 -119 -115 -220t-164 -138z" />
<glyph unicode="&#x2022;" horiz-adv-x="649" d="M131 641q20 96 94 154.5t172 58.5q94 0 147.5 -58.5t35.5 -154.5q-18 -98 -93 -160.5t-174 -62.5q-94 0 -146 62.5t-36 160.5z" />
<glyph unicode="&#x2026;" horiz-adv-x="1236" d="M14 92q8 49 47 80t91 31q49 0 74.5 -31t17.5 -80q-8 -51 -47 -83t-88.5 -32t-76 32t-18.5 83zM414 92q8 49 47 80t90 31q49 0 74.5 -31t17.5 -80q-8 -51 -47 -83t-88 -32t-75.5 32t-18.5 83zM813 92q8 49 47 80t90 31q49 0 75 -31t17 -80q-8 -51 -47 -83t-88 -32 t-75.5 32t-18.5 83z" />
<glyph unicode="&#x202f;" horiz-adv-x="391" />
<glyph unicode="&#x2039;" horiz-adv-x="563" d="M82 381l6 33l399 387l35 -25l-270 -381l119 -383l-41 -18z" />
<glyph unicode="&#x203a;" horiz-adv-x="563" d="M10 18l269 381l-121 383l45 19l246 -387l-7 -33l-397 -387z" />
<glyph unicode="&#x205f;" horiz-adv-x="487" />
<glyph unicode="&#x20ac;" horiz-adv-x="1431" d="M51 590l8 67h166l-8 -67h-166zM80 799l14 69h182q-16 -45 -22 -69h-174zM217 590h225q-25 -242 55.5 -389.5t231.5 -147.5q199 0 342 90t217 217l37 -22q-94 -156 -257 -254t-355 -98q-92 0 -181.5 35.5t-165 106.5t-117.5 190.5t-32 271.5zM225 657q8 49 15 76 q6 39 14 66h227q-4 -16 -14 -64l-2 -4l-14 -74h-226zM276 868q53 154 146.5 276t198 192.5t206 107.5t189.5 37q252 0 340 -146l53 129h64l-91 -415h-53q-2 180 -80 282.5t-241 102.5q-156 0 -294.5 -154t-213.5 -412h-224zM442 590q4 49 9 67h690l-8 -67h-691zM481 799 q0 4 7.5 29.5t11.5 39.5h674l-13 -69h-680z" />
<glyph unicode="&#x2122;" horiz-adv-x="1146" d="M270 1343l21 119h375l-23 -119h-22l4 19q6 37 -11.5 52.5t-58.5 15.5h-39l-70 -355l46 -4l-7 -22l-82 2l-79 -2l2 22l41 4l69 355h-41q-88 0 -98 -68l-4 -19h-23zM627 1049l2 20l47 6l61 322q6 37 -35 45l5 20h116l99 -293l184 293h129l-2 -20l-45 -6l-68 -357l39 -10 l-2 -20l-84 2l-82 -2l2 20l47 6l60 307l-211 -331h-21l-98 309l-55 -281l47 -10l-2 -20l-70 2z" />
<glyph unicode="&#xe000;" horiz-adv-x="1055" d="M0 1055h1055v-1055h-1055v1055z" />
<glyph unicode="&#xfb01;" horiz-adv-x="1208" d="M-377 -403q8 33 37 55t70 22q37 0 69.5 -53t67.5 -53q125 0 215 420l201 954h-142l17 64l141 18l8 37q49 199 205 339t350 140q115 0 216.5 -51t105.5 -123q2 -39 -31 -68.5t-78 -31.5q-57 -2 -76.5 49t-5.5 123q-25 53 -151 53q-258 0 -326 -328l-29 -139h236l-23 -82 h-231l-168 -807q-57 -287 -206.5 -462t-352.5 -175q-57 0 -93 31t-26 68zM743.5 82q-14.5 86 20.5 199l166 647l-123 20l22 62l316 24l-197 -753q-18 -59 -25.5 -97.5t-6 -61t12.5 -31.5t32 -9q80 0 172 170l41 -19q-51 -113 -147.5 -184.5t-197.5 -58.5q-71 6 -85.5 92z " />
<glyph unicode="&#xfb02;" horiz-adv-x="1230" d="M-377 -403q8 33 37 55t70 22q37 0 69.5 -53t67.5 -53q125 0 215 420l201 954h-142l17 64l143 18l12 57q45 190 200 324.5t349 134.5q178 0 324 -84l84 10l-15 -57q0 -2 2 -2l-4 -2l-284 -1124q-16 -59 -24.5 -97.5t-6.5 -61t12.5 -31.5t30.5 -9q88 0 172 170l43 -19 q-49 -111 -146.5 -183.5t-195.5 -59.5q-72 6 -87 92t19 199l267 1067q10 59 -59.5 101t-172.5 42q-238 0 -321 -389l-17 -78h240l-23 -82h-233l-166 -807q-57 -287 -206.5 -462t-352.5 -175q-57 0 -93 31t-26 68z" />
<glyph unicode="&#xfb03;" horiz-adv-x="1857" d="M1384 82q-4 24 -4 50q0 68 25 149l166 647l-116 20l20 62l299 24l-195 -753q-33 -110 -32 -153q0 -46 41 -46q90 0 192 190l41 -18q-55 -121 -157 -200q-86 -67 -169 -66q-15 0 -30 2q-68 6 -81 92zM1661 1348q35 104 138 104q49 0 71 -28q13 -16 13 -39q0 -17 -7 -37 q-14 -51 -50 -80t-87 -29q-47 0 -69 30q-14 18 -14 43q-1 17 5 36zM299 -403q8 33 35.5 55t66.5 22q35 0 65.5 -53t63.5 -53q98 0 191 420l194 954h-135l16 64l136 18l8 37q45 217 169 348t269 131q86 0 151 -35q63 -34 62 -94q0 -43 -33 -74q-31 -29 -73 -30h-5 q-50 0 -67 49q-10 29 -11 64q0 27 7 59q-8 12 -49 12q-70 0 -131.5 -79t-96.5 -249l-30 -139h239l-22 -82h-234l-172 -807q-59 -291 -190 -464t-312 -173q-53 0 -88 31q-27 24 -27 51q1 9 3 17zM-309 -403q8 33 35.5 55t66.5 22q35 0 65.5 -53t63.5 -53q98 0 191 420 l194 954h-135l16 64l136 18l8 37q45 217 169 348t269 131q86 0 151 -35q63 -34 62 -94q0 -43 -33 -74q-31 -29 -73 -30h-5q-50 0 -67 49q-10 29 -11 64q0 27 7 59q-8 12 -49 12q-70 0 -131.5 -79t-96.5 -249l-30 -139h239l-22 -82h-234l-172 -807q-59 -291 -190 -464 t-312 -173q-53 0 -88 31q-27 24 -27 51q1 9 3 17z" />
<glyph unicode="&#xfb04;" horiz-adv-x="1847" d="M1370 82q-4 23 -4 47q0 68 27 152l291 1161l-123 20l23 62l305 24l-322 -1267q-18 -59 -25.5 -97.5t-6.5 -61t11.5 -31.5t28.5 -9q98 0 191 190l41 -18q-51 -121 -153 -200q-86 -67 -169 -66q-15 0 -30 2q-72 6 -85 92zM299 -403q8 33 35.5 55t66.5 22q35 0 65.5 -53 t63.5 -53q98 0 191 420l194 954h-135l16 64l136 18l8 37q45 217 169 348t269 131q86 0 151 -35q63 -34 62 -94q0 -43 -33 -74q-31 -29 -73 -30h-5q-50 0 -67 49q-10 29 -11 64q0 27 7 59q-8 12 -49 12q-70 0 -131.5 -79t-96.5 -249l-30 -139h239l-22 -82h-234l-172 -807 q-59 -291 -190 -464t-312 -173q-53 0 -88 31q-27 24 -27 51q1 9 3 17zM-309 -403q8 33 35.5 55t66.5 22q35 0 65.5 -53t63.5 -53q98 0 191 420l194 954h-135l16 64l136 18l8 37q45 217 169 348t269 131q86 0 151 -35q63 -34 62 -94q0 -43 -33 -74q-31 -29 -73 -30h-5 q-50 0 -67 49q-10 29 -11 64q0 27 7 59q-8 12 -49 12q-70 0 -131.5 -79t-96.5 -249l-30 -139h239l-22 -82h-234l-172 -807q-59 -291 -190 -464t-312 -173q-53 0 -88 31q-27 24 -27 51q1 9 3 17z" />
</font>
</defs>
</svg>
