<?xml version="1.0" standalone="no"?>
<!DOCTYPE svg PUBLIC "-//W3C//DTD SVG 1.1//EN" "http://www.w3.org/Graphics/SVG/1.1/DTD/svg11.dtd" >
<svg xmlns="http://www.w3.org/2000/svg">
<metadata>
This is a custom SVG webfont generated by Font Squirrel.
Copyright   : Generated in 2007 by FontLab Studio Copyright info pending
Designer    : Stefan HattenbachMAC Rhino
Foundry URL : Stefan HattenbachMAC Rhinocom
</metadata>
<defs>
<font id="Serif12BetaBold" horiz-adv-x="1513" >
<font-face units-per-em="2048" ascent="1536" descent="-512" />
<missing-glyph horiz-adv-x="505" />
<glyph unicode=" "  horiz-adv-x="505" />
<glyph unicode="&#x09;" horiz-adv-x="505" />
<glyph unicode="&#xa0;" horiz-adv-x="505" />
<glyph unicode="!" horiz-adv-x="675" d="M195 1315q-4 72 40 118t113 48q68 2 109 -44t39 -122l-88 -875q-2 -31 -65.5 -29.5t-66.5 29.5zM209 96q0 51 40 83t101.5 32t102.5 -32t41 -83q0 -49 -40 -79.5t-104 -30.5q-61 0 -101 30.5t-40 79.5z" />
<glyph unicode="&#x22;" horiz-adv-x="794" d="M145 1389q-2 57 49.5 82.5t102.5 2t47 -84.5l-31 -414h-137zM453 1389q-2 57 49 82.5t102 2t47 -84.5l-30 -414h-138z" />
<glyph unicode="#" horiz-adv-x="1128" d="M70 424l8 88h258l76 422h-299l6 88h309l80 440h92l-80 -440h215l80 440h94l-80 -440h250l-6 -88h-260l-76 -422h299l-6 -88h-307l-76 -424h-94l76 424h-215l-76 -424h-92l76 424h-252zM428 512h215l76 422h-215z" />
<glyph unicode="$" horiz-adv-x="1157" d="M98 2v455l113 2q41 -182 104.5 -263t192.5 -98l47 514q-33 16 -49 27q-225 111 -314.5 216.5t-89.5 254.5q0 164 150.5 267.5t335.5 103.5q31 0 47 -2l16 182h90l-18 -193q131 -20 209 -71l57 67h72v-413h-105q-41 238 -243 299l-43 -478q12 -8 20 -10 q227 -106 326.5 -215.5t99.5 -263.5q0 -184 -152.5 -293.5t-365.5 -109.5h-10l-17 -181h-90l17 189q-139 18 -277 98l-57 -84h-66zM367 1174q0 -80 54 -138.5t163 -117.5l41 448q-10 2 -33 2q-225 1 -225 -194zM598 92q111 0 174.5 57.5t63.5 155.5q0 86 -41 139.5 t-154 118.5z" />
<glyph unicode="%" horiz-adv-x="1769" d="M203 1159q0 137 97 230.5t259 93.5t260.5 -93.5t98.5 -230.5q0 -145 -98.5 -242.5t-260.5 -97.5t-259 98.5t-97 241.5zM401 0l881 1462h109l-879 -1462h-111zM426 1159q0 -250 133 -250t133 250q0 231 -133 231t-133 -231zM885 319q0 137 97 230.5t259 93.5 q160 0 258 -93t98 -231q0 -145 -98 -242t-258 -97q-162 0 -259 98t-97 241zM1108 319q0 -252 133 -251.5t133 251.5q0 231 -133 231t-133 -231z" />
<glyph unicode="&#x26;" horiz-adv-x="1474" d="M82 348q0 139 104.5 259t282.5 173l-41 60q-119 160 -117 331q2 133 104.5 218.5t276.5 85.5q131 0 225.5 -69t94.5 -189q0 -207 -271 -359l215 -303q86 -117 148 -190q31 53 53 106q-4 25 -17.5 69t-13.5 78.5t18.5 58t53.5 23.5q86 0 64 -125q-27 -143 -107 -272 q119 -125 213 -125q47 0 80 45l31 -28q-47 -92 -118 -150.5t-153 -58.5q-119 0 -233 118q-164 -121 -377 -120q-244 0 -380 93t-136 271zM397 379q0 -121 85 -200t229 -79q109 0 207 66q-53 61 -263 358l-137 189q-76 -78 -98.5 -146.5t-22.5 -187.5zM578 1212 q0 -123 124 -297q121 106 121 281q0 199 -135 199q-45 0 -77.5 -48.5t-32.5 -134.5z" />
<glyph unicode="'" horiz-adv-x="403" d="M104 1389q-2 57 49.5 82.5t102.5 2t47 -84.5l-31 -414h-137z" />
<glyph unicode="(" horiz-adv-x="720" d="M133 608q0 201 60.5 399.5t183.5 366.5t287 252l14 -65q-150 -127 -219.5 -397.5t-69.5 -555.5q0 -315 68.5 -598.5t220.5 -412.5l-14 -66q-246 125 -388.5 430t-142.5 647z" />
<glyph unicode=")" horiz-adv-x="720" d="M49 -403q150 127 218.5 395t68.5 557q0 313 -68.5 599t-218.5 413l12 65q246 -125 387.5 -430t141.5 -647q0 -313 -142.5 -604t-386.5 -414z" />
<glyph unicode="*" horiz-adv-x="1032" d="M70 1153l39 109l303 -109l-13 315h119l-10 -313l303 109l35 -111l-311 -86l194 -244l-94 -65l-178 248l-174 -248l-97 65l195 242z" />
<glyph unicode="+" horiz-adv-x="1032" d="M70 559v109h395v356h110v-356h394v-109h-394v-358h-110v358h-395z" />
<glyph unicode="," horiz-adv-x="458" d="M102 -295q131 115 138 258q-51 8 -87 46t-36 83q0 49 33.5 80t87.5 31q59 0 98 -47t39 -123q0 -125 -76 -235.5t-143 -147.5z" />
<glyph unicode="-" horiz-adv-x="927" d="M164 565v183h588v-183h-588z" />
<glyph unicode="." horiz-adv-x="380" d="M41 102.5q0 51.5 42 88t109.5 36.5t110.5 -36.5t43 -88t-43 -84t-110.5 -32.5t-109.5 32.5t-42 84z" />
<glyph unicode="/" horiz-adv-x="989" d="M82 -221l729 1718h94l-731 -1718h-92z" />
<glyph unicode="0" horiz-adv-x="1441" d="M88 731q0 328 171 540t466 212t466 -212t171 -540t-171 -538.5t-466 -210.5t-466 210.5t-171 538.5zM416 731q0 -645 309 -645t309 645t-309 645t-309 -645z" />
<glyph unicode="1" horiz-adv-x="847" d="M98 1219l2 98q233 12 316 145l159 4v-1360l183 -26v-84l-379 4l-279 -4v84l185 22v1117h-187z" />
<glyph unicode="2" horiz-adv-x="1130" d="M84 113q373 377 499 568t126 402q0 137 -55.5 197.5t-176.5 60.5q-92 0 -145 -79q2 -8 18.5 -43t23.5 -60.5t7 -46.5q0 -63 -42 -106t-122 -43q-70 0 -103.5 45t-29.5 104t31 115q74 111 197.5 178.5t260.5 67.5q199 0 328 -90.5t129 -305.5q0 -96 -50 -196.5 t-160.5 -213t-197.5 -188.5t-245 -203l16 -34h576l22 55l78 -2l-43 -295h-934z" />
<glyph unicode="3" horiz-adv-x="1185" d="M58.5 363.5q31.5 89.5 123.5 89.5q74 0 111 -43t37 -100.5t-60 -123.5q20 -41 98 -60.5t156 -19.5q123 0 192.5 79t69.5 202q0 193 -100 254t-330 14l-32 103l-39 73q154 18 251 49t140 74t56 82t13 101q0 88 -54 152.5t-159 64.5q-141 0 -217 -58q4 -4 18.5 -23.5 t19.5 -25.5t13.5 -21.5t11.5 -29.5t3 -31q0 -150 -152 -149q-80 0 -108.5 89t12.5 169q57 106 185 155.5t253 49.5q127 0 234.5 -34t182.5 -116t75 -199q0 -266 -442 -352l6 -41q248 -2 372.5 -103.5t124.5 -252.5q0 -137 -92 -230.5t-226 -131t-298 -37.5q-143 0 -267 56 t-165 130q-49 106 -17.5 195.5z" />
<glyph unicode="4" horiz-adv-x="1259" d="M82 330v88h2l709 1044l202 -2v-930h207l-16 -200h-191v-240l160 -27v-67l-356 4l-252 -4v67l158 23v244h-623zM305 530h400v596z" />
<glyph unicode="5" horiz-adv-x="1175" d="M116 360q42 86 124 86q74 0 109.5 -46t35.5 -111q0 -57 -70 -109q20 -33 69.5 -56.5t113.5 -23.5q154 0 228.5 105.5t74.5 281.5q0 125 -68.5 205t-197.5 80q-158 0 -267 -63l-112 2l92 751h710l37 -311h-67q-16 76 -115 76h-481l-45 -379h4q141 137 338 137 q127 0 222 -45t148.5 -120t79 -158.5t25.5 -172.5q0 -233 -160 -370t-416 -137q-137 0 -254.5 56t-156.5 130q-43 106 -1 192z" />
<glyph unicode="6" horiz-adv-x="1273" d="M92 594q0 401 176 643t443 242q184 0 300.5 -73t114.5 -183q0 -66 -35.5 -102t-91.5 -36q-43 0 -78.5 34t-43.5 83q-2 33 36 148q-41 23 -122 22q-358 0 -371 -717l22 -4q29 117 120 179.5t204 62.5q197 0 310.5 -115.5t113.5 -292.5q0 -213 -151.5 -354t-389.5 -141 q-141 0 -252.5 57t-175 148.5t-96.5 194t-33 204.5zM420 549q2 -90 13 -160t38 -141.5t81 -110.5t132 -39q195 0 195 338q0 317 -217 318q-82 0 -147.5 -53.5t-94.5 -151.5z" />
<glyph unicode="7" horiz-adv-x="1042" d="M23 1147l28 315h969v-102q-160 -201 -254 -426t-121 -403.5t-27 -387.5q0 -156 -126 -155q-147 0 -148 155q0 246 105.5 494t343.5 543l-5 41h-585q-84 0 -119 -76z" />
<glyph unicode="8" horiz-adv-x="1275" d="M82 334q0 119 89 207t237 131l-9 47q-272 158 -272 368q0 164 136 277t360 113q225 0 361 -94.5t136 -233.5q0 -113 -78.5 -195t-212.5 -123l7 -30q346 -174 346 -406q0 -172 -148.5 -290.5t-390.5 -118.5q-252 0 -406.5 100.5t-154.5 247.5zM324 354q0 -276 319 -276 q256 0 256 256q0 186 -305 297q-41 12 -80 31q-190 -85 -190 -308zM408 1149q0 -174 266 -277q10 -4 34.5 -14t39.5 -16q133 86 133 286q0 252 -258 252q-215 0 -215 -231z" />
<glyph unicode="9" horiz-adv-x="1253" d="M72 1006q0 186 154.5 329.5t385.5 143.5q115 0 209 -43t155.5 -114t103.5 -162t60.5 -183t18.5 -184q0 -330 -190.5 -566.5t-438.5 -236.5q-141 0 -243.5 61.5t-134.5 143.5h2l-2 2q-23 72 1.5 136t90.5 64q63 0 90.5 -35.5t27.5 -113.5q0 -66 -55 -121q57 -33 146 -33 q193 0 282.5 150.5t102.5 441.5l-50 4q-76 -135 -249 -135q-215 0 -341 128t-126 323zM362 993q0 -324 218 -323q92 0 166.5 66.5t93.5 183.5q-4 90 -15.5 160.5t-37 140t-77 108.5t-124.5 39q-224 0 -224 -375z" />
<glyph unicode=":" horiz-adv-x="485" d="M72 102.5q0 51.5 42 88t109.5 36.5t110.5 -36.5t43 -88t-43 -84t-110.5 -32.5t-109.5 32.5t-42 84zM72 850q0 51 42 88t109.5 37t110.5 -37t43 -88t-43 -84t-110.5 -33t-109.5 33t-42 84z" />
<glyph unicode=";" horiz-adv-x="501" d="M70 850q0 51 42 88t109.5 37t110.5 -37t43 -88t-43 -84t-110.5 -33t-109.5 33t-42 84zM123 -295q131 115 137 258q-51 8 -87 46t-36 83q0 49 34 80t87 31q59 0 98 -47t39 -123q0 -125 -75.5 -235.5t-143.5 -147.5z" />
<glyph unicode="&#x3c;" horiz-adv-x="903" d="M53 549v96l807 346v-106l-676 -287l676 -279v-114z" />
<glyph unicode="=" horiz-adv-x="1116" d="M92 416v108h940v-108h-940zM92 750v108h940v-108h-940z" />
<glyph unicode="&#x3e;" horiz-adv-x="903" d="M53 205v104l676 289l-676 276v117l807 -344v-96z" />
<glyph unicode="?" horiz-adv-x="1044" d="M102.5 1106q-24.5 82 16.5 154q72 100 189.5 162.5t248.5 62.5q193 0 304.5 -81t111.5 -247q0 -162 -79 -269.5t-278 -209.5v-279q0 -39 -117.5 -39t-117.5 39v234q147 61 225 192t78 271q0 285 -207 284q-121 0 -196 -61q68 -74 67 -145q0 -61 -40 -105.5t-111 -44.5 q-70 0 -94.5 82zM360 96q0 51 40 83t101.5 32t101.5 -32t40 -83q0 -49 -40 -79.5t-101.5 -30.5t-101.5 30.5t-40 79.5z" />
<glyph unicode="@" horiz-adv-x="1890" d="M143 393q0 207 77 380t207 288t299 178.5t355 63.5q358 -2 533.5 -184.5t175.5 -452.5q0 -215 -166 -403.5t-375 -188.5q-197 0 -166 229v6l-30 10q-27 -94 -94.5 -175t-170.5 -81q-127 0 -196.5 99.5t-52.5 247.5q12 135 67.5 241.5t128 163.5t143 87t128.5 30 q98 0 143 -74l29 60h172l-72 -613q-8 -86 3 -108.5t50 -22.5q94 0 184.5 150.5t90.5 304.5q0 242 -129 401.5t-396 161.5q-311 2 -527 -214t-216 -585q0 -266 150.5 -433t422.5 -167q328 0 529 164l24 -61q-229 -211 -585 -211q-229 0 -399.5 99t-253.5 257.5t-83 351.5z M766 430q-18 -229 104 -229q45 0 87 35.5t73 94t49.5 105.5t30.5 92l16 144q10 82 -24.5 118.5t-124.5 36.5q-78 0 -135.5 -94t-75.5 -303z" />
<glyph unicode="A" d="M35 -4v72l129 18q88 195 178 444l334 932h180l500 -1368l151 -26v-72l-309 4l-324 -4v72l152 22l-117 340h-481l-121 -340l148 -22v-72l-224 4zM465 535h409l-202 591z" />
<glyph unicode="B" horiz-adv-x="1355" d="M53 1384l2 78h574q285 0 441.5 -103.5t156.5 -264.5q0 -252 -326 -324l2 -41q412 -43 412 -354q0 -162 -160 -268.5t-440 -106.5h-371l-289 -4v72l156 22v1276zM500 102l2 -2h198h8q156 0 229 82q75 84 75 199q0 57 -14.5 106.5t-49.5 94.5t-103 70q-64 24 -151 24h-14 h-180v-574zM500 795h131q162 6 228.5 89t66.5 203q0 113 -76 193q-74 78 -230 78h-8l-112 -2v-561z" />
<glyph unicode="C" horiz-adv-x="1409" d="M94 733.5q0 186.5 71 336t182.5 235.5t234.5 131t241 45q131 0 241 -40t159 -85l32 108h80v-415h-65q-139 313 -443 313q-180 0 -292.5 -174t-112.5 -453q0 -285 111.5 -459t293.5 -174q305 0 443 316h65v-416h-80l-32 109q-49 -45 -159 -85t-241 -40q-119 0 -241.5 45 t-234 131t-182.5 235.5t-71 336z" />
<glyph unicode="D" horiz-adv-x="1527" d="M51 1384l4 78h615q356 0 565 -206.5t209 -505.5q0 -356 -216 -553t-558 -197h-326l-289 -4v72l154 22v1276zM500 102l153 -2h10q129 0 225 56q99 57 151.5 155.5t77 206t24.5 225.5q0 111 -29 215.5t-87 196.5t-159.5 147.5t-232.5 55.5l-133 -2v-1254z" />
<glyph unicode="E" horiz-adv-x="1386" d="M53 1384l2 78h1151l4 -383h-102l-10 45q-25 98 -101 166q-74 66 -199 66h-7l-271 -2v-574h51h13q245 0 245 152v41h64v-475h-64v41q0 141 -248 141h-14h-47v-576l336 -2q133 0 226.5 65.5t121.5 160.5l13 47l100 -4l-45 -371h-907l-310 -4v72l156 22v1276z" />
<glyph unicode="F" horiz-adv-x="1234" d="M53 1384l2 78h1131l22 -383h-100l-21 64q-39 117 -123 167q-82 48 -231 48h-12l-221 -4v-574h139h13q243 0 243 152v41h63v-475h-63v41q0 141 -246 141h-14h-135v-586l159 -16v-82l-315 4l-289 -4v72l156 22v1276z" />
<glyph unicode="G" horiz-adv-x="1560" d="M94 733.5q0 186.5 73 336t187.5 235.5t241.5 131t248 45q131 0 237.5 -40t153.5 -85l31 108h88v-436h-68q-96 332 -438 332q-190 0 -308 -173t-118 -452v-4q0 -281 111.5 -454t293.5 -173q74 0 131.5 16.5t88 39t51 49.5t26.5 45t6 31v254l-159 39v61l315 -6l244 6v-57 l-109 -39v-305h2l4 -246l-112 -4l-43 104q-203 -106 -449 -106q-119 0 -241.5 45t-234 131t-182.5 235.5t-71 336z" />
<glyph unicode="H" horiz-adv-x="1646" d="M53 1384l2 78l285 -4l330 4v-78l-150 -18v-584h621v584l-154 18l2 78l324 -4l289 4v-78l-148 -18v-1272l150 -26v-72l-287 4l-328 -4v72l152 22v559h-621v-555l152 -26v-72l-328 4l-289 -4v72l156 22v1276z" />
<glyph unicode="I" horiz-adv-x="784" d="M94 1384l2 78l297 -6l299 6v-78l-149 -18v-1272l151 -26v-72l-297 4l-301 -4v72l156 22v1276z" />
<glyph unicode="J" horiz-adv-x="1017" d="M49 106q0 53 30 94.5t77 41.5q45 0 75.5 -33t65.5 -66.5t84 -33.5q143 0 143 307v950l-151 18l2 78l284 -6l312 6v-78l-156 -22l-2 -799q0 -260 -141.5 -417.5t-403.5 -157.5q-117 0 -168 33.5t-51 84.5z" />
<glyph unicode="K" horiz-adv-x="1531" d="M53 1384l2 78l285 -6l311 6v-78l-151 -18v-661l583 638l-4 33l-143 8l4 78l281 -4l233 4v-76l-164 -18l-469 -491l600 -779l115 -28l-2 -72l-213 2l-412 -2v70l119 24l-2 23l-414 542l-112 -118v-445l153 -26v-72l-309 4l-289 -4v72l156 22v1276z" />
<glyph unicode="L" horiz-adv-x="1243" d="M53 1384l2 78l285 -6l332 6v-78l-152 -18v-1264h244h13q150 0 224 46q78 48 109 192l14 63h99l-31 -403h-848l-289 -4v72l156 22v1276z" />
<glyph unicode="M" horiz-adv-x="1964" d="M37 -4v72l151 22q18 393 21 602l4 557q0 41 -12.5 66.5t-41 39t-49 18.5t-63.5 11l2 78h428l559 -1061l486 1061h399v-78l-147 -18v-1272l149 -26v-72l-307 4l-289 -4v72l154 22v1057l-525 -1147h-49l-598 1155l4 -463l19 -598l168 -26v-72l-224 4z" />
<glyph unicode="N" horiz-adv-x="1603" d="M53 -4v72l162 22q14 264 14 596v590q0 33 -8 53.5t-28.5 30.5t-35 13t-48 6t-48.5 5l2 78h390l823 -1024v393q0 156 -4 289t-8 187l-4 55l-177 27v73l213 -4l260 4v-73l-141 -23q-14 -178 -14 -530l-2 -836h-148l-901 1108v-418l12 -596l170 -26v-72l-215 4z" />
<glyph unicode="O" horiz-adv-x="1624" d="M94 731.5q0 325.5 200 538.5t525.5 213t523 -213t197.5 -538.5t-197.5 -537.5t-523 -212t-525.5 212t-200 537.5zM424 731q0 -287 95 -457t300 -170t299 170t94 457q0 285 -95 456t-298 171q-137 0 -228 -85t-129 -221.5t-38 -320.5z" />
<glyph unicode="P" horiz-adv-x="1316" d="M53 1384l2 78h588q297 0 469 -124t172 -306q0 -217 -179 -331.5t-462 -114.5h-133v-492l154 -26v-72l-310 4l-299 -4v72l156 22v1276zM510 686h139q332 0 332 340q0 133 -87 230q-85 95 -262 96h-7h-115v-666z" />
<glyph unicode="Q" horiz-adv-x="1626" d="M94 731q0 326 200 539t525.5 213t523 -213t197.5 -539q0 -272 -142.5 -470t-387.5 -257l-164 -94q86 -23 152.5 -75t123 -89t131.5 -37q98 0 168 45q4 4 10.5 19.5t17.5 27t34 11.5q29 0 39 -27t-9 -39q-63 -63 -177.5 -133t-202.5 -70q-92 0 -168 31t-120 71t-104.5 86 t-111.5 68q-14 6 -32 6q-44 0 -108 -38q-32 37 -32 60q0 33 63 42l266 115q-313 10 -502.5 220t-189.5 527zM424 731q0 -287 95 -457t300 -170t299 170t94 457q0 285 -95 456t-298 171q-137 0 -228 -85t-129 -221.5t-38 -320.5z" />
<glyph unicode="R" horiz-adv-x="1470" d="M53 1384l2 78h584q285 0 441.5 -102.5t156.5 -265.5q0 -274 -354 -342l6 -45q176 -4 270 -91.5t94 -216.5v-75q0 -231 90 -232q14 0 27.5 8.5t29 27.5t17.5 22l41 -44q-39 -66 -96 -92t-152 -26q-133 0 -199.5 88t-66.5 246v79q0 104 -42 188.5t-118 84.5h-274v-580 l154 -26v-72l-310 4l-299 -4v72l156 22v1276zM510 768h113h13q87 0 147 25q65 27 94.5 78t40 101t10.5 115q0 113 -73 193q-71 78 -223 78h-7h-115v-590z" />
<glyph unicode="S" horiz-adv-x="1212" d="M98 2v455l113 2q47 -209 127 -288t260 -79q111 0 174.5 57.5t63.5 155.5q0 104 -62.5 163.5t-267.5 170.5q-225 111 -314.5 216.5t-89.5 254.5q0 164 150.5 267.5t335.5 103.5q219 0 344 -84l57 67h72v-413h-105q-27 158 -125 237.5t-239 79.5q-225 0 -225 -194 q0 -98 76.5 -162t246.5 -150q227 -106 326.5 -215.5t99.5 -263.5q0 -184 -152.5 -293.5t-365.5 -109.5q-188 0 -377 106l-57 -84h-66z" />
<glyph unicode="T" horiz-adv-x="1355" d="M29 1069l22 393h1262l22 -393h-100l-21 61q-37 113 -94 170q-55 55 -160 56h-8h-114v-1266l155 -18l-2 -76l-293 6l-301 -6v76l148 18v1266h-129h-8q-107 0 -162 -57q-57 -58 -94 -169l-21 -61h-102z" />
<glyph unicode="U" horiz-adv-x="1550" d="M53 1384l2 78l291 -6l309 6v-78l-149 -18v-917q0 -156 91 -234t251 -78q182 0 281.5 83t99.5 249l-2 897l-150 18v78l228 -6l192 6l2 -78l-153 -18v-901q0 -229 -153 -349t-409 -120q-236 0 -405.5 117.5t-169.5 330.5v922z" />
<glyph unicode="V" horiz-adv-x="1449" d="M27 1386v74l299 -4l297 4v-74l-152 -22l375 -1010l295 1010l-150 22v74l254 -4l187 4v-74l-142 -26l-461 -1360h-155l-504 1360z" />
<glyph unicode="W" horiz-adv-x="2080" d="M27 1386l4 78l278 -4l340 2v-80l-170 -22l-2 -19l244 -888l330 1009h180l379 -1018l176 904v16l-187 27v69l254 -4l213 4v-74l-141 -28l-309 -1358h-131l-418 1100l-389 -1100h-133l-385 1352z" />
<glyph unicode="X" horiz-adv-x="1462" d="M14 -6v72l121 26l461 600l-426 674l-131 27v73l287 -4l323 4v-73l-157 -23l274 -450l332 450l-140 23v73l222 -4l217 4v-73l-123 -27l-445 -555l19 -27l450 -692l129 -26v-72l-282 4l-311 -4v72l141 22l-313 498l-353 -498l144 -22v-72l-230 4z" />
<glyph unicode="Y" horiz-adv-x="1423" d="M29 1393v73l266 -4l313 4v-73l-133 -23v-20l350 -562l283 551v29l-141 23v75l266 -4l172 4v-75l-121 -27l-410 -723v-547l152 -26v-72l-309 4l-285 -4v72l150 22v563l-424 713z" />
<glyph unicode="Z" horiz-adv-x="1310" d="M82 -2v80l766 1276h-273q-113 0 -211 -60.5t-118 -163.5l-8 -67l-105 4l25 395h1036v-51l-770 -1302l412 2q147 0 237 83q76 70 76 138q0 12 -2 24l-14 70l104 -2l-12 -426h-1143z" />
<glyph unicode="[" horiz-adv-x="737" d="M274 -309v1894h402v-61l-187 -19v-1730l189 -27v-57h-404z" />
<glyph unicode="\" horiz-adv-x="989" d="M82 1497h108l730 -1718h-109z" />
<glyph unicode="]" horiz-adv-x="737" d="M86 1528v57h403v-1894h-401v61l186 19v1730z" />
<glyph unicode="^" horiz-adv-x="696" d="M70 885l233 571h98l232 -571h-119l-170 436l-158 -436h-116z" />
<glyph unicode="_" horiz-adv-x="1032" d="M70 -88h899v-88h-899v88z" />
<glyph unicode="`" horiz-adv-x="602" d="M127 1395q4 35 50 67.5t81 24.5q37 -8 53 -39l162 -256l-82 -59l-237 196q-33 33 -27 66z" />
<glyph unicode="a" horiz-adv-x="1146" d="M98 225q0 119 123 211t320 129l139 27v137q0 211 -162 211q-129 0 -188 -57q37 -41 37 -82q0 -125 -123 -125q-49 0 -76 28.5t-27 71.5q2 82 78 145.5t171 93t181 29.5q190 0 293 -74.5t103 -250.5v-518q0 -41 10 -59.5t39 -18.5q55 0 78 27l28 -44q-41 -51 -113 -87 q-62 -31 -133 -30q-12 0 -24 1q-160 14 -172 139l-41 4q-74 -145 -303 -145q-113 0 -175.5 67.5t-62.5 169.5zM387 268q0 -123 100 -123q66 0 120.5 35t72.5 94v232l-125 -35q-168 -49 -168 -203z" />
<glyph unicode="b" horiz-adv-x="1257" d="M18 1407l5 98l411 25v-678l43 -10q82 203 281 202q195 0 310.5 -152.5t115.5 -367.5q1 -16 1 -31q0 -184 -134 -332q-145 -161 -402 -161q-158 0 -313 104l-135 -110l-70 8q16 152 16 291v1075zM434 307q8 -100 60.5 -139t158.5 -39q82 0 137.5 63.5t75 147.5t19.5 184 q0 150 -53.5 247t-153.5 97q-96 0 -169 -55t-75 -137v-369z" />
<glyph unicode="c" horiz-adv-x="1060" d="M82 479q0 221 142.5 393t375.5 172q248 0 344 -141q29 -38 29 -85q0 -27 -9 -56q-26 -82 -110 -82q-57 0 -86 37t-29 90q0 31 29 94q-27 37 -106 37q-281 0 -281 -438q0 -166 70.5 -271.5t212.5 -105.5q109 0 174 31.5t106 113.5l66 -24q-45 -117 -158 -190.5t-252 -73.5 q-250 0 -384 152t-134 347z" />
<glyph unicode="d" horiz-adv-x="1271" d="M82 494q0 102 35 198t100.5 176t174 128t243.5 48q123 0 213 -77v401l-129 39l4 82l414 24v-1370l137 -39v-71l-402 -45l-16 190l-43 8q-84 -207 -295 -206q-199 0 -317.5 155.5t-118.5 358.5zM381 494q0 -141 48 -238.5t146.5 -97.5t178.5 47t94 121v407 q-6 74 -58.5 127t-158.5 53q-137 0 -193.5 -105t-56.5 -314z" />
<glyph unicode="e" horiz-adv-x="1110" d="M82 483q0 137 56.5 262t177 212t282.5 87q182 0 307 -99t125 -302v-108l-649 2v-54q0 -150 74.5 -262t218.5 -112q209 0 311 141l57 -39q-63 -106 -178.5 -168.5t-271.5 -62.5q-162 0 -282 78.5t-174 191t-54 233.5zM385 627h367q0 178 -37 244.5t-121 66.5 q-98 0 -147.5 -76.5t-61.5 -234.5z" />
<glyph unicode="f" horiz-adv-x="690" d="M18 59l160 21v846h-141v69l141 15v51q0 190 120 317t337 127q90 0 160.5 -34.5t87.5 -98.5q6 -18 5 -35q0 -28 -14 -56q-23 -46 -79 -46q-82 0 -113 49q-19 31 -19 65q0 20 7 42q-20 12 -60 12q-145 0 -145 -240v-139h215v-98h-215v-842l160 -25l-2 -65l-291 6l-309 -6z " />
<glyph unicode="g" horiz-adv-x="1159" d="M18 -283q0 147 234 199l2 49q-125 50 -125 167q0 118 145 187l-2 43q-195 98 -194 306q0 156 131 266t344 110q80 0 166 -20h387l8 -109h-174l-6 -16q94 -98 94 -231q0 -158 -130 -262.5t-345 -104.5q-98 0 -164 16q-70 -39 -70 -88q0 -45 40 -68q37 -22 92 -22h10 l190 -2q262 -2 375 -78.5t113 -216.5q0 -160 -173 -267t-415 -107q-211 0 -372 66t-161 183zM268 -286.5q0 -59.5 79 -101.5q75 -40 192 -40h12q139 2 233.5 62.5t94.5 160.5q0 61 -68 98t-205 39l-172 -2l-55 4q-55 -43 -80 -78.5t-28 -59t-3 -83zM381 668 q0 -141 38 -200.5t134 -59.5t134 59t38 201q0 135 -39 200.5t-133 65.5t-133 -64.5t-39 -201.5z" />
<glyph unicode="h" horiz-adv-x="1314" d="M27 59l151 21v1272l-129 37l4 100l412 24v-696l43 -6q39 109 121 171t182 62q152 0 243 -78.5t91 -244.5v-637l151 -25l-2 -65l-282 6l-299 -6l-4 65l151 21v639q0 90 -33.5 130t-109.5 40q-96 0 -172 -88t-80 -219v-498l151 -25l-2 -65l-303 6l-280 -6z" />
<glyph unicode="i" horiz-adv-x="641" d="M18 59l160 21v792l-129 37l4 101l410 24v-950l164 -25l-2 -65l-293 6l-307 -6zM156 1345.5q0 53.5 44 89t124 35.5q78 0 120.5 -35.5t42.5 -89t-44 -91t-119 -37.5q-80 0 -124 37.5t-44 91z" />
<glyph unicode="j" horiz-adv-x="663" d="M-195 -352q0 49 35 84t97 35q43 0 92 -61.5t106 -61.5q43 0 61.5 69.5t18.5 243.5v915l-129 37l4 101l412 24v-932q0 -266 -117 -419.5t-362 -153.5q-90 0 -154 37t-64 82zM180 1345.5q0 53.5 44 89t124 35.5q68 0 106 -35.5t38 -89t-39 -91t-105 -37.5q-80 0 -124 37.5 t-44 91z" />
<glyph unicode="k" horiz-adv-x="1271" d="M27 59l151 21v1272l-129 37l4 100l412 24v-997l352 381l-4 33l-135 8l4 84l276 -4l228 4v-82l-162 -18l-279 -269l414 -565l117 -29l-2 -63l-256 4l-303 -2v61l110 23l-2 14l-272 369l-86 -84v-297l125 -25l-2 -65l-256 6l-301 -6z" />
<glyph unicode="l" horiz-adv-x="641" d="M27 57l151 21v1274l-129 37l4 100l412 24v-1431l153 -25l-2 -63l-284 6l-299 -6z" />
<glyph unicode="m" horiz-adv-x="1939" d="M27 59l151 21v792l-129 37l4 101l410 24v-215l43 -8q33 106 117 169.5t180 63.5q295 0 336 -210l43 -9q51 104 113.5 161.5t158.5 57.5q156 0 248 -78.5t92 -244.5v-637l131 -25l-2 -65l-283 6l-258 -6l-4 65l129 21v659q0 80 -32.5 115t-108.5 35q-86 0 -146.5 -68.5 t-74.5 -173.5v-563l131 -25l-2 -65l-262 6l-279 -6l-4 65l131 21v680q0 70 -33.5 99.5t-109.5 29.5q-98 0 -175 -92t-77 -228l-2 9l2 -494l131 -25l-2 -65l-283 6l-280 -6z" />
<glyph unicode="n" horiz-adv-x="1312" d="M27 59l151 21v792l-129 37l4 101l410 24v-221h45q37 109 120 170t183 61q152 0 242 -78.5t90 -244.5v-637l151 -25l-2 -65l-282 6l-293 -6l-4 65l145 21v659q0 80 -33.5 115t-109.5 35q-96 0 -172 -88t-80 -219v-498l153 -25l-2 -65l-303 6l-280 -6z" />
<glyph unicode="o" horiz-adv-x="1275" d="M92 512q0 227 149.5 379.5t399.5 152.5q252 0 401.5 -152.5t149.5 -379.5t-149.5 -378.5t-401.5 -151.5q-250 0 -399.5 151.5t-149.5 378.5zM395 512q0 -412 246 -412q248 0 248 412q0 410 -248 410q-246 0 -246 -410z" />
<glyph unicode="p" horiz-adv-x="1304" d="M29 -408l149 21v1227l-139 55v94l403 45l15 -209h39q37 96 124 156.5t187 60.5q197 0 310.5 -154.5t113.5 -359.5q0 -219 -140.5 -385t-396.5 -166q-137 0 -229 80v-440l153 -25l-2 -67l-264 6l-319 -6zM465 291q0 -78 56.5 -131.5t176.5 -53.5q129 0 182.5 105.5 t53.5 316.5q0 147 -50 251t-151 104q-96 0 -175 -65.5t-93 -166.5v-360z" />
<glyph unicode="q" horiz-adv-x="1310" d="M84 489q-1 16 -1 33q0 116 51 222q58 122 190.5 206t312.5 84q131 0 262 -110l186 116l70 -8q-14 -106 -14 -291v-1128l151 -25l-2 -67l-307 6l-276 -6l-5 67l150 21v577h-45q-35 -90 -103.5 -143t-152.5 -53q-213 0 -340 146t-127 353zM383 489q0 -143 52 -234t153 -91 q106 0 185 67.5t79 167.5v373q-23 131 -219 131q-90 0 -148.5 -67.5t-80 -156t-21.5 -190.5z" />
<glyph unicode="r" horiz-adv-x="927" d="M27 59l151 21v792l-129 37l4 101l365 24v-229l53 -10q31 104 107.5 174.5t189.5 70.5q70 0 110 -37.5t40 -101.5q0 -61 -34 -106t-98 -45q-31 0 -75.5 26.5t-61.5 48.5q-176 -47 -186 -237l2 -504l151 -25l-2 -65l-282 6l-301 -6z" />
<glyph unicode="s" horiz-adv-x="952" d="M94 754q0 139 117 212.5t270 73.5q86 0 161 -36.5t110 -71.5l22 92h72v-317h-62q-27 106 -118 178.5t-203 72.5q-70 0 -97.5 -27.5t-29.5 -78.5q0 -31 19.5 -59.5t63.5 -56t74.5 -44t88.5 -43.5q166 -76 236.5 -157.5t70.5 -186.5q0 -154 -111.5 -241t-267.5 -87 q-98 0 -187.5 42t-127.5 85l-23 -104h-63v344l61 2q92 -285 358 -285q113 0 113 117q0 55 -74.5 121t-163.5 111q-178 84 -243.5 162t-65.5 182z" />
<glyph unicode="t" horiz-adv-x="782" d="M27 915v64l139 29v258l287 34v-276h252v-109h-252v-610q0 -147 110 -153q10 -1 19 -1q87 0 137 70l35 -55q-129 -170 -322 -172h-5q-91 0 -174 64q-85 67 -85 208l-2 649h-139z" />
<glyph unicode="u" horiz-adv-x="1288" d="M27 924l2 100l432 20v-765q0 -84 32.5 -118t108.5 -34q98 0 176 92t78 227v437l-151 41l2 100l436 20v-938l129 -20l-4 -78l-402 -24l8 211l-51 10q-31 -104 -118 -168t-189 -64q-340 0 -340 322v588z" />
<glyph unicode="v" horiz-adv-x="1185" d="M6 967l2 61l277 -4l266 2v-65l-119 -23l2 -23l281 -616l176 619l-10 16l-131 29v61l223 -4l213 4v-66l-142 -28l-342 -930h-159l-416 932z" />
<glyph unicode="w" horiz-adv-x="1636" d="M20 956l3 70l276 -4l254 2v-78l-123 -22l2 -19l154 -536l223 655h143l269 -711l137 596l8 17l-154 26v70l199 -4l203 4v-74l-133 -28l-254 -920h-160l-260 678l-246 -678h-141l-281 922z" />
<glyph unicode="x" horiz-adv-x="1187" d="M29 965l2 61l297 -4l266 2v-59l-133 -29l2 -23l188 -262l187 264v17l-140 22v68l201 -4l213 4v-66l-115 -28l-299 -342l359 -496l110 -35l-2 -59l-235 4l-328 -2v63l131 23l-2 22l-211 293l-207 -295v-16l129 -22v-66l-190 4l-213 -4v63l113 29l323 371l-336 467z" />
<glyph unicode="y" horiz-adv-x="1183" d="M-8 967l2 61l276 -4l267 2v-65l-119 -23l2 -23l280 -616l177 619l-11 16l-131 29v61l223 -4l213 4v-66l-141 -28l-309 -840h12l-115 -315q-49 -135 -125.5 -195.5t-158.5 -60.5q-164 0 -195 110q-4 13 -3 26q0 31 22 60q31 41 90 41q18 0 33.5 -1t30 -5t22.5 -6t20.5 -10 t15.5 -9t15 -12l14 -12q41 0 63.5 17.5t45.5 58.5l76 223h-56l-415 932z" />
<glyph unicode="z" horiz-adv-x="995" d="M51 0v80l537 835v9h-250q-127 0 -174 -222l-78 5l23 317h821v-51l-541 -862v-7h332q57 0 94 34t52.5 72t29.5 93q2 12 4 19h66l-11 -322h-905z" />
<glyph unicode="{" horiz-adv-x="714" d="M49 573v33q190 47 144 432q-33 268 75.5 408.5t345.5 179.5l15 -65q-137 -66 -183.5 -181.5t-19.5 -341.5q14 -121 -34 -266t-159 -182q111 -37 159 -182.5t34 -266.5q-27 -225 19.5 -340.5t183.5 -181.5l-15 -65q-238 39 -346 179t-75 408q42 387 -144 432z" />
<glyph unicode="|" horiz-adv-x="528" d="M219 -344v1841h94v-1841h-94z" />
<glyph unicode="}" horiz-adv-x="714" d="M92 -381q135 66 181 182.5t20 339.5q-16 121 33 266.5t159 182.5q-111 37 -160 182.5t-32 265.5q27 223 -19.5 340t-181.5 183l12 65q238 -39 346.5 -179t77.5 -409q-47 -387 142 -432v-33q-193 -47 -142 -432q31 -268 -77.5 -408.5t-346.5 -178.5z" />
<glyph unicode="~" horiz-adv-x="1411" d="M84 508q29 158 142.5 265.5t250.5 107.5q217 0 350 -203q29 -39 52.5 -63.5t72.5 -47t109 -22.5q61 0 110.5 36.5t71.5 106.5q-4 6 -18.5 25.5t-22.5 34t-10 30.5q0 37 21.5 65.5t60.5 28.5q37 0 54.5 -39.5t6.5 -84.5q-27 -154 -144.5 -263.5t-244.5 -109.5 q-221 0 -377 203q-4 4 -19 23.5t-22.5 26.5t-23 23.5t-28.5 23.5t-31.5 16t-40 13.5t-46.5 4.5q-57 0 -106 -37t-74 -107q49 -72 51 -88q-2 -39 -23.5 -66.5t-60.5 -27.5t-55 39t-6 86z" />
<glyph unicode="&#xa1;" horiz-adv-x="675" d="M168 -293q-2 -76 39 -122t108 -44q70 2 114 48t40 118l-82 875q-2 29 -65.5 29.5t-65.5 -29.5zM170 926q0 49 40 79.5t103 30.5q61 0 101.5 -30.5t40.5 -79.5q0 -51 -40 -83t-101.5 -32t-102.5 32t-41 83z" />
<glyph unicode="&#xa2;" horiz-adv-x="1036" d="M61 479q0 221 142.5 393t376.5 172q25 0 38 -2l27 230l80 -2l-27 -238q158 -31 226 -129q45 -59 19.5 -141t-109.5 -82q-57 0 -86 37t-29 90q0 31 29 94q-16 25 -62 33l-90 -807q29 -4 47 -4q109 0 174.5 31.5t106.5 113.5l65 -24q-45 -117 -157.5 -190.5t-251.5 -73.5 l-23 -201h-88l25 207q-209 27 -321 172t-112 321zM360 500q0 -260 152 -346l92 782q-244 -28 -244 -436z" />
<glyph unicode="&#xa3;" horiz-adv-x="1210" d="M80 63q23 14 80 41q49 74 64.5 201t6.5 352h-135l-8 93h139q-2 12 -2 41l-6 122q-12 229 93.5 395.5t320.5 166.5q195 0 305 -84l23 71h63v-338h-51q-63 244 -283 244q-123 0 -158.5 -94t-23.5 -313l10 -119q2 -33 2 -92h389l9 -93h-402q-20 -301 -176 -489q74 20 129 25 q119 4 281.5 -49.5t183.5 -53.5q41 0 83 16.5t42 30.5q-39 47 -39 101q0 88 86 88q63 0 63 -99q0 -82 -111.5 -184t-252.5 -102q-66 -2 -185.5 30.5t-175.5 34.5q-61 2 -61 4l-272 -26z" />
<glyph unicode="&#xa5;" horiz-adv-x="1392" d="M29 1393v73l266 -4l313 4v-73l-133 -23v-20l350 -562l283 551v29l-141 23v75l266 -4l172 4v-75l-121 -27l-393 -692h283v-76h-300v-158h300v-76h-300v-268l152 -26v-72l-309 4l-285 -4v72l150 22v272h-328v76h328v158h-328v76h315l-411 694z" />
<glyph unicode="&#xa6;" horiz-adv-x="528" d="M219 -344v784h94v-784h-94zM219 772v725h94v-725h-94z" />
<glyph unicode="&#xa7;" horiz-adv-x="1148" d="M72 473q0 121 73.5 206t186.5 128q-174 133 -174 323q0 158 131 250.5t284 92.5q102 0 184.5 -30t119.5 -67l22 82h53v-364h-45q-29 131 -118 207.5t-211 76.5q-211 0 -211 -149q0 -39 18 -74t56 -64.5t73 -51t94.5 -54.5t91.5 -53q193 -109 278 -201t85 -237 q0 -127 -81 -205t-216 -105q231 -156 231 -352q0 -158 -122.5 -246t-299.5 -88q-197 0 -348 121l-16 -100h-51v383l49 2q49 -164 128 -234.5t232 -70.5q186 0 187 163q0 35 -8.5 65t-30 56.5t-36.5 45t-51 41t-52.5 32.5t-60.5 33.5t-54 30.5q-211 94 -301 186t-90 221z M303 575q0 -35 17.5 -67.5t38 -57t63.5 -55t69.5 -47t83 -48.5t76.5 -44l58 -35q135 31 135 160q0 39 -17.5 76t-41 63.5t-64.5 56t-68.5 46t-76 42t-66.5 35.5q-53 25 -115 62q-92 -44 -92 -187z" />
<glyph unicode="&#xa8;" horiz-adv-x="980" d="M135 1391q0 41 33 70.5t86 29.5t88 -29.5t35 -70.5t-34 -67t-89 -26q-53 0 -86 26t-33 67zM573 1389q0 41 33 70.5t86 29.5t88 -29.5t35 -70.5t-33.5 -67t-89.5 -26q-53 0 -86 26t-33 67z" />
<glyph unicode="&#xaa;" horiz-adv-x="933" d="M92 901q0 90 75 143.5t265 83.5l119 21v84q0 84 -32 123t-103.5 39t-114.5 -47q31 -53 31 -82q0 -35 -25.5 -54.5t-60.5 -19.5q-55 0 -74.5 52t12.5 91q47 68 121 106t154 38q276 0 276 -254v-328q0 -86 39 -86q45 0 72 35l22 -15q-27 -43 -79 -69.5t-115 -24.5 q-123 12 -123 125v10q-27 -63 -87.5 -99t-135.5 -36q-109 0 -172.5 47t-63.5 117zM279 926q0 -74 94 -74q135 0 178 102v131l-109 -20q-163 -37 -163 -139z" />
<glyph unicode="&#xab;" horiz-adv-x="1001" d="M113 381v33l309 387l72 -25l-203 -381l203 -383l-72 -18zM510 381v33l309 387l72 -25l-203 -381l203 -383l-72 -18z" />
<glyph unicode="&#xad;" horiz-adv-x="927" d="M164 565v183h588v-183h-588z" />
<glyph unicode="&#xaf;" horiz-adv-x="925" d="M113 1356v106h706v-106h-706z" />
<glyph unicode="&#xb0;" horiz-adv-x="620" d="M82 1253.5q0 94.5 66.5 159t164.5 64.5q96 0 164 -64.5t68 -159t-67.5 -159t-164.5 -64.5q-98 0 -164.5 64.5t-66.5 159zM150 1253.5q0 -63.5 48 -109.5t115 -46q66 0 114 46t48 109.5t-48 109.5t-114 46q-68 0 -115.5 -46t-47.5 -109.5z" />
<glyph unicode="&#xb1;" horiz-adv-x="1032" d="M70 559v109h395v356h110v-356h394v-109h-394v-358h-110v358h-395zM70 90h899v-88h-899v88z" />
<glyph unicode="&#xb2;" horiz-adv-x="776" d="M84 1205.5q-18 56.5 10 103.5q119 176 314 176q150 0 237.5 -62.5t87.5 -185.5q0 -109 -101.5 -213t-305.5 -242h395l16 41l31 -2l-29 -229h-635l-2 65q233 213 314.5 343t81.5 253q0 51 -36 83t-108 32q-76 0 -151 -49q4 -8 17 -28.5t18.5 -34t5.5 -29.5 q0 -31 -25.5 -54.5t-66.5 -23.5q-50 0 -68 56.5z" />
<glyph unicode="&#xb3;" horiz-adv-x="858" d="M79.5 828q24.5 46 84.5 46q37 0 56.5 -21.5t19.5 -51.5q0 -37 -17 -60q10 -29 67.5 -45t86.5 -16q197 0 196 164q0 160 -278 123l-37 71l-14 21q188 29 241.5 78t53.5 137q0 35 -45 72.5t-113 37.5q-57 0 -117 -41q12 -53 12 -69q0 -76 -90 -76q-55 0 -71.5 46t12.5 91 q41 74 133 111t182 37q133 0 231.5 -53.5t98.5 -159.5q0 -166 -305 -219l4 -13q166 0 255 -59t89 -139q0 -127 -122 -188.5t-296 -61.5q-102 0 -192 41t-117 92q-33 59 -8.5 105z" />
<glyph unicode="&#xb4;" horiz-adv-x="602" d="M162 1192l162 256q16 31 53 39q35 8 82 -23.5t49 -64.5q6 -35 -29 -66l-246 -196z" />
<glyph unicode="&#xb5;" horiz-adv-x="1308" d="M53 -420l152 21v1273l-129 37v7l-21 6l2 100l432 20v-8h3v-796q6 -61 38.5 -87t100.5 -26q98 0 176 92t78 227v437l-152 41l2 100l436 20v-938l129 -20l-4 -78l-401 -24l8 211l-51 10q-31 -104 -118 -168t-189 -64q-10 0 -27.5 1t-25.5 1v-370l153 -25l-2 -63l-285 6 l-299 -6z" />
<glyph unicode="&#x3bc;" horiz-adv-x="1308" d="M53 -420l152 21v1273l-129 37v7l-21 6l2 100l432 20v-8h3v-796q6 -61 38.5 -87t100.5 -26q98 0 176 92t78 227v437l-152 41l2 100l436 20v-938l129 -20l-4 -78l-401 -24l8 211l-51 10q-31 -104 -118 -168t-189 -64q-10 0 -27.5 1t-25.5 1v-370l153 -25l-2 -63l-285 6 l-299 -6z" />
<glyph unicode="&#xb6;" horiz-adv-x="1116" d="M72 1053q0 180 177 294.5t480 114.5h387l2 -69l-149 -19v-1292l147 -23v-63l-147 4h-183l-254 -4v63l146 27v535q-264 10 -435 124.5t-171 307.5zM375 1047q0 -139 70.5 -237.5t232.5 -107.5v664q-154 -16 -228.5 -105t-74.5 -214zM764 74l117 4v543h-117v-547zM764 702 h117v668h-117v-668z" />
<glyph unicode="&#xb7;" horiz-adv-x="442" d="M41 633q0 51 42 88t109.5 37t110.5 -37t43 -88t-43 -84t-110.5 -33t-109.5 33t-42 84z" />
<glyph unicode="&#xb8;" horiz-adv-x="1036" d="M416 -442h29q19 0 66.5 6t84.5 17t66.5 37t29.5 63q0 78 -117 77q-61 0 -126 -20l-19 18l78 295h102l-43 -157q49 18 107 18q86 0 140 -44t54 -122q0 -86 -46 -146.5t-112.5 -85t-132 -37t-110.5 -9.5h-47z" />
<glyph unicode="&#xb9;" horiz-adv-x="600" d="M84 1298v64q160 8 219 104h150v-794l131 -19v-78l-240 5l-238 -5v78l130 15v630h-152z" />
<glyph unicode="&#xba;" horiz-adv-x="892" d="M92 1118q0 156 97.5 260.5t259 104.5t259 -104.5t97.5 -260.5q0 -164 -97.5 -272.5t-259 -108.5t-259 108.5t-97.5 272.5zM295 1118q0 -301 153.5 -301t153.5 301q0 283 -153.5 283t-153.5 -283z" />
<glyph unicode="&#xbb;" horiz-adv-x="1001" d="M113 18l204 381l-204 383l71 19l310 -387v-33l-310 -387zM510 18l205 381l-205 383l72 19l309 -387v-33l-309 -387z" />
<glyph unicode="&#xbc;" horiz-adv-x="1728" d="M162 1298v64q160 8 219 104h149v-794l132 -19v-78l-240 5l-238 -5v78l129 15v630h-151zM340 0l911 1462h127l-913 -1462h-125zM834 225v47h2l544 619l115 -2v-580h135v-84h-135v-149l113 -19v-57l-224 4l-221 -4v57l113 17v151h-442zM969 309h307v340z" />
<glyph unicode="&#xbd;" horiz-adv-x="1845" d="M162 1298v64q160 8 219 104h149v-794l132 -19v-78l-240 5l-238 -5v78l129 15v630h-151zM330 0l911 1462h127l-913 -1462h-125zM1030.5 611.5q-18.5 56.5 9.5 103.5q119 176 314 176q150 0 237.5 -62.5t87.5 -185.5q0 -109 -101 -213t-306 -242h395l16 41l31 -2l-28 -229 h-635l-2 65q233 213 314 343.5t81 252.5q0 51 -36 83t-108 32q-76 0 -151 -49q4 -8 17.5 -28.5t18.5 -34t5 -29.5q0 -31 -25.5 -54.5t-66.5 -23.5q-49 0 -67.5 56.5z" />
<glyph unicode="&#xbe;" horiz-adv-x="1990" d="M186.5 828q24.5 46 83.5 46q37 0 56.5 -21.5t19.5 -51.5q0 -37 -16 -60q10 -29 67.5 -45t85.5 -16q197 0 197 164q0 160 -279 123l-36 71l-15 21q188 29 241.5 78t53.5 137q0 35 -45 72.5t-113 37.5q-57 0 -116 -41q12 -53 12 -69q0 -76 -90 -76q-55 0 -71.5 46t11.5 91 q41 74 133.5 111t182.5 37q133 0 231.5 -53.5t98.5 -159.5q0 -166 -306 -219l5 -13q166 0 255 -59t89 -139q0 -127 -122 -188.5t-296 -61.5q-102 0 -192.5 41t-116.5 92q-33 59 -8.5 105zM602 0l911 1462h127l-913 -1462h-125zM1098 225v47h2l545 619l114 -2v-580h135v-84 h-135v-149l113 -19v-57l-223 4l-222 -4v57l113 17v151h-442zM1233 309h307v340z" />
<glyph unicode="&#xbf;" horiz-adv-x="1044" d="M70 -133q0 162 78.5 269.5t277.5 209.5v279q0 39 118 39t118 -39v-234q-147 -61 -225.5 -192t-78.5 -271q0 -285 207 -284q119 0 197 61q-68 74 -68 145q0 61 40 105.5t112 44.5q70 0 94.5 -82t-16.5 -154q-72 -100 -190 -162.5t-249 -62.5q-193 0 -304 81t-111 247z M399 928q0 49 40 79.5t101.5 30.5t101.5 -30.5t40 -79.5q0 -51 -40 -83t-101.5 -32t-101.5 32t-40 83z" />
<glyph unicode="&#xc0;" d="M35 -4v72l129 18q88 195 178 444l334 932h180l500 -1368l151 -26v-72l-309 4l-324 -4v72l152 22l-117 340h-481l-121 -340l148 -22v-72l-224 4zM465 535h409l-202 591zM467 1827q4 35 50 67.5t81 24.5q37 -8 53 -39l162 -256l-82 -59l-237 196q-33 33 -27 66z" />
<glyph unicode="&#xc1;" d="M35 -4v72l129 18q88 195 178 444l334 932h180l500 -1368l151 -26v-72l-309 4l-324 -4v72l152 22l-117 340h-481l-121 -340l148 -22v-72l-224 4zM465 535h409l-202 591zM709 1624l161 256q16 31 54 39q35 8 82 -23.5t49 -64.5q6 -35 -29 -66l-246 -196z" />
<glyph unicode="&#xc2;" d="M35 -4v72l129 18q88 195 178 444l334 932h180l500 -1368l151 -26v-72l-309 4l-324 -4v72l152 22l-117 340h-481l-121 -340l148 -22v-72l-224 4zM465 535h409l-202 591zM473 1569l254 223h67l248 -223h-164l-121 104l-125 -104h-159z" />
<glyph unicode="&#xc3;" d="M35 -4v72l129 18q88 195 178 444l334 932h180l500 -1368l151 -26v-72l-309 4l-324 -4v72l152 22l-117 340h-481l-121 -340l148 -22v-72l-224 4zM399 1579q-16 100 57.5 161.5t178.5 45.5q68 -12 142.5 -50t142.5 -50q55 -8 89.5 22.5t28.5 87.5l84 -10 q16 -100 -57.5 -161.5t-177.5 -45.5q-70 12 -144.5 50t-140.5 50q-55 8 -91 -22.5t-30 -87.5zM465 535h409l-202 591z" />
<glyph unicode="&#xc4;" d="M35 -4v72l129 18q88 195 178 444l334 932h180l500 -1368l151 -26v-72l-309 4l-324 -4v72l152 22l-117 340h-481l-121 -340l148 -22v-72l-224 4zM428 1691.5q0 51.5 42 88.5t109.5 37t110.5 -37t43 -88.5t-43 -84t-110.5 -32.5t-109.5 32.5t-42 84zM465 535h409l-202 591z M866 1689.5q0 51.5 42 88.5t109.5 37t110.5 -37t43 -88.5t-43 -84t-110.5 -32.5t-109.5 32.5t-42 84z" />
<glyph unicode="&#xc5;" d="M35 -4v72l129 18q88 195 178 444l334 932h180l500 -1368l151 -26v-72l-309 4l-324 -4v72l152 22l-117 340h-481l-121 -340l148 -22v-72l-224 4zM465 535h409l-202 591zM575 1740.5q0 69.5 53.5 121t126.5 51.5q72 0 125.5 -51.5t53.5 -121t-53.5 -120.5t-125.5 -51 q-74 0 -127 51t-53 120.5zM647 1741q0 -41 32.5 -73t75.5 -32t76 32t33 73t-33 72.5t-76 31.5t-75.5 -31.5t-32.5 -72.5z" />
<glyph unicode="&#xc6;" horiz-adv-x="2144" d="M27 -4v80l125 26l933 1360h967l6 -383h-80l-6 64q-16 217 -348 213l-221 -2v-566h31q256 -4 256 144v41h65v-475h-65v41q0 154 -256 149h-31v-586h287q369 -4 352 224l-8 57h82l2 -383h-912l-252 -4v80l150 22v371h-567l-252 -371l143 -22v-80l-211 4zM606 571h498v734z " />
<glyph unicode="&#xc7;" horiz-adv-x="1409" d="M94 733q0 186 71 336t182.5 236t234.5 131t241 45q131 0 241 -40t159 -85l32 108h80v-415h-65q-139 313 -443 313q-180 0 -292.5 -174t-112.5 -453q0 -285 111.5 -459t293.5 -174q305 0 443 316h65v-416h-80l-32 109q-49 -45 -159 -85t-241 -40q-72 0 -164 20l-30 -112 q49 18 106 18q86 0 140.5 -44t54.5 -122q0 -86 -46 -146.5t-112.5 -85t-132.5 -37t-111 -9.5h-47l-4 90h30q19 0 66.5 6t84 17t66.5 37t30 63q0 78 -117 77q-61 0 -127 -20l-18 18l73 279q-203 78 -337 254t-134 444z" />
<glyph unicode="&#xc8;" horiz-adv-x="1386" d="M53 1384l2 78h1151l4 -383h-102l-10 45q-25 98 -101 166q-74 66 -199 66h-7l-271 -2v-574h51h13q245 0 245 152v41h64v-475h-64v41q0 141 -248 141h-14h-47v-576l336 -2q133 0 226.5 65.5t121.5 160.5l13 47l100 -4l-45 -371h-907l-310 -4v72l156 22v1276zM358 1833 q4 35 50 67.5t81 24.5q37 -8 53 -39l162 -256l-82 -59l-237 196q-33 33 -27 66z" />
<glyph unicode="&#xc9;" horiz-adv-x="1386" d="M53 1384l158 -18v-1276l-156 -22v-72l310 4h907l45 371l-100 4l-13 -47q-29 -94 -122 -160t-226 -66l-336 2v576h47q262 4 262 -141v-41h64v475h-64v-41q0 -156 -258 -152h-51v574l271 2q131 2 206.5 -65.5t100.5 -166.5l10 -45h102l-4 383h-1151zM600 1630l162 256 q16 31 53 39q35 8 82 -23.5t49 -64.5q6 -35 -28 -65l-246 -197z" />
<glyph unicode="&#xca;" horiz-adv-x="1386" d="M53 1384l2 78h1151l4 -383h-102l-10 45q-25 98 -101 166q-74 66 -199 66h-7l-271 -2v-574h51h13q245 0 245 152v41h64v-475h-64v41q0 141 -248 141h-14h-47v-576l336 -2q133 0 226.5 65.5t121.5 160.5l13 47l100 -4l-45 -371h-907l-310 -4v72l156 22v1276zM365 1575 l254 223h67l248 -223h-164l-121 104l-125 -104h-159z" />
<glyph unicode="&#xcb;" horiz-adv-x="1386" d="M53 1384l158 -18v-1276l-156 -22v-72l310 4h907l45 371l-100 4l-13 -47q-29 -94 -122 -160t-226 -66l-336 2v576h47q262 4 262 -141v-41h64v475h-64v-41q0 -156 -258 -152h-51v574l271 2q131 2 206.5 -65.5t100.5 -166.5l10 -45h102l-4 383h-1151zM319 1698q0 51 42 88 t110 37t111 -37t43 -88t-43 -84t-111 -33t-110 33t-42 84zM758 1696q0 51 42 88t109.5 37t110.5 -37t43 -88t-43 -84t-110.5 -33t-109.5 33t-42 84z" />
<glyph unicode="&#xcc;" horiz-adv-x="784" d="M94 1384l2 78l297 -6l299 6v-78l-149 -18v-1272l151 -26v-72l-297 4l-301 -4v72l156 22v1276zM104 1833q4 35 50 67.5t81 24.5q37 -8 53 -39l162 -256l-82 -59l-237 196q-33 33 -27 66z" />
<glyph unicode="&#xcd;" horiz-adv-x="784" d="M94 1384l2 78l297 -6l299 6v-78l-149 -18v-1272l151 -26v-72l-297 4l-301 -4v72l156 22v1276zM346 1630l162 256q16 31 53 39q35 8 82 -23.5t49 -64.5q6 -35 -28 -65l-246 -197z" />
<glyph unicode="&#xce;" horiz-adv-x="784" d="M94 1384l2 78l297 -6l299 6v-78l-149 -18v-1272l151 -26v-72l-297 4l-301 -4v72l156 22v1276zM111 1575l254 223h67l248 -223h-164l-121 104l-125 -104h-159z" />
<glyph unicode="&#xcf;" horiz-adv-x="784" d="M66 1698q0 51 42 88t109.5 37t110.5 -37t43 -88t-43 -84t-110.5 -33t-109.5 33t-42 84zM94 1384l2 78l297 -6l299 6v-78l-149 -18v-1272l151 -26v-72l-297 4l-301 -4v72l156 22v1276zM504 1696q0 51 42 88t109.5 37t110.5 -37t43 -88t-43 -84t-110.5 -33t-109.5 33 t-42 84z" />
<glyph unicode="&#xd0;" horiz-adv-x="1533" d="M49 705v90h160v571l-158 18l4 78h615q356 0 565 -206.5t209 -505.5q0 -356 -216 -553t-558 -197h-326l-289 -4v72l154 22v615h-160zM500 102l153 -2q135 -2 234.5 55.5t152 156t77 206t24.5 225.5q0 111 -29 215.5t-87 196.5t-159.5 147.5t-232.5 55.5l-133 -2v-561h137 v-90h-137v-603z" />
<glyph unicode="&#xd1;" horiz-adv-x="1603" d="M53 -4v72l162 22q14 264 14 596v590q0 33 -8 53.5t-28.5 30.5t-35 13t-48 6t-48.5 5l2 78h390l823 -1024v393q0 156 -4 289t-8 187l-4 55l-177 27v73l213 -4l260 4v-73l-141 -23q-14 -178 -14 -530l-2 -836h-148l-901 1108v-418l12 -596l170 -26v-72l-215 4zM405 1585 q-16 100 57.5 162t178.5 45q68 -12 142.5 -50t141.5 -50q55 -8 90 22.5t29 88.5l84 -11q16 -100 -57.5 -161.5t-177.5 -45.5q-70 12 -144.5 50.5t-140.5 50.5q-55 8 -91 -22.5t-30 -88.5z" />
<glyph unicode="&#xd2;" horiz-adv-x="1624" d="M94 731.5q0 325.5 200 538.5t525.5 213t523 -213t197.5 -538.5t-197.5 -537.5t-523 -212t-525.5 212t-200 537.5zM424 731q0 -287 95 -457t300 -170t299 170t94 457q0 285 -95 456t-298 171q-137 0 -228 -85t-129 -221.5t-38 -320.5zM510 1854q4 35 50 67.5t81 24.5 q37 -8 53 -39l162 -256l-82 -59l-237 196q-33 33 -27 66z" />
<glyph unicode="&#xd3;" horiz-adv-x="1624" d="M94 731.5q0 325.5 200 538.5t525.5 213t523 -213t197.5 -538.5t-197.5 -537.5t-523 -212t-525.5 212t-200 537.5zM424 731q0 -287 95 -457t300 -170t299 170t94 457q0 285 -95 456t-298 171q-137 0 -228 -85t-129 -221.5t-38 -320.5zM752 1651l161 256q16 31 54 39 q35 8 82 -24t49 -64q6 -35 -29 -66l-246 -197z" />
<glyph unicode="&#xd4;" horiz-adv-x="1624" d="M94 731.5q0 325.5 200 538.5t525.5 213t523 -213t197.5 -538.5t-197.5 -537.5t-523 -212t-525.5 212t-200 537.5zM424 731q0 -287 95 -457t300 -170t299 170t94 457q0 285 -95 456t-298 171q-137 0 -228 -85t-129 -221.5t-38 -320.5zM516 1595l254 223h67l248 -223h-164 l-121 104l-125 -104h-159z" />
<glyph unicode="&#xd5;" horiz-adv-x="1624" d="M94 731.5q0 325.5 200 538.5t525.5 213t523 -213t197.5 -538.5t-197.5 -537.5t-523 -212t-525.5 212t-200 537.5zM424 731q0 -287 95 -457t300 -170t299 170t94 457q0 285 -95 456t-298 171q-137 0 -228 -85t-129 -221.5t-38 -320.5zM442 1606q-16 100 57.5 161.5 t178.5 44.5q68 -12 142.5 -50t142.5 -50q55 -8 89.5 22.5t28.5 88.5l84 -11q16 -100 -57.5 -161.5t-177.5 -44.5q-70 12 -144.5 50t-140.5 50q-55 8 -91 -22.5t-30 -88.5z" />
<glyph unicode="&#xd6;" horiz-adv-x="1624" d="M94 731.5q0 325.5 200 538.5t525.5 213t523 -213t197.5 -538.5t-197.5 -537.5t-523 -212t-525.5 212t-200 537.5zM424 731q0 -287 95 -457t300 -170t299 170t94 457q0 285 -95 456t-298 171q-137 0 -228 -85t-129 -221.5t-38 -320.5zM471 1718q0 51 42 88t109.5 37 t110.5 -37t43 -88t-43 -83.5t-110.5 -32.5t-109.5 32.5t-42 83.5zM909 1716q0 51 42 88t109.5 37t110.5 -37t43 -88t-43 -84t-110.5 -33t-109.5 33t-42 84z" />
<glyph unicode="&#xd7;" horiz-adv-x="1032" d="M166 338l274 264l-274 264l82 76l272 -264l273 264l79 -78l-272 -262l272 -262l-79 -78l-273 262l-272 -262z" />
<glyph unicode="&#xd8;" horiz-adv-x="1681" d="M94 731q0 326 200 539t525 213q139 0 268 -45l84 202h99l-101 -239q174 -92 272.5 -269.5t98.5 -400.5q0 -326 -197.5 -537.5t-523.5 -211.5q-115 0 -223 28l-86 -209h-96l98 240q-197 84 -307.5 267t-110.5 423zM424 731q0 -379 154 -532l448 1091q-86 68 -207 68 q-137 0 -228 -85t-129 -221.5t-38 -320.5zM651 143q70 -39 168 -39q205 0 299 170t94 457q0 328 -116 488z" />
<glyph unicode="&#xd9;" horiz-adv-x="1550" d="M53 1384l2 78l291 -6l309 6v-78l-149 -18v-917q0 -156 91 -234t251 -78q182 0 281.5 83t99.5 249l-2 897l-150 18v78l228 -6l192 6l2 -78l-153 -18v-901q0 -229 -153 -349t-409 -120q-236 0 -405.5 117.5t-169.5 330.5v922zM471 1833q4 35 50 67.5t81 24.5q37 -8 53 -39 l162 -256l-82 -59l-237 196q-33 33 -27 66z" />
<glyph unicode="&#xda;" horiz-adv-x="1550" d="M53 1384l156 -18v-922q0 -213 170 -330.5t405 -117.5q256 0 409 120t153 349v901l153 18l-2 78l-192 -6l-228 6v-78l150 -18l2 -897q0 -166 -99.5 -249t-281.5 -83q-160 0 -251 78t-91 234v917l149 18v78l-309 -6l-291 6zM713 1630l161 256q16 31 54 39q35 8 82 -23.5 t49 -64.5q6 -35 -29 -65l-246 -197z" />
<glyph unicode="&#xdb;" horiz-adv-x="1550" d="M53 1384l2 78l291 -6l309 6v-78l-149 -18v-917q0 -156 91 -234t251 -78q182 0 281.5 83t99.5 249l-2 897l-150 18v78l228 -6l192 6l2 -78l-153 -18v-901q0 -229 -153 -349t-409 -120q-236 0 -405.5 117.5t-169.5 330.5v922zM478 1575l254 223h67l248 -223h-164l-121 104 l-125 -104h-159z" />
<glyph unicode="&#xdc;" horiz-adv-x="1550" d="M53 1384l156 -18v-922q0 -213 170 -330.5t405 -117.5q256 0 409 120t153 349v901l153 18l-2 78l-192 -6l-228 6v-78l150 -18l2 -897q0 -166 -99.5 -249t-281.5 -83q-160 0 -251 78t-91 234v917l149 18v78l-309 -6l-291 6zM432 1698q0 51 42 88t109.5 37t110.5 -37t43 -88 t-43 -84t-110.5 -33t-109.5 33t-42 84zM870 1696q0 51 42 88t110 37t111 -37t43 -88t-43 -84t-111 -33t-110 33t-42 84z" />
<glyph unicode="&#xdd;" horiz-adv-x="1423" d="M29 1393v73l266 -4l313 4v-73l-133 -23v-20l350 -562l283 551v29l-141 23v75l266 -4l172 4v-75l-121 -27l-410 -723v-547l152 -26v-72l-309 4l-285 -4v72l150 22v563l-424 713zM656 1634l162 256q16 31 53 39q35 8 82 -23.5t49 -64.5q6 -35 -29 -66l-246 -196z" />
<glyph unicode="&#xde;" horiz-adv-x="1447" d="M102 1384l2 78h617v-82l-170 -14v-211h201q291 0 441 -102.5t150 -266.5q0 -186 -162.5 -288.5t-428.5 -102.5h-201v-301l145 -26v-72l-270 4l-322 -4v72l148 22v1276zM551 502h207q84 -2 140 20.5t82 66.5t36 89t10 102q0 266 -293 264h-182v-542z" />
<glyph unicode="&#xdf;" horiz-adv-x="1220" d="M23 59l120 21v940q0 223 134.5 371.5t384.5 148.5q184 0 296.5 -78t112.5 -215q0 -201 -205 -344q31 -39 110 -133t106.5 -135t57 -121t29.5 -168q0 -160 -112.5 -262t-265.5 -102q-109 0 -185 40.5t-106 86.5q-12 39 1 72.5t42 33.5q31 0 51 -17.5t20 -54.5 q0 -20 -2 -32q59 -39 138 -39q59 0 104 47t45 147q0 86 -66.5 210t-173.5 247q-37 41 11 84q162 166 161 426q0 96 -47 155.5t-147 59.5q-205 0 -205 -326v-1122l-405 -6z" />
<glyph unicode="&#xe0;" horiz-adv-x="1146" d="M98 225q0 119 123 211t320 129l139 27v137q0 211 -162 211q-129 0 -188 -57q37 -41 37 -82q0 -125 -123 -125q-49 0 -76 28.5t-27 71.5q2 82 78 145.5t171 93t181 29.5q190 0 293 -74.5t103 -250.5v-518q0 -41 10 -59.5t39 -18.5q55 0 78 27l28 -44q-41 -51 -113 -87 q-62 -31 -133 -30q-12 0 -24 1q-160 14 -172 139l-41 4q-74 -145 -303 -145q-113 0 -175.5 67.5t-62.5 169.5zM387 268q0 -123 100 -123q66 0 120.5 35t72.5 94v232l-125 -35q-168 -49 -168 -203zM297 1436q4 35 50 67.5t81 24.5q37 -8 53 -39l162 -256l-82 -59l-237 196 q-33 33 -27 66z" />
<glyph unicode="&#xe1;" horiz-adv-x="1146" d="M98 225q0 119 123 211t320 129l139 27v137q0 211 -162 211q-129 0 -188 -57q37 -41 37 -82q0 -125 -123 -125q-49 0 -76 28.5t-27 71.5q2 82 78 145.5t171 93t181 29.5q190 0 293 -74.5t103 -250.5v-518q0 -41 10 -59.5t39 -18.5q55 0 78 27l28 -44q-41 -51 -113.5 -86.5 t-156.5 -29.5q-160 14 -172 139l-41 4q-74 -145 -303 -145q-113 0 -175.5 67.5t-62.5 169.5zM387 268q0 -123 100 -123q66 0 120.5 35t72.5 94v232l-125 -35q-168 -49 -168 -203zM539 1233l161 256q16 31 54 39q35 8 82 -23.5t49 -64.5q6 -35 -29 -66l-246 -196z" />
<glyph unicode="&#xe2;" horiz-adv-x="1146" d="M98 225q0 119 123 211t320 129l139 27v137q0 211 -162 211q-129 0 -188 -57q37 -41 37 -82q0 -125 -123 -125q-49 0 -76 28.5t-27 71.5q2 82 78 145.5t171 93t181 29.5q190 0 293 -74.5t103 -250.5v-518q0 -41 10 -59.5t39 -18.5q55 0 78 27l28 -44q-41 -51 -113 -87 q-62 -31 -133 -30q-12 0 -24 1q-160 14 -172 139l-41 4q-74 -145 -303 -145q-113 0 -175.5 67.5t-62.5 169.5zM387 268q0 -123 100 -123q66 0 120.5 35t72.5 94v232l-125 -35q-168 -49 -168 -203zM303 1178l254 223h67l248 -223h-164l-121 104l-125 -104h-159z" />
<glyph unicode="&#xe3;" horiz-adv-x="1146" d="M98 225q0 119 123 211t320 129l139 27v137q0 211 -162 211q-129 0 -188 -57q37 -41 37 -82q0 -125 -123 -125q-49 0 -76 28.5t-27 71.5q2 82 78 145.5t171 93t181 29.5q190 0 293 -74.5t103 -250.5v-518q0 -41 10 -59.5t39 -18.5q55 0 78 27l28 -44q-41 -51 -113.5 -86.5 t-156.5 -29.5q-160 14 -172 139l-41 4q-74 -145 -303 -145q-113 0 -175.5 67.5t-62.5 169.5zM229 1188q-16 100 57.5 161.5t178.5 45.5q68 -12 142.5 -50t142.5 -51q55 -8 89.5 23t28.5 88l84 -10q16 -100 -57.5 -162t-177.5 -45q-70 12 -144.5 50t-140.5 50 q-55 8 -91 -22.5t-30 -87.5zM387 268q0 -123 100 -123q66 0 120.5 35t72.5 94v232l-125 -35q-168 -49 -168 -203z" />
<glyph unicode="&#xe4;" horiz-adv-x="1146" d="M98 225q0 119 123 211t320 129l139 27v137q0 211 -162 211q-129 0 -188 -57q37 -41 37 -82q0 -125 -123 -125q-49 0 -76 28.5t-27 71.5q2 82 78 145.5t171 93t181 29.5q190 0 293 -74.5t103 -250.5v-518q0 -41 10 -59.5t39 -18.5q55 0 78 27l28 -44q-41 -51 -113.5 -86.5 t-156.5 -29.5q-160 14 -172 139l-41 4q-74 -145 -303 -145q-113 0 -175.5 67.5t-62.5 169.5zM258 1300.5q0 51.5 42 88t109.5 36.5t110.5 -36.5t43 -88t-43 -84t-110.5 -32.5t-109.5 32.5t-42 84zM387 268q0 -123 100 -123q66 0 120.5 35t72.5 94v232l-125 -35 q-168 -49 -168 -203zM696 1298.5q0 51.5 42 88t109.5 36.5t110.5 -36.5t43 -88t-43 -84t-110.5 -32.5t-109.5 32.5t-42 84z" />
<glyph unicode="&#xe5;" horiz-adv-x="1146" d="M98 225q0 119 123 211t320 129l139 27v137q0 211 -162 211q-129 0 -188 -57q37 -41 37 -82q0 -125 -123 -125q-49 0 -76 28.5t-27 71.5q2 82 78 145.5t171 93t181 29.5q190 0 293 -74.5t103 -250.5v-518q0 -41 10 -59.5t39 -18.5q55 0 78 27l28 -44q-41 -51 -113 -87 q-62 -31 -133 -30q-12 0 -24 1q-160 14 -172 139l-41 4q-74 -145 -303 -145q-113 0 -175.5 67.5t-62.5 169.5zM387 268q0 -123 100 -123q66 0 120.5 35t72.5 94v232l-125 -35q-168 -49 -168 -203zM405 1349.5q0 69.5 53.5 121t126.5 51.5q72 0 125.5 -51.5t53.5 -121 t-53.5 -120.5t-125.5 -51q-74 0 -127 51t-53 120.5zM477 1350q0 -41 32.5 -73t75.5 -32t76 32t33 73t-33 72.5t-76 31.5t-75.5 -31.5t-32.5 -72.5z" />
<glyph unicode="&#xe6;" horiz-adv-x="1665" d="M104 225q0 125 104.5 201t373.5 129l118 27v147q0 94 -34.5 137t-120.5 43q-115 0 -195 -47q35 -59 35 -112q0 -51 -33 -82t-80 -31q-63 0 -89.5 40t-19.5 90t34 93q68 86 181.5 135t233.5 49q213 0 308 -92q129 92 292 92q182 0 307.5 -99t125.5 -302v-108l-644 2v-134 q18 -125 91 -209.5t196 -84.5q209 0 311 141l58 -39q-63 -106 -179 -168.5t-272 -62.5q-246 0 -393 176q-123 -168 -367 -168q-158 0 -250 67.5t-92 169.5zM395 279q0 -59 49.5 -91t122.5 -32q129 0 207 53q-78 123 -78 274v17l-100 -23q-109 -31 -155 -78.5t-46 -119.5z M1001 627h365q0 178 -37 244.5t-121 66.5q-94 0 -143 -73.5t-64 -225.5v-12z" />
<glyph unicode="&#xe7;" horiz-adv-x="1060" d="M82 479q0 221 142.5 393t375.5 172q248 0 344 -141q45 -59 19.5 -141t-109.5 -82q-57 0 -86 37t-29 90q0 31 29 94q-27 37 -106 37q-281 0 -281 -438q0 -166 70.5 -271.5t212.5 -105.5q109 0 174 31.5t106 113.5l66 -24q-45 -117 -158 -190.5t-252 -73.5q-61 0 -117 12 l-26 -98q49 18 106 18q86 0 140.5 -44t54.5 -122q0 -86 -46 -146.5t-113 -85t-132.5 -37t-110.5 -9.5h-47l-4 90h30q19 0 66.5 6t84 17t66.5 37t30 63q0 78 -117 77q-61 0 -127 -20l-19 18l68 260q-147 57 -226 187.5t-79 275.5z" />
<glyph unicode="&#xe8;" horiz-adv-x="1110" d="M82 483q0 137 56.5 262t177 212t282.5 87q182 0 307 -99t125 -302v-108l-649 2v-54q0 -150 74.5 -262t218.5 -112q209 0 311 141l57 -39q-63 -106 -178.5 -168.5t-271.5 -62.5q-162 0 -282 78.5t-174 191t-54 233.5zM385 627h367q0 178 -37 244.5t-121 66.5 q-98 0 -147.5 -76.5t-61.5 -234.5zM268 1436q4 35 50 67.5t81 24.5q37 -8 53 -39l162 -256l-82 -59l-237 196q-33 33 -27 66z" />
<glyph unicode="&#xe9;" horiz-adv-x="1110" d="M82 483q0 137 56.5 262t177 212t282.5 87q182 0 307 -99t125 -302v-108l-649 2v-54q0 -150 74.5 -262t218.5 -112q209 0 311 141l57 -39q-63 -106 -178.5 -168.5t-271.5 -62.5q-162 0 -282 78.5t-174 191t-54 233.5zM385 627h367q0 178 -37 244.5t-121 66.5 q-98 0 -147.5 -76.5t-61.5 -234.5zM510 1233l162 256q16 31 53 39q35 8 82 -23.5t49 -64.5q6 -35 -29 -66l-245 -196z" />
<glyph unicode="&#xea;" horiz-adv-x="1110" d="M82 483q0 137 56.5 262t177 212t282.5 87q182 0 307 -99t125 -302v-108l-649 2v-54q0 -150 74.5 -262t218.5 -112q209 0 311 141l57 -39q-63 -106 -178.5 -168.5t-271.5 -62.5q-162 0 -282 78.5t-174 191t-54 233.5zM385 627h367q0 178 -37 244.5t-121 66.5 q-98 0 -147.5 -76.5t-61.5 -234.5zM275 1178l254 223h67l248 -223h-164l-121 104l-125 -104h-159z" />
<glyph unicode="&#xeb;" horiz-adv-x="1110" d="M82 483q0 137 56.5 262t177 212t282.5 87q182 0 307 -99t125 -302v-108l-649 2v-54q0 -150 74.5 -262t218.5 -112q209 0 311 141l57 -39q-63 -106 -178.5 -168.5t-271.5 -62.5q-162 0 -282 78.5t-174 191t-54 233.5zM229 1300.5q0 51.5 42 88t110 36.5t111 -36.5t43 -88 t-43 -84t-111 -32.5t-110 32.5t-42 84zM385 627h367q0 178 -37 244.5t-121 66.5q-98 0 -147.5 -76.5t-61.5 -234.5zM668 1298.5q0 51.5 42 88t109.5 36.5t110.5 -36.5t43 -88t-43 -84t-110.5 -32.5t-109.5 32.5t-42 84z" />
<glyph unicode="&#xec;" horiz-adv-x="641" d="M35 41l143 20v846l-112 21l4 82l393 24v-968l147 -25l-2 -47l-276 6l-291 -6zM35 1426q4 35 50 67.5t81 24.5q37 -8 53 -39l162 -256l-82 -59l-237 196q-33 33 -27 66z" />
<glyph unicode="&#xed;" horiz-adv-x="641" d="M35 41l143 20v846l-112 21l4 82l393 24v-968l147 -25l-2 -47l-276 6l-291 -6zM276 1223l162 256q16 31 54 39q35 8 82 -24t49 -64q6 -35 -29 -66l-246 -197z" />
<glyph unicode="&#xee;" horiz-adv-x="641" d="M35 41l143 20v846l-112 21l4 82l393 24v-968l147 -25l-2 -47l-276 6l-291 -6zM41 1167l254 223h67l248 -223h-164l-121 104l-125 -104h-159z" />
<glyph unicode="&#xef;" horiz-adv-x="641" d="M-4 1290q0 51 42 88t109.5 37t110.5 -37t43 -88t-43 -83.5t-110.5 -32.5t-109.5 32.5t-42 83.5zM35 41l143 20v846l-112 21l4 82l393 24v-968l147 -25l-2 -47l-276 6l-291 -6zM434 1288q0 51 42 88t109.5 37t110.5 -37t43 -88t-43 -84t-110.5 -33t-109.5 33t-42 84z" />
<glyph unicode="&#xf0;" horiz-adv-x="1243" d="M72 483q0 231 123.5 376t339.5 145q174 0 262 -183l43 21q-33 229 -150 364l-266 -104l-35 80l234 90q-111 90 -289 119l10 88q260 -23 451 -140l247 97l35 -80l-196 -76q279 -223 278 -645q0 -86 -18.5 -173t-60.5 -173t-103.5 -151.5t-155.5 -106.5t-209 -41 q-231 0 -385.5 149t-154.5 344zM383 496q0 -197 41 -298.5t149 -101.5q268 0 279 518q-16 121 -92 181.5t-174 60.5q-203 0 -203 -360z" />
<glyph unicode="&#xf1;" horiz-adv-x="1312" d="M27 59l151 21v792l-129 37l4 101l410 24v-221h45q37 109 120 170t183 61q152 0 242 -78.5t90 -244.5v-637l151 -25l-2 -65l-282 6l-293 -6l-4 65l145 21v659q0 80 -33.5 115t-109.5 35q-96 0 -172 -88t-80 -219v-498l153 -25l-2 -65l-303 6l-280 -6zM303 1187 q-16 100 57.5 162t178.5 45q68 -12 142.5 -50t141.5 -50q55 -8 90 22.5t29 88.5l84 -11q16 -100 -57.5 -161.5t-177.5 -45.5q-70 12 -144.5 50.5t-140.5 50.5q-55 8 -91 -22.5t-30 -88.5z" />
<glyph unicode="&#xf2;" horiz-adv-x="1275" d="M92 512q0 227 149.5 379.5t399.5 152.5q252 0 401.5 -152.5t149.5 -379.5t-149.5 -378.5t-401.5 -151.5q-250 0 -399.5 151.5t-149.5 378.5zM395 512q0 -412 246 -412q248 0 248 412q0 410 -248 410q-246 0 -246 -410zM342 1436q4 35 50 67.5t81 24.5q37 -8 53 -39 l162 -256l-82 -59l-237 196q-33 33 -27 66z" />
<glyph unicode="&#xf3;" horiz-adv-x="1275" d="M92 512q0 227 149.5 379.5t399.5 152.5q252 0 401.5 -152.5t149.5 -379.5t-149.5 -378.5t-401.5 -151.5q-250 0 -399.5 151.5t-149.5 378.5zM395 512q0 -412 246 -412q248 0 248 412q0 410 -248 410q-246 0 -246 -410zM584 1233l161 256q16 31 54 39q35 8 82 -23.5 t49 -64.5q6 -35 -29 -66l-246 -196z" />
<glyph unicode="&#xf4;" horiz-adv-x="1275" d="M92 512q0 227 149.5 379.5t399.5 152.5q252 0 401.5 -152.5t149.5 -379.5t-149.5 -378.5t-401.5 -151.5q-250 0 -399.5 151.5t-149.5 378.5zM395 512q0 -412 246 -412q248 0 248 412q0 410 -248 410q-246 0 -246 -410zM349 1178l254 223h67l248 -223h-164l-121 104 l-125 -104h-159z" />
<glyph unicode="&#xf5;" horiz-adv-x="1275" d="M92 512q0 227 149.5 379.5t399.5 152.5q252 0 401.5 -152.5t149.5 -379.5t-149.5 -378.5t-401.5 -151.5q-250 0 -399.5 151.5t-149.5 378.5zM274 1188q-16 100 58 161.5t178 45.5q68 -12 142.5 -50t142.5 -51q55 -8 90 23t28 88l84 -10q16 -100 -57.5 -162t-177.5 -45 q-70 12 -144.5 50t-140.5 50q-55 8 -91 -22.5t-30 -87.5zM395 512q0 -412 246 -412q248 0 248 412q0 410 -248 410q-246 0 -246 -410z" />
<glyph unicode="&#xf6;" horiz-adv-x="1275" d="M92 512q0 227 149.5 379.5t399.5 152.5q252 0 401.5 -152.5t149.5 -379.5t-149.5 -378.5t-401.5 -151.5q-250 0 -399.5 151.5t-149.5 378.5zM303 1300.5q0 51.5 42 88t109.5 36.5t110.5 -36.5t43 -88t-43 -84t-110.5 -32.5t-109.5 32.5t-42 84zM395 512q0 -412 246 -412 q248 0 248 412q0 410 -248 410q-246 0 -246 -410zM741 1298.5q0 51.5 42 88t110 36.5t111 -36.5t43 -88t-43 -84t-111 -32.5t-110 32.5t-42 84z" />
<glyph unicode="&#xf7;" horiz-adv-x="1032" d="M49 563v109h942v-109h-942zM332 940q0 51 42 88t109.5 37t110.5 -37t43 -88t-43 -84t-110.5 -33t-109.5 33t-42 84zM336 323.5q0 51.5 42 88.5t109.5 37t110.5 -37t43 -88.5t-43 -84t-110.5 -32.5t-109.5 32.5t-42 84z" />
<glyph unicode="&#xf8;" horiz-adv-x="1234" d="M92 512q0 227 149.5 379.5t399.5 152.5q96 0 188 -26l80 162h84l-92 -191q137 -63 214 -191t77 -286q0 -227 -149.5 -378.5t-401.5 -151.5q-117 0 -215 34l-88 -182h-82l102 213q-127 68 -196.5 189.5t-69.5 275.5zM395 512q0 -188 49 -289l322 662q-53 37 -125 37 q-246 0 -246 -410zM494 156q59 -55 147 -56q248 0 248 412q0 211 -68 315z" />
<glyph unicode="&#xf9;" horiz-adv-x="1288" d="M27 924l2 100l432 20v-765q0 -84 32.5 -118t108.5 -34q98 0 176 92t78 227v437l-151 41l2 100l436 20v-938l129 -20l-4 -78l-402 -24l8 211l-51 10q-31 -104 -118 -168t-189 -64q-340 0 -340 322v588zM338 1436q4 35 50 67.5t81 24.5q37 -8 53 -39l162 -256l-82 -59 l-237 196q-33 33 -27 66z" />
<glyph unicode="&#xfa;" horiz-adv-x="1288" d="M27 924l2 100l432 20v-765q0 -84 32.5 -118t108.5 -34q98 0 176 92t78 227v437l-151 41l2 100l436 20v-938l129 -20l-4 -78l-402 -24l8 211l-51 10q-31 -104 -118 -168t-189 -64q-340 0 -340 322v588zM580 1233l161 256q16 31 54 39q35 8 82 -23.5t49 -64.5 q6 -35 -29 -66l-246 -196z" />
<glyph unicode="&#xfb;" horiz-adv-x="1288" d="M27 924l2 100l432 20v-765q0 -84 32.5 -118t108.5 -34q98 0 176 92t78 227v437l-151 41l2 100l436 20v-938l129 -20l-4 -78l-402 -24l8 211l-51 10q-31 -104 -118 -168t-189 -64q-340 0 -340 322v588zM344 1178l254 223h67l248 -223h-164l-121 104l-125 -104h-159z" />
<glyph unicode="&#xfc;" horiz-adv-x="1288" d="M27 924l2 100l432 20v-765q0 -84 32.5 -118t108.5 -34q98 0 176 92t78 227v437l-151 41l2 100l436 20v-938l129 -20l-4 -78l-402 -24l8 211l-51 10q-31 -104 -118 -168t-189 -64q-340 0 -340 322v588zM299 1300.5q0 51.5 42 88t109.5 36.5t110.5 -36.5t43 -88t-43 -84 t-110.5 -32.5t-109.5 32.5t-42 84zM737 1298.5q0 51.5 42 88t109.5 36.5t110.5 -36.5t43 -88t-43 -84t-110.5 -32.5t-109.5 32.5t-42 84z" />
<glyph unicode="&#xfd;" horiz-adv-x="1183" d="M416 1192l162 256q16 31 53 39q35 8 82 -23.5t49 -64.5q6 -35 -29 -66l-246 -196z" />
<glyph unicode="&#xfe;" horiz-adv-x="1304" d="M37 -408l141 21v1720l-139 39v94l426 45v-684q41 96 126 155.5t183 59.5q213 0 335 -154.5t122 -359.5q0 -102 -35 -198.5t-100.5 -176t-174 -128t-243.5 -48.5q-127 0 -213 66v-426l145 -25l-2 -67l-256 6l-311 -6zM465 254q4 -68 57 -112t160 -44q139 0 195.5 106.5 t56.5 323.5q0 147 -54.5 251t-162.5 104q-92 0 -166 -52.5t-86 -130.5v-446z" />
<glyph unicode="&#xff;" horiz-adv-x="1183" d="M260 1413q0 51 42 88t109.5 37t110.5 -37t43 -88t-43 -84t-110.5 -33t-109.5 33t-42 84zM698 1411q0 51 42 88t110 37t111 -37t43 -88t-43 -84t-111 -33t-110 33t-42 84z" />
<glyph unicode="&#x131;" horiz-adv-x="641" d="M35 41l143 20v846l-112 21l4 82l393 24v-968l147 -25l-2 -47l-276 6l-291 -6z" />
<glyph unicode="&#x152;" horiz-adv-x="2142" d="M102 733.5q0 186.5 73 336t188.5 235.5t241.5 131t249 45q113 0 248 -21v2h948l-14 -383h-66l17 64q31 117 -76 167t-289 48l-221 -4v-574h29q258 -4 258 152v41h65v-475h-65v41q0 154 -258 149h-29v-588h287q182 -2 288.5 49.5t75.5 169.5l-16 64h65l15 -383h-1014 q-119 -14 -248 -14q-123 0 -249 45t-241.5 131t-188.5 235.5t-73 336zM440 735q0 -295 114 -473t304 -178q162 0 244 57v1194q-90 45 -244 45q-190 0 -304 -178t-114 -467z" />
<glyph unicode="&#x153;" horiz-adv-x="1914" d="M92 512q0 227 149.5 379.5t399.5 152.5q264 0 422 -174q145 174 379 174q182 0 307 -99t125 -302v-108l-649 2v-54q0 -150 74.5 -262t218.5 -112q209 0 311 141l57 -39q-63 -106 -179 -168.5t-271 -62.5q-240 0 -383 163q-156 -162 -412 -161q-250 0 -399.5 151.5 t-149.5 378.5zM395 512q0 -412 246 -412q248 0 248 412q0 410 -248 410q-246 0 -246 -410zM1229 627h366q0 178 -36.5 244.5t-120.5 66.5q-98 0 -147.5 -76.5t-61.5 -234.5z" />
<glyph unicode="&#x178;" horiz-adv-x="1423" d="M29 1393v73l266 -4l313 4v-73l-133 -23v-20l350 -562l283 551v29l-141 23v75l266 -4l172 4v-75l-121 -27l-410 -723v-547l152 -26v-72l-309 4l-285 -4v72l150 22v563l-424 713zM375 1702q0 51 42 88t109.5 37t110.5 -37t43 -88t-43 -84t-110.5 -33t-109.5 33t-42 84z M813 1700q0 51 42 88t109.5 37t110.5 -37t43 -88t-43 -84t-110.5 -33t-109.5 33t-42 84z" />
<glyph unicode="&#x2c6;" horiz-adv-x="696" d="M70 1233l254 223h67l248 -223h-164l-121 104l-125 -104h-159z" />
<glyph unicode="&#x2da;" horiz-adv-x="620" d="M133 1304.5q0 69.5 53.5 121t126.5 51.5q72 0 125.5 -51.5t53.5 -121t-53.5 -120.5t-125.5 -51q-74 0 -127 51t-53 120.5zM205 1305q0 -41 32.5 -73t75.5 -32t76 32t33 73t-33 72.5t-76 31.5t-75.5 -31.5t-32.5 -72.5z" />
<glyph unicode="&#x2dc;" horiz-adv-x="909" d="M96 1257q-16 100 57.5 162t178.5 45q68 -12 142.5 -50t141.5 -50q55 -8 90 22.5t29 88.5l84 -11q16 -100 -57.5 -161.5t-177.5 -45.5q-70 12 -144.5 50.5t-140.5 50.5q-55 8 -91 -22.5t-30 -88.5z" />
<glyph unicode="&#x2000;" horiz-adv-x="972" />
<glyph unicode="&#x2001;" horiz-adv-x="1945" />
<glyph unicode="&#x2002;" horiz-adv-x="972" />
<glyph unicode="&#x2003;" horiz-adv-x="1945" />
<glyph unicode="&#x2004;" horiz-adv-x="647" />
<glyph unicode="&#x2005;" horiz-adv-x="485" />
<glyph unicode="&#x2006;" horiz-adv-x="323" />
<glyph unicode="&#x2007;" horiz-adv-x="323" />
<glyph unicode="&#x2008;" horiz-adv-x="241" />
<glyph unicode="&#x2009;" horiz-adv-x="389" />
<glyph unicode="&#x200a;" horiz-adv-x="106" />
<glyph unicode="&#x2010;" horiz-adv-x="927" d="M164 565v183h588v-183h-588z" />
<glyph unicode="&#x2011;" horiz-adv-x="927" d="M164 565v183h588v-183h-588z" />
<glyph unicode="&#x2012;" horiz-adv-x="927" d="M164 565v183h588v-183h-588z" />
<glyph unicode="&#x2013;" horiz-adv-x="1159" d="M113 565v129h942v-129h-942z" />
<glyph unicode="&#x2014;" horiz-adv-x="1370" d="M113 565v129h1155v-129h-1155z" />
<glyph unicode="&#x2018;" horiz-adv-x="473" d="M96 1206q0 125 76 235.5t143 147.5l54 -55q-131 -115 -138 -258q51 -8 87 -46t36 -83q0 -49 -33.5 -80t-87.5 -31q-59 0 -98 47t-39 123z" />
<glyph unicode="&#x2019;" horiz-adv-x="473" d="M102 985q131 115 138 258q-51 8 -87 46t-36 83q0 49 33.5 80t87.5 31q59 0 98 -47t39 -123q0 -125 -76 -235.5t-143 -147.5z" />
<glyph unicode="&#x201a;" horiz-adv-x="464" d="M100 -295q131 115 138 258q-51 8 -87 46t-36 83q0 49 33.5 80t87.5 31q59 0 98 -47t39 -123q0 -125 -76 -235.5t-143 -147.5z" />
<glyph unicode="&#x201c;" horiz-adv-x="827" d="M96 1186q0 125 76 235.5t143 147.5l54 -56q-131 -115 -138 -258q51 -8 87 -46t36 -83q0 -49 -33.5 -79.5t-87.5 -30.5q-59 0 -98 47t-39 123zM453 1186q0 125 75.5 235.5t143.5 147.5l53 -56q-131 -115 -137 -258q51 -8 87 -46t36 -83q0 -49 -34 -79.5t-87 -30.5 q-59 0 -98 47t-39 123z" />
<glyph unicode="&#x201d;" horiz-adv-x="829" d="M102 985q131 115 138 258q-51 8 -87 46t-36 83q0 49 33.5 80t87.5 31q59 0 98 -47t39 -123q0 -125 -76 -235.5t-143 -147.5zM459 985q131 115 137 258q-51 8 -87 46t-36 83q0 49 34 80t87 31q59 0 98 -47t39 -123q0 -125 -75.5 -235.5t-143.5 -147.5z" />
<glyph unicode="&#x201e;" horiz-adv-x="804" d="M100 -295q131 115 138 258q-51 8 -87 46t-36 83q0 49 33.5 80t87.5 31q59 0 98 -47t39 -123q0 -125 -76 -235.5t-143 -147.5zM438 -295q131 115 137 258q-51 8 -86.5 46t-35.5 83q0 49 33.5 80t86.5 31q59 0 98.5 -47t39.5 -123q0 -125 -76 -235.5t-143 -147.5z" />
<glyph unicode="&#x2022;" horiz-adv-x="690" d="M113 641q0 96 66.5 154.5t168.5 58.5q104 0 170 -58.5t66 -154.5q0 -98 -65.5 -160.5t-170.5 -62.5q-102 0 -168.5 62.5t-66.5 160.5z" />
<glyph unicode="&#x2026;" horiz-adv-x="1306" d="M41 102.5q0 51.5 42 88t109.5 36.5t110.5 -36.5t43 -88t-43 -84t-110.5 -32.5t-109.5 32.5t-42 84zM471 102.5q0 51.5 42 88t109.5 36.5t110.5 -36.5t43 -88t-43 -84t-110.5 -32.5t-109.5 32.5t-42 84zM903 102.5q0 51.5 42 88t109.5 36.5t110.5 -36.5t43 -88t-43 -84 t-110.5 -32.5t-109.5 32.5t-42 84z" />
<glyph unicode="&#x202f;" horiz-adv-x="389" />
<glyph unicode="&#x2039;" horiz-adv-x="602" d="M113 381v33l309 387l72 -25l-203 -381l203 -383l-72 -18z" />
<glyph unicode="&#x203a;" horiz-adv-x="602" d="M113 18l204 381l-204 383l71 19l310 -387v-33l-310 -387z" />
<glyph unicode="&#x205f;" horiz-adv-x="485" />
<glyph unicode="&#x20ac;" horiz-adv-x="1509" d="M53 590v67h125q-2 25 -2 76q0 43 2 66h-125v69h133q23 154 101 276t182 192.5t217 107.5t219 37q131 0 240.5 -40t159.5 -85l32 108h80v-415h-65q-139 313 -443 313q-158 0 -265 -134t-134 -360h682v-69h-686q-2 -20 -2 -64q0 -53 2 -78h686v-67h-680 q29 -223 135.5 -355.5t261.5 -132.5q305 0 443 316h65v-416h-80l-32 109q-49 -45 -159 -85t-241 -40q-145 0 -290.5 60t-270.5 202.5t-158 341.5h-133z" />
<glyph unicode="&#x2122;" horiz-adv-x="1210" d="M92 1343v119h416v-119h-27v19q0 68 -86 68h-30v-355l47 -4l-2 -22l-105 2l-108 -2v22l45 4v355h-35q-90 0 -90 -68v-19h-25zM547 1049v20l49 6v322q0 37 -49 45l2 20h145l156 -258l121 258h157v-20l-45 -6v-357l45 -10v-20l-108 2l-109 -2v20l47 6v264l-135 -288h-18 l-168 292v-264l51 -10v-20l-74 2z" />
<glyph unicode="&#xe000;" horiz-adv-x="1025" d="M0 1025h1025v-1025h-1025v1025z" />
<glyph unicode="&#xfb01;" horiz-adv-x="1286" d="M-4 932v63l156 27v39q0 190 125.5 317t357.5 127q137 0 251.5 -40t141.5 -113q20 -55 -23.5 -97.5t-117.5 -44.5q-57 -2 -92 46.5t-41 121.5q-57 33 -146 33q-168 0 -168 -248v-139h211v-92h-211v-848l146 -25l-2 -65l-297 6l-273 -6l-4 65l142 21v852h-156zM678 59 l145 21v827l-114 21l4 82l397 24v-950l143 -25l-2 -65l-297 6l-272 -6z" />
<glyph unicode="&#xfb02;" horiz-adv-x="1298" d="M10 59l142 21v862h-138v43l138 21v55q0 190 125.5 317t357.5 127q217 0 364 -67l144 14v-1368l143 -25l-2 -65l-317 6l-250 -6l-4 65l141 21v1261q-82 66 -225 66q-188 0 -189 -279v-104h232v-82h-232v-858l146 -25l-2 -65l-297 6l-273 -6z" />
<glyph unicode="&#xfb03;" horiz-adv-x="2021" d="M1398 59l160 21v792l-129 37l4 101l410 24v-950l164 -25l-2 -65l-293 6l-307 -6zM1536 1345.5q0 53.5 44 89t124 35.5q78 0 120.5 -35.5t42.5 -89t-44 -91t-119 -37.5q-80 0 -124 37.5t-44 91zM708 59l160 21v846h-141v69l141 15v51q0 190 120 317t337 127 q90 0 160.5 -34.5t87.5 -98.5q6 -18 5 -35q0 -28 -14 -56q-23 -46 -79 -46q-82 0 -113 49q-19 31 -19 65q0 20 7 42q-20 12 -60 12q-145 0 -145 -240v-139h215v-98h-215v-842l160 -25l-2 -65l-291 6l-309 -6zM18 59l160 21v846h-141v69l141 15v51q0 190 120 317t337 127 q90 0 160.5 -34.5t87.5 -98.5q6 -18 5 -35q0 -28 -14 -56q-23 -46 -79 -46q-82 0 -113 49q-19 31 -19 65q0 20 7 42q-20 12 -60 12q-145 0 -145 -240v-139h215v-98h-215v-842l160 -25l-2 -65l-291 6l-309 -6z" />
<glyph unicode="&#xfb04;" horiz-adv-x="2021" d="M1407 57l151 21v1274l-129 37l4 100l412 24v-1431l153 -25l-2 -63l-284 6l-299 -6zM708 59l160 21v846h-141v69l141 15v51q0 190 120 317t337 127q90 0 160.5 -34.5t87.5 -98.5q6 -18 5 -35q0 -28 -14 -56q-23 -46 -79 -46q-82 0 -113 49q-19 31 -19 65q0 20 7 42 q-20 12 -60 12q-145 0 -145 -240v-139h215v-98h-215v-842l160 -25l-2 -65l-291 6l-309 -6zM18 59l160 21v846h-141v69l141 15v51q0 190 120 317t337 127q90 0 160.5 -34.5t87.5 -98.5q6 -18 5 -35q0 -28 -14 -56q-23 -46 -79 -46q-82 0 -113 49q-19 31 -19 65q0 20 7 42 q-20 12 -60 12q-145 0 -145 -240v-139h215v-98h-215v-842l160 -25l-2 -65l-291 6l-309 -6z" />
</font>
</defs>
</svg>
